<?xml version="1.0" standalone="no"?>
<!DOCTYPE svg PUBLIC "-//W3C//DTD SVG 1.1//EN" "http://www.w3.org/Graphics/SVG/1.1/DTD/svg11.dtd" >
<svg xmlns="http://www.w3.org/2000/svg">
<metadata></metadata>
<defs>
<font id="din_mittelschrift_stdregular" horiz-adv-x="1024" >
<font-face units-per-em="2048" ascent="1458" descent="-590" />
<missing-glyph horiz-adv-x="491" />
<glyph unicode="&#xfb01;" horiz-adv-x="1062" d="M63 879v159h105v138q0 140 77.5 211t205.5 71h135v-196h-119q-51 0 -70.5 -19t-19.5 -67v-138h209v-159h-209v-879h-209v879h-105zM713 0v1038h209v-1038h-209zM713 1249v209h209v-209h-209z" />
<glyph unicode="&#xfb02;" horiz-adv-x="1099" d="M63 879v159h105v138q0 140 77.5 211t205.5 71h135v-196h-119q-51 0 -70.5 -19t-19.5 -67v-138h209v-159h-209v-879h-209v879h-105zM713 252v1206h209v-1190q0 -71 77 -71h72v-197h-92q-123 0 -194.5 60t-71.5 192z" />
<glyph horiz-adv-x="2048" />
<glyph horiz-adv-x="2048" />
<glyph unicode="&#xd;" horiz-adv-x="2048" />
<glyph unicode=" "  horiz-adv-x="491" />
<glyph unicode="&#x09;" horiz-adv-x="491" />
<glyph unicode="&#xa0;" horiz-adv-x="491" />
<glyph unicode="!" horiz-adv-x="528" d="M133 1458h262l-80 -1098h-104zM160 0v209h209v-209h-209z" />
<glyph unicode="&#x22;" horiz-adv-x="681" d="M127 1098v360h160v-360h-160zM395 1098v360h160v-360h-160z" />
<glyph unicode="#" horiz-adv-x="983" d="M6 446v136h203l45 295h-188v135h202l64 446h160l-64 -446h201l63 446h160l-64 -446h189v-135h-203l-45 -295h189v-136h-203l-64 -446h-159l63 446h-201l-63 -446h-160l64 446h-189zM369 582h200l45 295h-200z" />
<glyph unicode="$" horiz-adv-x="983" d="M16 182l144 152q58 -66 122.5 -104t155.5 -46v457q-187 43 -271.5 145.5t-84.5 264.5q0 177 95 288t261 131v144h105v-144q99 -1 180.5 -34.5t165.5 -102.5l-119 -155q-95 86 -227 96v-436q190 -37 282.5 -147t92.5 -275q0 -170 -103 -286.5t-272 -141.5v-221h-105v221 q-112 -1 -224 52.5t-198 141.5zM291 1055q0 -75 32.5 -120.5t114.5 -72.5v412q-65 -10 -106 -64.5t-41 -154.5zM543 184q90 22 128 80.5t38 153.5q0 166 -166 198v-432z" />
<glyph unicode="%" horiz-adv-x="1062" d="M104 1128v140q0 100 56 151t137 51t136.5 -50.5t55.5 -151.5v-140q0 -101 -55.5 -151.5t-136.5 -50.5t-137 51t-56 151zM119 0l690 1458h135l-690 -1458h-135zM221 1143q0 -101 76 -101t76 101v110q0 101 -76 101t-76 -101v-110zM573 190v140q0 100 56 151t137 51 t136.5 -50.5t55.5 -151.5v-140q0 -101 -55.5 -151.5t-136.5 -50.5t-137 51t-56 151zM690 205q0 -101 76 -101t76 101v110q0 101 -76 101t-76 -101v-110z" />
<glyph unicode="&#x26;" horiz-adv-x="1327" d="M80 436q0 131 73 244.5t205 181.5q-120 137 -120 277q0 136 91.5 233.5t235.5 97.5t236 -97.5t92 -233.5q0 -211 -244 -326l312 -375q73 94 126 244l187 -74q-81 -200 -191 -315l246 -293h-246l-135 147q-214 -159 -407 -159q-133 0 -240 62t-164 164t-57 222zM264 438 q0 -114 80 -190t191 -76q157 0 292 129l-352 422q-107 -58 -159 -131.5t-52 -153.5zM422 1147q0 -88 108 -186q97 37 138 82t41 104q0 58 -41.5 98.5t-102.5 40.5t-102 -40.5t-41 -98.5z" />
<glyph unicode="'" horiz-adv-x="491" d="M166 1098v360h160v-360h-160z" />
<glyph unicode="(" horiz-adv-x="569" d="M123 625q0 217 83 437.5t240 395.5h82q-196 -411 -196 -833q0 -423 196 -834h-82q-157 175 -240 396t-83 438z" />
<glyph unicode=")" horiz-adv-x="569" d="M41 -209q197 413 197 834q0 420 -197 833h82q157 -175 240 -395.5t83 -437.5t-83 -438t-240 -396h-82z" />
<glyph unicode="*" horiz-adv-x="720" d="M74 1051l170 104l-170 105l61 94l164 -94v198h123v-198l164 94l61 -94l-170 -105l170 -104l-61 -95l-164 95v-199h-123v199l-164 -95z" />
<glyph unicode="+" horiz-adv-x="1228" d="M96 438v160h439v438h159v-438h439v-160h-439v-438h-159v438h-439z" />
<glyph unicode="," horiz-adv-x="491" d="M141 -152v361h209v-209z" />
<glyph unicode="-" horiz-adv-x="833" d="M109 463v209h616v-209h-616z" />
<glyph unicode="." horiz-adv-x="491" d="M141 0v209h209v-209h-209z" />
<glyph unicode="/" horiz-adv-x="681" d="M16 -12l490 1482h160l-490 -1482h-160z" />
<glyph unicode="0" horiz-adv-x="983" d="M78 408v643q0 192 122 305.5t292 113.5q81 0 155 -28.5t132 -80t92 -132.5t34 -178v-643q0 -129 -59 -226.5t-151.5 -145.5t-202.5 -48q-81 0 -155.5 28.5t-132 80.5t-92 133t-34.5 178zM287 420q0 -104 56 -163.5t149 -59.5t148.5 59t55.5 164v618q0 105 -55.5 164.5 t-148.5 59.5t-149 -59.5t-56 -164.5v-618z" />
<glyph unicode="1" horiz-adv-x="983" d="M190 1085v222l207 151h209v-1458h-209v1237z" />
<glyph unicode="2" horiz-adv-x="983" d="M66 0v197l569 712q53 67 53 146q0 81 -56 144t-145 63q-86 0 -146 -57t-67 -154h-208q1 117 56.5 213.5t148 151t200.5 54.5q182 0 304 -121t122 -296q0 -146 -88 -256l-469 -588h557v-209h-831z" />
<glyph unicode="3" horiz-adv-x="983" d="M27 362h209q32 -81 82.5 -123t134.5 -42q91 0 156 63.5t65 167.5q0 106 -64.5 168.5t-160.5 62.5h-89v185h72q103 0 164 58t61 149q0 89 -62.5 150t-150.5 61q-70 0 -127 -46t-73 -131h-209q12 157 129.5 271t271.5 114q95 0 176.5 -35t136.5 -92.5t86 -132.5t31 -155 q0 -201 -155 -301q88 -56 130 -140.5t42 -179.5q0 -199 -126.5 -322.5t-316.5 -123.5q-154 0 -269.5 98.5t-143.5 275.5z" />
<glyph unicode="4" horiz-adv-x="983" d="M25 217v197l487 1044h233l-493 -1044h381v420h209v-420h116v-197h-116v-217h-209v217h-608z" />
<glyph unicode="5" horiz-adv-x="983" d="M76 367h209q18 -80 70.5 -125t138.5 -45q33 0 61 7t47.5 16.5t35.5 28t25.5 33.5t16.5 41.5t10.5 44t5.5 48.5t2 46.5v47.5q0 65 -9 113t-31.5 87.5t-65 60t-105.5 20.5q-62 0 -107 -28t-81 -93h-197v788h777v-209h-580v-329q101 79 233 79q79 0 149 -30t112 -76 q44 -47 66.5 -89.5t35 -116.5t12.5 -193q0 -141 -20 -214.5t-70 -136.5q-50 -65 -132 -110t-183 -45q-58 0 -113.5 13t-108.5 42.5t-95 72.5t-71 107.5t-38 143.5z" />
<glyph unicode="6" horiz-adv-x="983" d="M74 432q0 134 55 244l391 782h234l-308 -616h5q46 18 110 18q71 0 132.5 -24t110.5 -71.5t77 -127t28 -182.5q0 -97 -24 -176.5t-64.5 -132.5t-96.5 -89.5t-117 -52.5t-128 -16q-76 0 -148.5 31.5t-130 87.5t-92 141t-34.5 184zM283 436q0 -120 55.5 -179.5t153.5 -59.5 q83 0 145.5 59.5t62.5 179.5q0 118 -58.5 179t-149.5 61q-92 0 -150.5 -61.5t-58.5 -178.5z" />
<glyph unicode="7" horiz-adv-x="983" d="M104 1038v420h830v-209l-494 -1249h-233l493 1249h-387v-211h-209z" />
<glyph unicode="8" horiz-adv-x="983" d="M47 426q0 103 44.5 188t127.5 140q-145 132 -145 295q0 177 120.5 299t297.5 122t297 -122t120 -299q0 -163 -145 -295q83 -55 127.5 -140t44.5 -188q0 -190 -129.5 -314t-314.5 -124t-315 124t-130 314zM256 428q0 -98 70 -164.5t166 -66.5t165.5 66.5t69.5 164.5 t-69.5 164.5t-165.5 66.5t-166 -66.5t-70 -164.5zM283 1053q0 -98 62 -153.5t147 -55.5t146.5 55.5t61.5 153.5t-61.5 153.5t-146.5 55.5t-147 -55.5t-62 -153.5z" />
<glyph unicode="9" horiz-adv-x="983" d="M74 1004q0 121 36 213t98 146t136.5 80.5t159.5 26.5q76 0 148.5 -31.5t130 -87.5t92 -141t34.5 -184q0 -134 -55 -244l-391 -782h-234l308 616h-5q-46 -18 -110 -18q-71 0 -132.5 24t-110.5 72t-77 127.5t-28 182.5zM283 1022q0 -117 58.5 -178.5t150.5 -61.5 q91 0 149.5 61t58.5 179q0 120 -55 180t-153 60q-83 0 -146 -60t-63 -180z" />
<glyph unicode=":" horiz-adv-x="491" d="M141 0v209h209v-209h-209zM141 465v209h209v-209h-209z" />
<glyph unicode=";" horiz-adv-x="491" d="M141 -152v361h209v-209zM141 465v209h209v-209h-209z" />
<glyph unicode="&#x3c;" horiz-adv-x="1228" d="M96 444v148l1037 461v-172l-852 -363l852 -362v-172z" />
<glyph unicode="=" horiz-adv-x="1228" d="M96 233v160h1037v-160h-1037zM96 643v160h1037v-160h-1037z" />
<glyph unicode="&#x3e;" horiz-adv-x="1228" d="M96 -16v172l852 362l-852 363v172l1037 -461v-148z" />
<glyph unicode="?" horiz-adv-x="948" d="M59 1038v41q0 163 115 277t272 114q76 0 147.5 -28t126.5 -78t88.5 -125t33.5 -162q0 -123 -66 -215l-186 -256q-35 -47 -35 -129v-117h-209v134q0 65 10.5 108t42.5 88l183 254q51 68 51 135q0 80 -55.5 131.5t-120.5 51.5q-84 0 -136.5 -54t-52.5 -170h-209zM346 0v209 h209v-209h-209z" />
<glyph unicode="@" horiz-adv-x="1638" d="M78 737q0 158 59 295.5t161 233t243.5 150t302.5 54.5q195 0 359 -77.5t261 -218.5t97 -316q0 -98 -31.5 -190t-82.5 -160t-113 -119.5t-124.5 -77.5t-115.5 -26q-143 0 -164 131h-4q-52 -63 -108 -97t-150 -34q-126 0 -208.5 90.5t-82.5 220.5q0 81 22.5 162t66 152.5 t101.5 127t136 87.5t163 32q76 0 137 -39.5t95 -120.5h4l24 105h136l-164 -531q-21 -65 -21 -104q0 -59 47 -59q57 0 122.5 68t110 172.5t44.5 199.5q0 202 -152.5 332.5t-394.5 130.5q-142 0 -260 -47t-195 -127t-119 -184t-42 -220q0 -123 44.5 -230.5t124.5 -186.5 t198 -124t259 -45q179 0 302 47.5t214 143.5h136q-103 -164 -282 -257t-394 -93q-161 0 -302 56t-242 154t-159.5 238t-58.5 301zM537 610q0 -83 49.5 -136.5t126.5 -53.5q84 0 160 72t117.5 169t41.5 179q0 71 -48 126.5t-118 55.5q-69 0 -132 -40.5t-105 -102.5 t-67 -133.5t-25 -135.5z" />
<glyph unicode="A" horiz-adv-x="1249" d="M2 0l530 1458h185l530 -1458h-233l-113 326h-553l-112 -326h-234zM412 522h426l-211 637h-4z" />
<glyph unicode="B" horiz-adv-x="1249" d="M154 0v1458h565q208 0 320 -107t112 -284q0 -217 -215 -313v-4q114 -26 176 -122t62 -214q0 -184 -118.5 -299t-287.5 -115h-614zM375 209h340q116 0 176.5 63t60.5 156t-60.5 156t-176.5 63h-340v-438zM375 844h319q115 0 175.5 59t60.5 150q0 90 -61 149.5t-175 59.5 h-319v-418z" />
<glyph unicode="C" horiz-adv-x="1138" d="M104 729q0 172 7 263t18.5 128.5t38.5 87.5q60 108 179 185t278 77q200 0 338.5 -123t173.5 -309h-234q-28 89 -103 150t-175 61q-142 0 -226 -106q-32 -41 -45.5 -76t-20.5 -111.5t-7 -226.5t7 -226.5t20.5 -111.5t45.5 -76q84 -106 226 -106q185 0 278 199h234 q-42 -200 -181 -310t-331 -110q-159 0 -278 77t-179 185q-27 50 -38.5 87.5t-18.5 128.5t-7 263z" />
<glyph unicode="D" horiz-adv-x="1290" d="M154 0v1458h510q145 0 259.5 -63t184.5 -183q53 -91 65.5 -170.5t12.5 -312.5q0 -166 -7.5 -252.5t-23 -133t-51.5 -101.5q-69 -109 -185 -175.5t-270 -66.5h-495zM375 209h264q184 0 270 127q37 56 46.5 120t9.5 265t-11.5 273.5t-54.5 131.5q-50 68 -109.5 95.5 t-150.5 27.5h-264v-1040z" />
<glyph unicode="E" horiz-adv-x="1138" d="M154 0v1458h931v-209h-710v-415h606v-197h-606v-428h710v-209h-931z" />
<glyph unicode="F" horiz-adv-x="1099" d="M154 0v1458h931v-209h-710v-430h606v-196h-606v-623h-221z" />
<glyph unicode="G" horiz-adv-x="1249" d="M104 729q0 172 7 263t18.5 128.5t38.5 87.5q60 108 179 185t278 77q200 0 338.5 -123t173.5 -309h-234q-28 89 -103 150t-175 61q-142 0 -226 -106q-32 -41 -45.5 -76t-20.5 -111.5t-7 -226.5t7 -226.5t20.5 -111.5t45.5 -76q84 -106 226 -106q127 0 213 87t86 222v76 h-297v209h518v-297q0 -142 -69 -261.5t-188.5 -188t-262.5 -68.5q-159 0 -278 77t-179 185q-27 50 -38.5 87.5t-18.5 128.5t-7 263z" />
<glyph unicode="H" horiz-adv-x="1327" d="M154 0v1458h221v-624h577v624h222v-1458h-222v637h-577v-637h-221z" />
<glyph unicode="I" horiz-adv-x="528" d="M154 0v1458h221v-1458h-221z" />
<glyph unicode="J" horiz-adv-x="985" d="M2 178l178 129q31 -44 81.5 -71t113.5 -27q45 0 87 14t80 43.5t61.5 83.5t23.5 125v983h221v-1005q0 -106 -39.5 -195t-105.5 -147t-149.5 -90.5t-172.5 -32.5q-122 0 -218.5 51t-160.5 139z" />
<glyph unicode="K" horiz-adv-x="1290" d="M154 0v1458h221v-751h4l600 751h262l-467 -575l516 -883h-262l-397 713l-256 -269v-444h-221z" />
<glyph unicode="L" horiz-adv-x="1138" d="M154 0v1458h221v-1249h710v-209h-931z" />
<glyph unicode="M" horiz-adv-x="1552" d="M154 0v1458h208l418 -950l410 950h209v-1458h-221v909h-4l-306 -700h-184l-305 700h-4v-909h-221z" />
<glyph unicode="N" horiz-adv-x="1400" d="M154 0v1458h208l660 -1036h4v1036h221v-1458h-209l-659 1036h-4v-1036h-221z" />
<glyph unicode="O" horiz-adv-x="1249" d="M104 729q0 172 7 263t18.5 128.5t38.5 87.5q60 108 179 185t278 77t277.5 -77t178.5 -185q27 -50 38.5 -87.5t18.5 -128.5t7 -263t-7 -263t-18.5 -128.5t-38.5 -87.5q-60 -108 -178.5 -185t-277.5 -77t-278 77t-179 185q-27 50 -38.5 87.5t-18.5 128.5t-7 263zM326 729 q0 -150 7 -226.5t20.5 -111.5t45.5 -76q84 -106 226 -106q141 0 225 106q32 41 45.5 76t21 112t7.5 226t-7.5 226t-21 112t-45.5 76q-84 106 -225 106q-142 0 -226 -106q-32 -41 -45.5 -76t-20.5 -111.5t-7 -226.5z" />
<glyph unicode="P" horiz-adv-x="1214" d="M154 0v1458h528q98 0 174 -20.5t154 -81.5q70 -54 113.5 -144.5t43.5 -203.5q0 -63 -18.5 -125t-56.5 -119t-91 -100t-128 -69t-162 -26h-336v-569h-221zM375 778h327q116 0 180 71t64 165q0 131 -94 194q-61 41 -158 41h-319v-471z" />
<glyph unicode="Q" horiz-adv-x="1249" d="M104 729q0 172 7 263t18.5 128.5t38.5 87.5q60 108 179 185t278 77t277.5 -77t178.5 -185q27 -50 38.5 -87.5t18.5 -128.5t7 -263q0 -229 -10.5 -313.5t-42.5 -143.5l192 -153l-131 -152l-184 148q-148 -127 -344 -127q-159 0 -278 77t-179 185q-27 50 -38.5 87.5 t-18.5 128.5t-7 263zM326 729q0 -150 7 -226.5t20.5 -111.5t45.5 -76q84 -106 226 -106q96 0 163 51l-186 148l131 151l170 -135q21 72 21 305q0 149 -7.5 226t-21 112t-45.5 76q-84 106 -225 106q-142 0 -226 -106q-32 -41 -45.5 -76t-20.5 -111.5t-7 -226.5z" />
<glyph unicode="R" horiz-adv-x="1249" d="M154 0v1458h569q187 0 297 -96q65 -56 105 -136.5t40 -174.5q0 -142 -75.5 -250t-206.5 -154l338 -647h-263l-301 623h-282v-623h-221zM375 819h334q119 0 183 67t64 165q0 112 -73 166q-60 45 -162 45h-346v-443z" />
<glyph unicode="S" horiz-adv-x="1175" d="M27 188l145 166q86 -68 193 -106.5t221 -38.5q134 0 211 55.5t77 147.5q0 80 -47.5 132t-142.5 64q-35 4 -96.5 13t-95.5 14q-185 26 -286.5 136.5t-101.5 272.5q0 191 127 308.5t349 117.5q245 0 473 -151l-123 -182q-175 112 -361 112q-106 0 -174.5 -54.5 t-68.5 -154.5q0 -67 51 -118.5t155 -67.5q108 -17 164 -23q194 -24 297 -142t103 -277q0 -199 -137.5 -311.5t-374.5 -112.5q-329 0 -557 200z" />
<glyph unicode="T" d="M2 1262v196h1020v-196h-399v-1262h-222v1262h-399z" />
<glyph unicode="U" horiz-adv-x="1290" d="M127 494v964h221v-940q0 -146 83 -227.5t214 -81.5t214 81.5t83 227.5v940h221v-964q0 -148 -69 -264.5t-187 -179t-262 -62.5t-262 62.5t-187 179t-69 264.5z" />
<glyph unicode="V" horiz-adv-x="1138" d="M2 1458h234l331 -1110h4l332 1110h234l-482 -1458h-172z" />
<glyph unicode="W" horiz-adv-x="1703" d="M23 1458h233l229 -1036h4l283 1036h160l282 -1036h5l229 1036h233l-364 -1458h-184l-279 1051h-4l-279 -1051h-184z" />
<glyph unicode="X" horiz-adv-x="1097" d="M-20 0l446 748l-418 710h250l291 -506l291 506h250l-418 -710l446 -748h-250l-319 543l-320 -543h-249z" />
<glyph unicode="Y" d="M-31 1458h234l309 -647l309 647h234l-439 -858v-600h-208v600z" />
<glyph unicode="Z" horiz-adv-x="1062" d="M66 0v184l661 1078h-635v196h905v-166l-663 -1083h663v-209h-931z" />
<glyph unicode="[" horiz-adv-x="569" d="M147 -209v1667h379v-135h-194v-1397h194v-135h-379z" />
<glyph unicode="\" horiz-adv-x="681" d="M16 1470h160l490 -1482h-160z" />
<glyph unicode="]" horiz-adv-x="569" d="M43 -74h195v1397h-195v135h379v-1667h-379v135z" />
<glyph unicode="^" horiz-adv-x="1228" d="M102 580l445 878h135l444 -878h-172l-340 706l-340 -706h-172z" />
<glyph unicode="_" d="M0 -154h1024v-102h-1024v102z" />
<glyph unicode="`" horiz-adv-x="491" d="M-59 1470h274l188 -299h-172z" />
<glyph unicode="a" d="M53 305q0 131 89 219t249 88h289v109q0 73 -49.5 103t-163.5 30q-82 0 -125.5 -18t-71.5 -62l-164 125q58 81 144 116.5t207 35.5q100 0 176.5 -18t135 -57t89.5 -106t31 -161v-709h-209v92h-4q-33 -55 -92.5 -79.5t-163.5 -24.5q-169 0 -268 89t-99 228zM250 315 q0 -57 48 -94t148 -37q57 0 91.5 3.5t65 13.5t45.5 30.5t23.5 52.5t8.5 81v75h-250q-90 0 -135 -33t-45 -92z" />
<glyph unicode="b" horiz-adv-x="1062" d="M135 0v1458h209v-530q130 123 268 123q176 0 279 -136q44 -57 59 -133t15 -262q0 -187 -15 -263.5t-59 -133.5q-102 -135 -279 -135q-77 0 -147 32.5t-121 88.5v-109h-209zM344 520q0 -46 2 -77.5t8 -73t19.5 -69t35.5 -53t57.5 -38t82.5 -12.5q41 0 73.5 10t54 25.5 t36.5 41.5t23.5 50.5t13 61t5.5 65t1 69.5t-1 69t-5.5 64.5t-13 61t-23.5 50.5t-36.5 41.5t-54 25.5t-73.5 10q-47 0 -82.5 -12.5t-57.5 -38.5t-35.5 -53t-19.5 -68.5t-8 -73t-2 -76.5z" />
<glyph unicode="c" horiz-adv-x="909" d="M55 518q0 138 39.5 243.5t107 167t149.5 92t175 30.5q216 0 373 -181l-154 -137q-88 109 -210 109q-271 0 -271 -324q0 -321 271 -321q123 0 210 108l154 -137q-156 -180 -373 -180q-74 0 -141.5 18.5t-128 59.5t-105 101.5t-70.5 150.5t-26 200z" />
<glyph unicode="d" horiz-adv-x="1062" d="M135 520q0 186 15 262t59 133q103 136 278 136q139 0 269 -123v530h209v-1458h-209v109q-51 -56 -121.5 -88.5t-147.5 -32.5q-176 0 -278 135q-44 57 -59 133.5t-15 263.5zM344 520q0 -41 1 -69.5t5.5 -65t13 -61t23.5 -50.5t36.5 -41.5t54 -25.5t73.5 -10 q47 0 82.5 12.5t57.5 38t35.5 53t19.5 69t8 73t2 77.5q0 45 -2 76.5t-8 73t-19.5 68.5t-35.5 53t-57.5 38.5t-82.5 12.5q-41 0 -73.5 -10t-54 -25.5t-36.5 -41.5t-23.5 -50.5t-13 -61t-5.5 -64.5t-1 -69z" />
<glyph unicode="e" d="M84 516q0 117 25.5 210t67 153t98 99.5t115.5 56t122 16.5q115 0 212 -53t156.5 -154.5t59.5 -231.5v-172h-647q0 -124 68.5 -190t179.5 -66q60 0 120.5 27t106.5 74l152 -129q-144 -168 -375 -168q-69 0 -130.5 13.5t-123.5 50t-106.5 94t-72.5 152.5t-28 218zM293 612 h438q-4 116 -64 179t-155 63t-155.5 -63.5t-63.5 -178.5z" />
<glyph unicode="f" horiz-adv-x="569" d="M63 879v159h105v138q0 140 77.5 211t205.5 71h135v-196h-119q-51 0 -70.5 -19t-19.5 -67v-138h209v-159h-209v-879h-209v879h-105z" />
<glyph unicode="g" horiz-adv-x="1062" d="M98 518q0 143 8 218.5t22.5 109.5t47.5 78q42 52 112.5 89.5t162.5 37.5q151 0 268 -123v110h209v-1013q0 -114 -36.5 -203t-100 -143.5t-143.5 -82.5t-171 -28q-98 0 -194 47t-166 127l162 129q94 -94 202 -94q107 0 172.5 59.5t65.5 165.5v107q-51 -56 -121 -88.5 t-147 -32.5q-92 0 -162.5 37.5t-112.5 89.5q-34 44 -48 77.5t-22 108.5t-8 217zM307 518q0 -126 7 -166.5t34 -75.5q62 -79 166 -79q102 0 164 79q27 35 34 75.5t7 166.5q0 127 -6.5 168t-34.5 76q-63 80 -164 80q-103 0 -166 -80q-28 -35 -34.5 -76t-6.5 -168z" />
<glyph unicode="h" horiz-adv-x="1099" d="M135 0v1458h209v-530h4q99 123 270 123q62 0 122.5 -24t111.5 -67.5t82 -114t31 -155.5v-690h-209v618q0 103 -57.5 163.5t-147.5 60.5q-91 0 -149 -60t-58 -164v-618h-209z" />
<glyph unicode="i" horiz-adv-x="491" d="M141 0v1038h209v-1038h-209zM141 1249v209h209v-209h-209z" />
<glyph unicode="j" horiz-adv-x="528" d="M-14 -223h59q117 0 117 110v1151h209v-1167q0 -130 -85 -210.5t-218 -80.5h-82v197zM162 1249v209h209v-209h-209z" />
<glyph unicode="k" horiz-adv-x="1062" d="M135 0v1458h209v-907h4l400 487h249l-358 -405l408 -633h-263l-276 485l-164 -186v-299h-209z" />
<glyph unicode="l" horiz-adv-x="528" d="M135 252v1206h209v-1190q0 -71 78 -71h72v-197h-93q-123 0 -194.5 60t-71.5 192z" />
<glyph unicode="m" horiz-adv-x="1744" d="M147 0v1038h209v-110h4q99 123 271 123q99 0 163 -34t130 -102q65 71 143 103.5t184 32.5q62 0 122.5 -24t111 -67.5t81.5 -114t31 -155.5v-690h-208v618q0 103 -57.5 163.5t-147.5 60.5q-91 0 -149 -60t-58 -164v-618h-209v618q0 103 -57.5 163.5t-147.5 60.5 q-91 0 -149 -60t-58 -164v-618h-209z" />
<glyph unicode="n" horiz-adv-x="1099" d="M135 0v1038h209v-110h4q99 123 270 123q62 0 122.5 -24t111.5 -67.5t82 -114t31 -155.5v-690h-209v618q0 103 -57.5 163.5t-147.5 60.5q-91 0 -149 -60t-58 -164v-618h-209z" />
<glyph unicode="o" d="M84 520q0 162 25 245.5t88 152.5q120 133 315 133t315 -133q63 -69 88 -152.5t25 -245.5q0 -163 -25 -246.5t-88 -152.5q-120 -133 -315 -133t-315 133q-63 69 -88 152.5t-25 246.5zM293 520q0 -110 10.5 -157.5t40.5 -90.5q24 -33 69.5 -54t98.5 -21t98.5 21t69.5 54 q30 43 40.5 90t10.5 156q0 110 -10.5 157.5t-40.5 90.5q-24 33 -69.5 54.5t-98.5 21.5t-98.5 -21.5t-69.5 -54.5q-30 -43 -40.5 -90t-10.5 -156z" />
<glyph unicode="p" horiz-adv-x="1062" d="M135 -420v1458h209v-108q51 56 121 88.5t147 32.5q176 0 279 -136q44 -57 59 -133.5t15 -263.5q0 -186 -15 -262t-59 -133q-102 -135 -279 -135q-138 0 -268 123v-531h-209zM344 518q0 -55 2.5 -92t14 -84.5t32 -76t60.5 -48.5t96 -20q41 0 73.5 10t54 25t36.5 41.5 t23.5 50.5t13 60.5t5.5 64.5t1 69t-1 69.5t-5.5 65t-13 61.5t-23.5 51t-36.5 41.5t-54 25.5t-73.5 10q-47 0 -82.5 -12.5t-57.5 -38.5t-35.5 -53.5t-19.5 -69t-8 -73t-2 -77.5z" />
<glyph unicode="q" horiz-adv-x="1062" d="M98 518q0 187 15 263.5t59 133.5q103 136 279 136q77 0 147 -32.5t121 -88.5v108h209v-1458h-209v531q-130 -123 -268 -123q-177 0 -279 135q-44 57 -59 133t-15 262zM307 518q0 -41 1 -69t5.5 -64.5t13 -60.5t23.5 -50.5t36.5 -41.5t54 -25t73.5 -10q56 0 96 20 t60.5 48.5t32 76t14 84.5t2.5 92q0 46 -2 77.5t-8 73t-19.5 69t-35.5 53.5t-57.5 38.5t-82.5 12.5q-41 0 -73.5 -10t-54 -25.5t-36.5 -41.5t-23.5 -51t-13 -61.5t-5.5 -65t-1 -69.5z" />
<glyph unicode="r" horiz-adv-x="796" d="M135 0v1038h209v-110h4q99 123 270 123q115 0 218 -80l-152 -180q-37 28 -67.5 39.5t-69.5 11.5q-84 0 -143.5 -55t-59.5 -162v-625h-209z" />
<glyph unicode="s" horiz-adv-x="983" d="M20 174l146 143q69 -68 147.5 -100.5t180.5 -32.5q92 0 148 34.5t56 98.5q0 52 -33.5 75t-93.5 28l-184 16q-134 11 -216.5 88t-82.5 207q0 153 108 236.5t279 83.5q240 0 408 -142l-129 -151q-138 96 -279 96q-178 0 -178 -125q0 -38 32.5 -65t104.5 -33l172 -13 q154 -10 227.5 -94t73.5 -217q0 -148 -121.5 -233.5t-308.5 -85.5q-259 0 -457 186z" />
<glyph unicode="t" horiz-adv-x="569" d="M43 879v159h104v316h209v-316h152v-159h-152v-605q0 -42 17.5 -59.5t56.5 -17.5h78v-197h-109q-112 0 -182 68t-70 188v623h-104z" />
<glyph unicode="u" horiz-adv-x="1099" d="M135 348v690h209v-618q0 -104 58 -163.5t149 -59.5q90 0 147.5 60t57.5 163v618h209v-1038h-209v111h-4q-99 -123 -269 -123q-63 0 -124 23.5t-111.5 67.5t-81.5 114t-31 155z" />
<glyph unicode="v" horiz-adv-x="909" d="M-12 1038h221l244 -727h4l243 727h222l-381 -1038h-172z" />
<glyph unicode="w" horiz-adv-x="1478" d="M4 1038h221l199 -727h4l236 727h151l236 -727h4l198 727h222l-332 -1038h-185l-217 727h-4l-217 -727h-184z" />
<glyph unicode="x" horiz-adv-x="983" d="M20 0l355 530l-340 508h250l207 -336l206 336h250l-340 -508l355 -530h-250l-221 346l-222 -346h-250z" />
<glyph unicode="y" horiz-adv-x="909" d="M-14 1038h221l246 -727h4l245 727h222l-447 -1253q-40 -113 -114.5 -159t-178.5 -46h-69v197h61q42 0 76.5 23t48.5 67l57 174z" />
<glyph unicode="z" horiz-adv-x="909" d="M68 0v166l520 688h-492v184h746v-166l-520 -675h520v-197h-774z" />
<glyph unicode="{" horiz-adv-x="569" d="M29 557v135q75 0 117 70.5t42 175.5v293q0 104 58 165.5t143 61.5h174v-135h-100q-46 0 -68 -49t-22 -121v-264q0 -63 -19.5 -114.5t-48 -81t-52 -45.5t-40.5 -21v-4q18 -5 40.5 -20t51.5 -44.5t48.5 -82.5t19.5 -118v-262q0 -72 22 -121t68 -49h100v-135h-174 q-85 0 -143 61.5t-58 165.5v289q0 107 -42 178t-117 72z" />
<glyph unicode="|" horiz-adv-x="454" d="M147 -512v2048h160v-2048h-160z" />
<glyph unicode="}" horiz-adv-x="569" d="M6 -74h100q46 0 68.5 49t22.5 121v264q0 63 19.5 115t47.5 81.5t51.5 45.5t40.5 21v4q-13 4 -30 13t-40.5 30.5t-42.5 49t-32.5 73t-13.5 98.5v262q0 72 -22.5 121t-68.5 49h-100v135h174q85 0 143 -61.5t58 -165.5v-289q0 -107 42.5 -178t117.5 -72v-135 q-75 0 -117.5 -70.5t-42.5 -175.5v-293q0 -104 -58 -165.5t-143 -61.5h-174v135z" />
<glyph unicode="~" horiz-adv-x="1228" d="M141 489q94 179 256 179q85 0 228 -68q54 -26 78.5 -37t64.5 -24t66 -13q29 0 55 11.5t49.5 36.5t38 45t37.5 55l73 -129q-93 -178 -256 -178q-74 0 -227 67q-14 6 -44.5 20t-47.5 21t-40.5 16t-42 13t-34.5 4q-29 0 -54.5 -11.5t-49.5 -37t-38 -44t-38 -53.5z" />
<glyph unicode="&#xa1;" horiz-adv-x="528" d="M133 -420l80 1098h104l78 -1098h-262zM160 829v209h209v-209h-209z" />
<glyph unicode="&#xa2;" horiz-adv-x="983" d="M70 518q0 104 23.5 190.5t63.5 146.5t95 103t116.5 65t129.5 28v186h82v-186q198 -22 333 -181l-153 -137q-71 87 -180 109v-645q110 22 180 108l153 -137q-135 -158 -333 -180v-187h-82v187q-86 7 -160.5 41t-135.5 96t-96.5 163t-35.5 230zM279 518q0 -289 219 -321 v645q-219 -32 -219 -324z" />
<glyph unicode="&#xa3;" horiz-adv-x="983" d="M59 614v136h113q-72 154 -72 307q0 190 107 301.5t274 111.5q199 0 302.5 -114t103.5 -305h-209q-3 109 -51 166t-131 57q-84 0 -135.5 -59t-51.5 -162q0 -73 20.5 -155.5t51.5 -147.5h330v-136h-279q37 -125 37 -180q0 -101 -63 -221q10 -1 100 -15t129 -14 q114 0 199 68l129 -162q-123 -102 -297 -102q-37 0 -194 20.5t-206 20.5q-91 0 -180 -41v196q63 38 150 41q36 99 36 174q0 62 -49 215h-164z" />
<glyph unicode="&#xa4;" horiz-adv-x="983" d="M31 375l100 102q-35 42 -56.5 110.5t-21.5 141.5q0 74 21 141.5t57 112.5l-100 100l108 107l101 -100q44 35 112.5 57t141.5 22q147 0 251 -77l101 98l106 -107l-98 -100q35 -46 57.5 -114t22.5 -140q0 -74 -22.5 -141.5t-57.5 -112.5l98 -100l-106 -107l-101 101 q-104 -80 -251 -80q-72 0 -140 23t-114 57l-101 -101zM213 729q0 -134 77 -213.5t204 -79.5t203.5 79.5t76.5 213.5t-76.5 213.5t-203.5 79.5t-204 -79.5t-77 -213.5z" />
<glyph unicode="&#xa5;" horiz-adv-x="983" d="M-29 1458h222l299 -647l299 647h221l-328 -667h213v-136h-279l-28 -55v-137h307v-135h-307v-328h-197v328h-307v135h307v137l-28 55h-279v136h213z" />
<glyph unicode="&#xa6;" horiz-adv-x="454" d="M147 -358v716h160v-716h-160zM147 666v716h160v-716h-160z" />
<glyph unicode="&#xa7;" horiz-adv-x="983" d="M94 551q0 144 40 217t161 127q-74 41 -104.5 99t-30.5 145q0 143 95.5 236t236.5 93q146 0 242.5 -90t96.5 -262h-184q0 75 -40.5 121.5t-114.5 46.5q-71 0 -109.5 -39.5t-38.5 -89.5q0 -65 42.5 -96.5t168.5 -71.5q74 -24 121 -44.5t92 -52.5t68.5 -72.5t38 -101 t14.5 -141.5q0 -68 -6.5 -111t-26.5 -85t-58.5 -74.5t-101.5 -66.5q158 -66 158 -263q0 -165 -108 -266.5t-265 -101.5q-143 0 -244.5 102.5t-101.5 270.5h184q5 -81 50.5 -129t126.5 -48q71 0 116 42.5t45 117.5t-36.5 107t-169.5 77l-78 27q-165 57 -222 137t-57 240z M303 567q0 -60 7 -95t28 -64q53 -74 154 -74q100 0 153 74q21 29 28 64t7 95q0 70 -9 103t-34 65q-21 26 -59 44t-86 18t-86.5 -18t-59.5 -44q-25 -32 -34 -65t-9 -103z" />
<glyph unicode="&#xa8;" horiz-adv-x="491" d="M-45 1200v221h221v-221h-221zM315 1200v221h222v-221h-222z" />
<glyph unicode="&#xa9;" horiz-adv-x="1638" d="M78 729q0 151 58.5 288.5t157.5 236.5t236.5 157.5t288.5 58.5q202 0 372.5 -99t270 -269.5t99.5 -372.5t-99.5 -372.5t-270 -269.5t-372.5 -99q-151 0 -288.5 58.5t-236.5 157.5t-157.5 236.5t-58.5 288.5zM238 729q0 -170 75 -306t208 -212t298 -76t298 76t208.5 212 t75.5 306t-75.5 306t-208.5 212t-298 76t-298 -76t-208 -212t-75 -306zM395 729q0 212 118.5 342.5t326.5 130.5q155 0 258 -86t123 -248h-148q-17 83 -80.5 135t-150.5 52q-132 0 -209.5 -92.5t-77.5 -229.5q0 -86 35.5 -160.5t103 -122t152.5 -47.5q87 0 150 55t77 142 h148q-28 -161 -128.5 -252.5t-246.5 -91.5q-205 0 -328 133t-123 340z" />
<glyph unicode="&#xaa;" horiz-adv-x="665" d="M12 1016q0 89 57 146t154 57h230v36q0 22 -8.5 37.5t-21 23.5t-33 12.5t-37 5.5t-40.5 1q-74 0 -103.5 -10t-47.5 -37l-107 90q40 53 97.5 72.5t154.5 19.5q151 0 228 -46.5t77 -157.5v-426h-159v59h-4q-43 -68 -164 -68q-138 0 -205.5 53.5t-67.5 131.5zM172 1028 q0 -32 37.5 -46.5t89.5 -14.5q97 0 125.5 18.5t28.5 73.5v37h-164q-117 0 -117 -68z" />
<glyph unicode="&#xab;" horiz-adv-x="983" d="M96 567l418 414v-209l-209 -205l209 -205v-208zM469 567l418 414v-209l-209 -205l209 -205v-208z" />
<glyph unicode="&#xac;" horiz-adv-x="1228" d="M96 643v160h1037v-582h-160v422h-877z" />
<glyph unicode="&#xad;" horiz-adv-x="833" d="M109 463v209h616v-209h-616z" />
<glyph unicode="&#xae;" horiz-adv-x="1638" d="M78 729q0 151 58.5 288.5t157.5 236.5t236.5 157.5t288.5 58.5q202 0 372.5 -99t270 -269.5t99.5 -372.5t-99.5 -372.5t-270 -269.5t-372.5 -99q-151 0 -288.5 58.5t-236.5 157.5t-157.5 236.5t-58.5 288.5zM238 729q0 -170 75 -306t208 -212t298 -76t298 76t208.5 212 t75.5 306t-75.5 306t-208.5 212t-298 76t-298 -76t-208 -212t-75 -306zM539 317v865h327q150 0 223.5 -62.5t73.5 -195.5q0 -226 -221 -252l248 -355h-172l-248 351h-84v-351h-147zM686 803h102q42 0 70 1.5t61 8.5t52 19.5t32 35.5t13 56q0 123 -195 123h-135v-244z" />
<glyph unicode="&#xaf;" horiz-adv-x="491" d="M-49 1243v135h590v-135h-590z" />
<glyph unicode="&#xb0;" horiz-adv-x="819" d="M117 1178q0 121 85.5 206.5t207.5 85.5t207 -85t85 -207t-85.5 -207.5t-206.5 -85.5q-122 0 -207.5 85.5t-85.5 207.5zM221 1178q0 -78 55.5 -133.5t133.5 -55.5t133 55.5t55 133.5t-55 133t-133 55t-133.5 -55t-55.5 -133z" />
<glyph unicode="&#xb1;" horiz-adv-x="1228" d="M96 0v160h1037v-160h-1037zM96 580v159h439v297h159v-297h439v-159h-439v-297h-159v297h-439z" />
<glyph unicode="&#xb2;" horiz-adv-x="638" d="M31 588v147l360 385q45 48 45 99q0 46 -30 75t-82 29t-81 -33.5t-34 -93.5h-172q0 122 79.5 198t200.5 76q127 0 209 -72.5t82 -178.5q0 -94 -65 -164l-303 -320h368v-147h-577z" />
<glyph unicode="&#xb3;" horiz-adv-x="638" d="M10 825h172q15 -46 51 -72t89 -26q59 0 97 32t38 85q0 56 -42.5 91.5t-105.5 35.5h-76v135h66q68 0 107.5 30.5t39.5 82.5q0 43 -34.5 73.5t-85.5 30.5q-50 0 -88.5 -27t-49.5 -79h-172q8 111 88.5 182t202.5 71q144 0 227.5 -73.5t83.5 -175.5q0 -121 -104 -181 q115 -64 115 -192q0 -121 -87.5 -194.5t-230.5 -73.5q-123 0 -202 61.5t-99 183.5z" />
<glyph unicode="&#xb4;" horiz-adv-x="491" d="M88 1171l188 299h275l-291 -299h-172z" />
<glyph unicode="&#xb5;" horiz-adv-x="1099" d="M135 -420v1458h209v-618q0 -104 58 -163.5t149 -59.5q90 0 147.5 60t57.5 163v618h209v-1038h-209v111h-4q-99 -123 -269 -123q-71 0 -139 30v-438h-209z" />
<glyph unicode="&#xb6;" horiz-adv-x="1228" d="M98 1065q0 195 123 294t344 99h430v-1837h-159v1702h-148v-1702h-160v1063q-187 0 -308.5 109.5t-121.5 271.5z" />
<glyph unicode="&#xb7;" horiz-adv-x="491" d="M109 598q0 57 40 97t97 40t97 -40t40 -97t-40 -97t-97 -40t-97 40t-40 97z" />
<glyph unicode="&#xb8;" horiz-adv-x="491" d="M10 -414l37 86q84 -30 143 -30q119 0 119 86q0 37 -28 56t-72 19q-41 0 -78 -22l-45 39l129 180h104l-90 -123h4q24 8 56 8q82 0 131 -45t49 -110q0 -93 -72.5 -143t-179.5 -50q-84 0 -207 49z" />
<glyph unicode="&#xb9;" horiz-adv-x="638" d="M104 1200v172l136 90h172v-874h-172v702z" />
<glyph unicode="&#xba;" horiz-adv-x="665" d="M31 1151q0 96 12.5 141t52.5 88q81 90 238 90q154 0 235 -90q40 -43 53 -88.5t13 -140.5t-13 -140.5t-53 -88.5q-82 -91 -237 -91q-154 0 -236 91q-40 43 -52.5 88t-12.5 141zM190 1151q0 -60 5 -85t26 -50q40 -49 111 -49q72 0 112 49q21 25 26 50t5 85t-5 85t-26 50 q-40 49 -110 49q-73 0 -113 -49q-21 -25 -26 -50t-5 -85z" />
<glyph unicode="&#xbb;" horiz-adv-x="983" d="M96 154v208l209 205l-209 205v209l418 -414zM469 154v208l209 205l-209 205v209l418 -414z" />
<glyph unicode="&#xbc;" horiz-adv-x="1476" d="M104 1200v172l136 90h172v-874h-172v702zM199 -35l882 1528h136l-883 -1528h-135zM770 127v147l317 596h173l-312 -596h223v226h172v-226h68v-147h-68v-127h-172v127h-401z" />
<glyph unicode="&#xbd;" horiz-adv-x="1476" d="M104 1200v172l136 90h172v-874h-172v702zM147 -35l883 1528h135l-882 -1528h-136zM834 0v147l360 385q45 48 45 99q0 46 -30.5 75t-82.5 29q-51 0 -80 -33.5t-34 -93.5h-172q0 122 79.5 198.5t200.5 76.5q127 0 209 -73t82 -179q0 -94 -65 -164l-304 -320h369v-147h-577z " />
<glyph unicode="&#xbe;" horiz-adv-x="1476" d="M10 825h172q15 -46 51 -72t89 -26q59 0 97 32t38 85q0 56 -42.5 91.5t-105.5 35.5h-76v135h66q68 0 107.5 30.5t39.5 82.5q0 43 -34.5 73.5t-85.5 30.5q-50 0 -88.5 -27t-49.5 -79h-172q8 111 88.5 182t202.5 71q144 0 227.5 -73.5t83.5 -175.5q0 -121 -104 -181 q115 -64 115 -192q0 -121 -87.5 -194.5t-230.5 -73.5q-123 0 -202 61.5t-99 183.5zM260 -35l883 1528h135l-883 -1528h-135zM770 127v147l317 596h173l-312 -596h223v226h172v-226h68v-147h-68v-127h-172v127h-401z" />
<glyph unicode="&#xbf;" horiz-adv-x="948" d="M106 -39q0 123 66 215l186 256q35 47 35 129v117h209v-133q0 -65 -10.5 -108.5t-42.5 -88.5l-182 -254q-52 -70 -52 -135q0 -80 56 -131t121 -51q84 0 136 53.5t52 169.5h209v-41q0 -163 -115 -277t-272 -114q-76 0 -147.5 28t-126.5 78t-88.5 125t-33.5 162zM393 829 v209h209v-209h-209z" />
<glyph unicode="&#xc0;" horiz-adv-x="1249" d="M2 0l530 1458h185l530 -1458h-233l-113 326h-553l-112 -326h-234zM319 1829h275l188 -299h-172zM412 522h426l-211 637h-4z" />
<glyph unicode="&#xc1;" horiz-adv-x="1249" d="M2 0l530 1458h185l530 -1458h-233l-113 326h-553l-112 -326h-234zM412 522h426l-211 637h-4zM467 1530l188 299h275l-291 -299h-172z" />
<glyph unicode="&#xc2;" horiz-adv-x="1249" d="M2 0l530 1458h185l530 -1458h-233l-113 326h-553l-112 -326h-234zM291 1530l217 299h233l217 -299h-196l-137 176l-138 -176h-196zM412 522h426l-211 637h-4z" />
<glyph unicode="&#xc3;" horiz-adv-x="1249" d="M2 0l530 1458h185l530 -1458h-233l-113 326h-553l-112 -326h-234zM260 1550q14 107 77 172.5t155 65.5q53 0 145.5 -39t132.5 -39q79 0 96 90h123q-19 -104 -74.5 -170.5t-150.5 -66.5q-55 0 -156 37.5t-139 37.5q-30 0 -58 -21.5t-28 -66.5h-123zM412 522h426l-211 637 h-4z" />
<glyph unicode="&#xc4;" horiz-adv-x="1249" d="M2 0l530 1458h185l530 -1458h-233l-113 326h-553l-112 -326h-234zM334 1559v221h221v-221h-221zM412 522h426l-211 637h-4zM694 1559v221h221v-221h-221z" />
<glyph unicode="&#xc5;" horiz-adv-x="1249" d="M2 0l530 1458h185l530 -1458h-233l-113 326h-553l-112 -326h-234zM412 522h426l-211 637h-4zM414 1710q0 88 61.5 149.5t149.5 61.5t149.5 -61.5t61.5 -149.5t-61.5 -149.5t-149.5 -61.5t-149.5 61.5t-61.5 149.5zM496 1710q0 -54 37.5 -91.5t91.5 -37.5t91.5 37.5 t37.5 91.5t-37.5 91.5t-91.5 37.5t-91.5 -37.5t-37.5 -91.5z" />
<glyph unicode="&#xc6;" horiz-adv-x="1857" d="M-23 0l793 1458h1034v-209h-710v-415h606v-197h-606v-428h710v-209h-932v326h-485l-176 -326h-234zM492 522h380v740h-4z" />
<glyph unicode="&#xc7;" horiz-adv-x="1138" d="M104 729q0 172 7 263t18.5 128.5t38.5 87.5q60 108 179 185t278 77q200 0 338.5 -123t173.5 -309h-234q-28 89 -103 150t-175 61q-142 0 -226 -106q-32 -41 -45.5 -76t-20.5 -111.5t-7 -226.5t7 -226.5t20.5 -111.5t45.5 -76q84 -106 226 -106q185 0 278 199h234 q-37 -179 -153.5 -286.5t-283.5 -129.5l-86 -115h4q24 8 56 8q82 0 131 -45t49 -110q0 -93 -72.5 -143t-179.5 -50q-84 0 -207 49l37 86q84 -30 143 -30q119 0 119 86q0 37 -28 56t-72 19q-41 0 -78 -22l-45 39l123 168q-148 8 -258 83.5t-168 178.5q-27 50 -38.5 87.5 t-18.5 128.5t-7 263z" />
<glyph unicode="&#xc8;" horiz-adv-x="1138" d="M154 0v1458h931v-209h-710v-415h606v-197h-606v-428h710v-209h-931zM326 1829h274l188 -299h-172z" />
<glyph unicode="&#xc9;" horiz-adv-x="1138" d="M154 0v1458h931v-209h-710v-415h606v-197h-606v-428h710v-209h-931zM473 1530l189 299h274l-291 -299h-172z" />
<glyph unicode="&#xca;" horiz-adv-x="1138" d="M154 0v1458h931v-209h-710v-415h606v-197h-606v-428h710v-209h-931zM297 1530l217 299h234l217 -299h-197l-137 176l-137 -176h-197z" />
<glyph unicode="&#xcb;" horiz-adv-x="1138" d="M154 0v1458h931v-209h-710v-415h606v-197h-606v-428h710v-209h-931zM340 1559v221h221v-221h-221zM700 1559v221h222v-221h-222z" />
<glyph unicode="&#xcc;" horiz-adv-x="528" d="M-41 1829h274l189 -299h-172zM154 0v1458h221v-1458h-221z" />
<glyph unicode="&#xcd;" horiz-adv-x="528" d="M106 1530l189 299h274l-290 -299h-173zM154 0v1458h221v-1458h-221z" />
<glyph unicode="&#xce;" horiz-adv-x="528" d="M-70 1530l217 299h234l217 -299h-197l-137 176l-137 -176h-197zM154 0v1458h221v-1458h-221z" />
<glyph unicode="&#xcf;" horiz-adv-x="528" d="M-27 1559v221h222v-221h-222zM154 0v1458h221v-1458h-221zM334 1559v221h221v-221h-221z" />
<glyph unicode="&#xd0;" horiz-adv-x="1290" d="M0 637v197h154v624h510q145 0 259.5 -63t184.5 -183q53 -91 65.5 -170.5t12.5 -312.5q0 -166 -7.5 -252.5t-23 -133t-51.5 -101.5q-69 -109 -185 -175.5t-270 -66.5h-495v637h-154zM375 209h264q184 0 270 127q37 56 46.5 120t9.5 265t-11.5 273.5t-54.5 131.5 q-50 68 -109.5 95.5t-150.5 27.5h-264v-415h278v-197h-278v-428z" />
<glyph unicode="&#xd1;" horiz-adv-x="1400" d="M154 0v1458h208l660 -1036h4v1036h221v-1458h-209l-659 1036h-4v-1036h-221zM336 1550q14 107 76.5 172.5t154.5 65.5q53 0 146 -39t133 -39q79 0 96 90h123q-19 -104 -74.5 -170.5t-150.5 -66.5q-55 0 -156 37.5t-139 37.5q-30 0 -58 -21.5t-28 -66.5h-123z" />
<glyph unicode="&#xd2;" horiz-adv-x="1249" d="M104 729q0 172 7 263t18.5 128.5t38.5 87.5q60 108 179 185t278 77t277.5 -77t178.5 -185q27 -50 38.5 -87.5t18.5 -128.5t7 -263t-7 -263t-18.5 -128.5t-38.5 -87.5q-60 -108 -178.5 -185t-277.5 -77t-278 77t-179 185q-27 50 -38.5 87.5t-18.5 128.5t-7 263zM319 1829 h275l188 -299h-172zM326 729q0 -150 7 -226.5t20.5 -111.5t45.5 -76q84 -106 226 -106q141 0 225 106q32 41 45.5 76t21 112t7.5 226t-7.5 226t-21 112t-45.5 76q-84 106 -225 106q-142 0 -226 -106q-32 -41 -45.5 -76t-20.5 -111.5t-7 -226.5z" />
<glyph unicode="&#xd3;" horiz-adv-x="1249" d="M104 729q0 172 7 263t18.5 128.5t38.5 87.5q60 108 179 185t278 77t277.5 -77t178.5 -185q27 -50 38.5 -87.5t18.5 -128.5t7 -263t-7 -263t-18.5 -128.5t-38.5 -87.5q-60 -108 -178.5 -185t-277.5 -77t-278 77t-179 185q-27 50 -38.5 87.5t-18.5 128.5t-7 263zM326 729 q0 -150 7 -226.5t20.5 -111.5t45.5 -76q84 -106 226 -106q141 0 225 106q32 41 45.5 76t21 112t7.5 226t-7.5 226t-21 112t-45.5 76q-84 106 -225 106q-142 0 -226 -106q-32 -41 -45.5 -76t-20.5 -111.5t-7 -226.5zM467 1530l188 299h275l-291 -299h-172z" />
<glyph unicode="&#xd4;" horiz-adv-x="1249" d="M104 729q0 172 7 263t18.5 128.5t38.5 87.5q60 108 179 185t278 77t277.5 -77t178.5 -185q27 -50 38.5 -87.5t18.5 -128.5t7 -263t-7 -263t-18.5 -128.5t-38.5 -87.5q-60 -108 -178.5 -185t-277.5 -77t-278 77t-179 185q-27 50 -38.5 87.5t-18.5 128.5t-7 263zM291 1530 l217 299h233l217 -299h-196l-137 176l-138 -176h-196zM326 729q0 -150 7 -226.5t20.5 -111.5t45.5 -76q84 -106 226 -106q141 0 225 106q32 41 45.5 76t21 112t7.5 226t-7.5 226t-21 112t-45.5 76q-84 106 -225 106q-142 0 -226 -106q-32 -41 -45.5 -76t-20.5 -111.5 t-7 -226.5z" />
<glyph unicode="&#xd5;" horiz-adv-x="1249" d="M104 729q0 172 7 263t18.5 128.5t38.5 87.5q60 108 179 185t278 77t277.5 -77t178.5 -185q27 -50 38.5 -87.5t18.5 -128.5t7 -263t-7 -263t-18.5 -128.5t-38.5 -87.5q-60 -108 -178.5 -185t-277.5 -77t-278 77t-179 185q-27 50 -38.5 87.5t-18.5 128.5t-7 263zM260 1550 q14 107 77 172.5t155 65.5q53 0 145.5 -39t132.5 -39q79 0 96 90h123q-19 -104 -74.5 -170.5t-150.5 -66.5q-55 0 -156 37.5t-139 37.5q-30 0 -58 -21.5t-28 -66.5h-123zM326 729q0 -150 7 -226.5t20.5 -111.5t45.5 -76q84 -106 226 -106q141 0 225 106q32 41 45.5 76 t21 112t7.5 226t-7.5 226t-21 112t-45.5 76q-84 106 -225 106q-142 0 -226 -106q-32 -41 -45.5 -76t-20.5 -111.5t-7 -226.5z" />
<glyph unicode="&#xd6;" horiz-adv-x="1249" d="M104 729q0 172 7 263t18.5 128.5t38.5 87.5q60 108 179 185t278 77t277.5 -77t178.5 -185q27 -50 38.5 -87.5t18.5 -128.5t7 -263t-7 -263t-18.5 -128.5t-38.5 -87.5q-60 -108 -178.5 -185t-277.5 -77t-278 77t-179 185q-27 50 -38.5 87.5t-18.5 128.5t-7 263zM326 729 q0 -150 7 -226.5t20.5 -111.5t45.5 -76q84 -106 226 -106q141 0 225 106q32 41 45.5 76t21 112t7.5 226t-7.5 226t-21 112t-45.5 76q-84 106 -225 106q-142 0 -226 -106q-32 -41 -45.5 -76t-20.5 -111.5t-7 -226.5zM334 1559v221h221v-221h-221zM694 1559v221h221v-221h-221 z" />
<glyph unicode="&#xd7;" horiz-adv-x="1228" d="M137 156l367 362l-367 365l113 114l364 -366l363 366l115 -114l-367 -365l367 -362l-115 -113l-363 367l-364 -367z" />
<glyph unicode="&#xd8;" horiz-adv-x="1249" d="M104 729q0 172 7 263t18.5 128.5t38.5 87.5q60 108 179 185t278 77q163 0 299 -90l100 181l94 -52l-110 -200q43 -45 73 -101q27 -50 38.5 -87.5t18.5 -128.5t7 -263t-7 -263t-18.5 -128.5t-38.5 -87.5q-60 -108 -178.5 -185t-277.5 -77q-169 0 -301 94l-103 -184l-94 51 l113 203q-44 49 -72 98q-27 50 -38.5 87.5t-18.5 128.5t-7 263zM326 729q0 -167 7.5 -241t28.5 -115l451 809q-77 67 -188 67q-142 0 -226 -106q-32 -41 -45.5 -76t-20.5 -111.5t-7 -226.5zM434 281q75 -72 191 -72q141 0 225 106q32 41 45.5 76t21 112t7.5 226 q0 170 -8 244.5t-31 116.5z" />
<glyph unicode="&#xd9;" horiz-adv-x="1290" d="M127 494v964h221v-940q0 -146 83 -227.5t214 -81.5t214 81.5t83 227.5v940h221v-964q0 -148 -69 -264.5t-187 -179t-262 -62.5t-262 62.5t-187 179t-69 264.5zM340 1829h274l189 -299h-172z" />
<glyph unicode="&#xda;" horiz-adv-x="1290" d="M127 494v964h221v-940q0 -146 83 -227.5t214 -81.5t214 81.5t83 227.5v940h221v-964q0 -148 -69 -264.5t-187 -179t-262 -62.5t-262 62.5t-187 179t-69 264.5zM487 1530l189 299h274l-291 -299h-172z" />
<glyph unicode="&#xdb;" horiz-adv-x="1290" d="M127 494v964h221v-940q0 -146 83 -227.5t214 -81.5t214 81.5t83 227.5v940h221v-964q0 -148 -69 -264.5t-187 -179t-262 -62.5t-262 62.5t-187 179t-69 264.5zM311 1530l217 299h234l217 -299h-197l-137 176l-137 -176h-197z" />
<glyph unicode="&#xdc;" horiz-adv-x="1290" d="M127 494v964h221v-940q0 -146 83 -227.5t214 -81.5t214 81.5t83 227.5v940h221v-964q0 -148 -69 -264.5t-187 -179t-262 -62.5t-262 62.5t-187 179t-69 264.5zM354 1559v221h221v-221h-221zM715 1559v221h221v-221h-221z" />
<glyph unicode="&#xdd;" d="M-31 1458h234l309 -647l309 647h234l-439 -858v-600h-208v600zM354 1530l189 299h274l-291 -299h-172z" />
<glyph unicode="&#xde;" horiz-adv-x="1214" d="M154 0v1458h221v-254h336q87 0 162 -25.5t128 -69.5t91 -101t56.5 -120t18.5 -128q0 -82 -30 -160t-85 -142t-144 -103.5t-197 -39.5h-336v-315h-221zM375 524h332q106 0 172.5 73t66.5 163t-66.5 162.5t-174.5 72.5h-330v-471z" />
<glyph unicode="&#xdf;" horiz-adv-x="1099" d="M131 0v1130q0 166 119.5 253t316.5 87q180 0 291 -94.5t111 -251.5q0 -167 -150 -231q150 -60 150 -227v-371q0 -124 -80.5 -209.5t-208.5 -85.5h-129v197h74q76 0 105.5 23.5t29.5 84.5v365q0 121 -115 121h-121v196h125q111 0 111 121q0 80 -33 111q-22 19 -75 31.5 t-105 11.5q-110 -3 -157 -35t-50 -97v-1130h-209z" />
<glyph unicode="&#xe0;" d="M53 305q0 131 89 219t249 88h289v109q0 73 -49.5 103t-163.5 30q-82 0 -125.5 -18t-71.5 -62l-164 125q58 81 144 116.5t207 35.5q100 0 176.5 -18t135 -57t89.5 -106t31 -161v-709h-209v92h-4q-33 -55 -92.5 -79.5t-163.5 -24.5q-169 0 -268 89t-99 228zM207 1470h274 l189 -299h-172zM250 315q0 -57 48 -94t148 -37q57 0 91.5 3.5t65 13.5t45.5 30.5t23.5 52.5t8.5 81v75h-250q-90 0 -135 -33t-45 -92z" />
<glyph unicode="&#xe1;" d="M53 305q0 131 89 219t249 88h289v109q0 73 -49.5 103t-163.5 30q-82 0 -125.5 -18t-71.5 -62l-164 125q58 81 144 116.5t207 35.5q100 0 176.5 -18t135 -57t89.5 -106t31 -161v-709h-209v92h-4q-33 -55 -92.5 -79.5t-163.5 -24.5q-169 0 -268 89t-99 228zM250 315 q0 -57 48 -94t148 -37q57 0 91.5 3.5t65 13.5t45.5 30.5t23.5 52.5t8.5 81v75h-250q-90 0 -135 -33t-45 -92zM354 1171l189 299h274l-291 -299h-172z" />
<glyph unicode="&#xe2;" d="M53 305q0 131 89 219t249 88h289v109q0 73 -49.5 103t-163.5 30q-82 0 -125.5 -18t-71.5 -62l-164 125q58 81 144 116.5t207 35.5q100 0 176.5 -18t135 -57t89.5 -106t31 -161v-709h-209v92h-4q-33 -55 -92.5 -79.5t-163.5 -24.5q-169 0 -268 89t-99 228zM178 1171 l217 299h234l217 -299h-197l-137 177l-137 -177h-197zM250 315q0 -57 48 -94t148 -37q57 0 91.5 3.5t65 13.5t45.5 30.5t23.5 52.5t8.5 81v75h-250q-90 0 -135 -33t-45 -92z" />
<glyph unicode="&#xe3;" d="M53 305q0 131 89 219t249 88h289v109q0 73 -49.5 103t-163.5 30q-82 0 -125.5 -18t-71.5 -62l-164 125q58 81 144 116.5t207 35.5q100 0 176.5 -18t135 -57t89.5 -106t31 -161v-709h-209v92h-4q-33 -55 -92.5 -79.5t-163.5 -24.5q-169 0 -268 89t-99 228zM147 1192 q14 107 77 172.5t155 65.5q53 0 145.5 -39t132.5 -39q80 0 97 90h123q-19 -104 -75 -171t-151 -67q-55 0 -156 38t-139 38q-30 0 -58 -21.5t-28 -66.5h-123zM250 315q0 -57 48 -94t148 -37q57 0 91.5 3.5t65 13.5t45.5 30.5t23.5 52.5t8.5 81v75h-250q-90 0 -135 -33 t-45 -92z" />
<glyph unicode="&#xe4;" d="M53 305q0 131 89 219t249 88h289v109q0 73 -49.5 103t-163.5 30q-82 0 -125.5 -18t-71.5 -62l-164 125q58 81 144 116.5t207 35.5q100 0 176.5 -18t135 -57t89.5 -106t31 -161v-709h-209v92h-4q-33 -55 -92.5 -79.5t-163.5 -24.5q-169 0 -268 89t-99 228zM221 1200v221 h221v-221h-221zM250 315q0 -57 48 -94t148 -37q57 0 91.5 3.5t65 13.5t45.5 30.5t23.5 52.5t8.5 81v75h-250q-90 0 -135 -33t-45 -92zM582 1200v221h221v-221h-221z" />
<glyph unicode="&#xe5;" d="M53 305q0 131 89 219t249 88h289v109q0 73 -49.5 103t-163.5 30q-82 0 -125.5 -18t-71.5 -62l-164 125q58 81 144 116.5t207 35.5q100 0 176.5 -18t135 -57t89.5 -106t31 -161v-709h-209v92h-4q-33 -55 -92.5 -79.5t-163.5 -24.5q-169 0 -268 89t-99 228zM250 315 q0 -57 48 -94t148 -37q57 0 91.5 3.5t65 13.5t45.5 30.5t23.5 52.5t8.5 81v75h-250q-90 0 -135 -33t-45 -92zM301 1352q0 88 61.5 149.5t149.5 61.5t149.5 -61.5t61.5 -149.5t-61.5 -149.5t-149.5 -61.5t-149.5 61.5t-61.5 149.5zM383 1352q0 -54 37.5 -91.5t91.5 -37.5 t91.5 37.5t37.5 91.5t-37.5 91.5t-91.5 37.5t-91.5 -37.5t-37.5 -91.5z" />
<glyph unicode="&#xe6;" horiz-adv-x="1593" d="M39 305q0 125 83 216t228 91h316v109q0 73 -49.5 103t-163.5 30q-82 0 -125.5 -18t-71.5 -62l-164 125q58 81 143.5 116.5t206.5 35.5q126 0 209 -31t129 -100q43 60 128 95.5t173 35.5q115 0 212 -53t156.5 -154.5t59.5 -231.5v-172h-647q0 -124 68.5 -190t179.5 -66 q60 0 120.5 27t106.5 74l152 -129q-144 -168 -375 -168q-120 0 -207 35t-155 124q-55 -83 -143 -121t-187 -38q-170 0 -276.5 83t-106.5 234zM236 315q0 -57 48 -94t148 -37q57 0 91.5 3.5t65 13.5t45.5 30.5t23.5 52.5t8.5 81v75h-250q-90 0 -135 -33t-45 -92zM862 612h438 q-4 116 -64 179t-155 63t-155.5 -63.5t-63.5 -178.5z" />
<glyph unicode="&#xe7;" horiz-adv-x="909" d="M55 518q0 138 39.5 243.5t107 167t149.5 92t175 30.5q216 0 373 -181l-154 -137q-88 109 -210 109q-271 0 -271 -324q0 -321 271 -321q123 0 210 108l154 -137q-130 -150 -303 -178l-86 -113h4q24 8 55 8q82 0 131.5 -45t49.5 -110q0 -93 -72.5 -143t-179.5 -50 q-84 0 -207 49l37 86q84 -30 143 -30q119 0 119 86q0 37 -28.5 56t-72.5 19q-40 0 -77 -22l-45 39l122 168q-88 6 -163.5 39.5t-137.5 95.5t-97.5 163.5t-35.5 231.5z" />
<glyph unicode="&#xe8;" d="M84 516q0 117 25.5 210t67 153t98 99.5t115.5 56t122 16.5q115 0 212 -53t156.5 -154.5t59.5 -231.5v-172h-647q0 -124 68.5 -190t179.5 -66q60 0 120.5 27t106.5 74l152 -129q-144 -168 -375 -168q-69 0 -130.5 13.5t-123.5 50t-106.5 94t-72.5 152.5t-28 218zM207 1470 h274l189 -299h-172zM293 612h438q-4 116 -64 179t-155 63t-155.5 -63.5t-63.5 -178.5z" />
<glyph unicode="&#xe9;" d="M84 516q0 117 25.5 210t67 153t98 99.5t115.5 56t122 16.5q115 0 212 -53t156.5 -154.5t59.5 -231.5v-172h-647q0 -124 68.5 -190t179.5 -66q60 0 120.5 27t106.5 74l152 -129q-144 -168 -375 -168q-69 0 -130.5 13.5t-123.5 50t-106.5 94t-72.5 152.5t-28 218zM293 612 h438q-4 116 -64 179t-155 63t-155.5 -63.5t-63.5 -178.5zM354 1171l189 299h274l-291 -299h-172z" />
<glyph unicode="&#xea;" d="M84 516q0 117 25.5 210t67 153t98 99.5t115.5 56t122 16.5q115 0 212 -53t156.5 -154.5t59.5 -231.5v-172h-647q0 -124 68.5 -190t179.5 -66q60 0 120.5 27t106.5 74l152 -129q-144 -168 -375 -168q-69 0 -130.5 13.5t-123.5 50t-106.5 94t-72.5 152.5t-28 218zM178 1171 l217 299h234l217 -299h-197l-137 177l-137 -177h-197zM293 612h438q-4 116 -64 179t-155 63t-155.5 -63.5t-63.5 -178.5z" />
<glyph unicode="&#xeb;" d="M84 516q0 117 25.5 210t67 153t98 99.5t115.5 56t122 16.5q115 0 212 -53t156.5 -154.5t59.5 -231.5v-172h-647q0 -124 68.5 -190t179.5 -66q60 0 120.5 27t106.5 74l152 -129q-144 -168 -375 -168q-69 0 -130.5 13.5t-123.5 50t-106.5 94t-72.5 152.5t-28 218zM221 1200 v221h221v-221h-221zM293 612h438q-4 116 -64 179t-155 63t-155.5 -63.5t-63.5 -178.5zM582 1200v221h221v-221h-221z" />
<glyph unicode="&#xec;" horiz-adv-x="491" d="M-59 1470h274l188 -299h-172zM141 0v1038h209v-1038h-209z" />
<glyph unicode="&#xed;" horiz-adv-x="491" d="M88 1171l188 299h275l-291 -299h-172zM141 0v1038h209v-1038h-209z" />
<glyph unicode="&#xee;" horiz-adv-x="491" d="M-88 1171l217 299h233l218 -299h-197l-137 177l-137 -177h-197zM141 0v1038h209v-1038h-209z" />
<glyph unicode="&#xef;" horiz-adv-x="491" d="M-45 1200v221h221v-221h-221zM141 0v1038h209v-1038h-209zM315 1200v221h222v-221h-222z" />
<glyph unicode="&#xf0;" d="M84 520q0 162 25 245.5t88 152.5q120 133 297 133q142 0 223 -93l4 5q-29 149 -129 249l-207 -106l-78 113l170 88q-69 45 -182 84l65 153q176 -53 299 -143l213 110l78 -112l-184 -96q49 -60 79.5 -114.5t50.5 -110t29 -137.5t12 -164.5t3 -223.5q0 -194 -20 -272.5 t-93 -159.5q-120 -133 -315 -133t-315 133q-63 69 -88 152.5t-25 246.5zM293 520q0 -110 10.5 -157.5t40.5 -90.5q24 -33 69.5 -54t98.5 -21t98.5 21t69.5 54q30 43 40.5 90t10.5 156q0 110 -10.5 157.5t-40.5 90.5q-24 33 -69.5 54.5t-98.5 21.5t-98.5 -21.5t-69.5 -54.5 q-30 -43 -40.5 -90t-10.5 -156z" />
<glyph unicode="&#xf1;" horiz-adv-x="1099" d="M135 0v1038h209v-110h4q99 123 270 123q62 0 122.5 -24t111.5 -67.5t82 -114t31 -155.5v-690h-209v618q0 103 -57.5 163.5t-147.5 60.5q-91 0 -149 -60t-58 -164v-618h-209zM186 1192q14 107 77 172.5t155 65.5q53 0 145.5 -39t132.5 -39q80 0 97 90h122 q-19 -104 -74.5 -171t-150.5 -67q-55 0 -156 38t-139 38q-30 0 -58 -21.5t-28 -66.5h-123z" />
<glyph unicode="&#xf2;" d="M84 520q0 162 25 245.5t88 152.5q120 133 315 133t315 -133q63 -69 88 -152.5t25 -245.5q0 -163 -25 -246.5t-88 -152.5q-120 -133 -315 -133t-315 133q-63 69 -88 152.5t-25 246.5zM207 1470h274l189 -299h-172zM293 520q0 -110 10.5 -157.5t40.5 -90.5q24 -33 69.5 -54 t98.5 -21t98.5 21t69.5 54q30 43 40.5 90t10.5 156q0 110 -10.5 157.5t-40.5 90.5q-24 33 -69.5 54.5t-98.5 21.5t-98.5 -21.5t-69.5 -54.5q-30 -43 -40.5 -90t-10.5 -156z" />
<glyph unicode="&#xf3;" d="M84 520q0 162 25 245.5t88 152.5q120 133 315 133t315 -133q63 -69 88 -152.5t25 -245.5q0 -163 -25 -246.5t-88 -152.5q-120 -133 -315 -133t-315 133q-63 69 -88 152.5t-25 246.5zM293 520q0 -110 10.5 -157.5t40.5 -90.5q24 -33 69.5 -54t98.5 -21t98.5 21t69.5 54 q30 43 40.5 90t10.5 156q0 110 -10.5 157.5t-40.5 90.5q-24 33 -69.5 54.5t-98.5 21.5t-98.5 -21.5t-69.5 -54.5q-30 -43 -40.5 -90t-10.5 -156zM354 1171l189 299h274l-291 -299h-172z" />
<glyph unicode="&#xf4;" d="M84 520q0 162 25 245.5t88 152.5q120 133 315 133t315 -133q63 -69 88 -152.5t25 -245.5q0 -163 -25 -246.5t-88 -152.5q-120 -133 -315 -133t-315 133q-63 69 -88 152.5t-25 246.5zM178 1171l217 299h234l217 -299h-197l-137 177l-137 -177h-197zM293 520 q0 -110 10.5 -157.5t40.5 -90.5q24 -33 69.5 -54t98.5 -21t98.5 21t69.5 54q30 43 40.5 90t10.5 156q0 110 -10.5 157.5t-40.5 90.5q-24 33 -69.5 54.5t-98.5 21.5t-98.5 -21.5t-69.5 -54.5q-30 -43 -40.5 -90t-10.5 -156z" />
<glyph unicode="&#xf5;" d="M84 520q0 162 25 245.5t88 152.5q120 133 315 133t315 -133q63 -69 88 -152.5t25 -245.5q0 -163 -25 -246.5t-88 -152.5q-120 -133 -315 -133t-315 133q-63 69 -88 152.5t-25 246.5zM147 1192q14 107 77 172.5t155 65.5q53 0 145.5 -39t132.5 -39q80 0 97 90h123 q-19 -104 -75 -171t-151 -67q-55 0 -156 38t-139 38q-30 0 -58 -21.5t-28 -66.5h-123zM293 520q0 -110 10.5 -157.5t40.5 -90.5q24 -33 69.5 -54t98.5 -21t98.5 21t69.5 54q30 43 40.5 90t10.5 156q0 110 -10.5 157.5t-40.5 90.5q-24 33 -69.5 54.5t-98.5 21.5t-98.5 -21.5 t-69.5 -54.5q-30 -43 -40.5 -90t-10.5 -156z" />
<glyph unicode="&#xf6;" d="M84 520q0 162 25 245.5t88 152.5q120 133 315 133t315 -133q63 -69 88 -152.5t25 -245.5q0 -163 -25 -246.5t-88 -152.5q-120 -133 -315 -133t-315 133q-63 69 -88 152.5t-25 246.5zM221 1200v221h221v-221h-221zM293 520q0 -110 10.5 -157.5t40.5 -90.5q24 -33 69.5 -54 t98.5 -21t98.5 21t69.5 54q30 43 40.5 90t10.5 156q0 110 -10.5 157.5t-40.5 90.5q-24 33 -69.5 54.5t-98.5 21.5t-98.5 -21.5t-69.5 -54.5q-30 -43 -40.5 -90t-10.5 -156zM582 1200v221h221v-221h-221z" />
<glyph unicode="&#xf7;" horiz-adv-x="1228" d="M96 438v160h1037v-160h-1037zM477 94q0 57 40 97t97 40t97.5 -40t40.5 -97t-40.5 -97t-97.5 -40t-97 40t-40 97zM477 942q0 57 40 97t97 40t97.5 -40t40.5 -97t-40.5 -97t-97.5 -40t-97 40t-40 97z" />
<glyph unicode="&#xf8;" d="M84 520q0 162 25 245.5t88 152.5q120 133 315 133q119 0 215 -54l90 156l90 -53l-96 -166q72 -72 100.5 -158.5t28.5 -255.5q0 -163 -25 -246.5t-88 -152.5q-120 -133 -315 -133q-125 0 -213 55l-92 -158l-90 54l96 167q-77 69 -103 162t-26 252zM293 520q0 -93 7 -138.5 t26 -78.5l295 512q-52 27 -109 27q-53 0 -98.5 -21.5t-69.5 -54.5q-30 -43 -40.5 -90t-10.5 -156zM403 225q48 -28 109 -28q53 0 98.5 21t69.5 54q30 43 40.5 90t10.5 156q0 93 -7 139t-26 80z" />
<glyph unicode="&#xf9;" horiz-adv-x="1099" d="M135 348v690h209v-618q0 -104 58 -163.5t149 -59.5q90 0 147.5 60t57.5 163v618h209v-1038h-209v111h-4q-99 -123 -269 -123q-63 0 -124 23.5t-111.5 67.5t-81.5 114t-31 155zM233 1470h275l188 -299h-172z" />
<glyph unicode="&#xfa;" horiz-adv-x="1099" d="M135 348v690h209v-618q0 -104 58 -163.5t149 -59.5q90 0 147.5 60t57.5 163v618h209v-1038h-209v111h-4q-99 -123 -269 -123q-63 0 -124 23.5t-111.5 67.5t-81.5 114t-31 155zM381 1171l188 299h275l-291 -299h-172z" />
<glyph unicode="&#xfb;" horiz-adv-x="1099" d="M135 348v690h209v-618q0 -104 58 -163.5t149 -59.5q90 0 147.5 60t57.5 163v618h209v-1038h-209v111h-4q-99 -123 -269 -123q-63 0 -124 23.5t-111.5 67.5t-81.5 114t-31 155zM205 1171l217 299h233l217 -299h-196l-137 177l-138 -177h-196z" />
<glyph unicode="&#xfc;" horiz-adv-x="1099" d="M135 348v690h209v-618q0 -104 58 -163.5t149 -59.5q90 0 147.5 60t57.5 163v618h209v-1038h-209v111h-4q-99 -123 -269 -123q-63 0 -124 23.5t-111.5 67.5t-81.5 114t-31 155zM248 1200v221h221v-221h-221zM608 1200v221h221v-221h-221z" />
<glyph unicode="&#xfd;" horiz-adv-x="909" d="M-14 1038h221l246 -727h4l245 727h222l-447 -1253q-40 -113 -114.5 -159t-178.5 -46h-69v197h61q42 0 76.5 23t48.5 67l57 174zM297 1171l188 299h275l-291 -299h-172z" />
<glyph unicode="&#xfe;" horiz-adv-x="1062" d="M135 -420v1878h209v-528q51 56 121 88.5t147 32.5q176 0 279 -136q44 -57 59 -133.5t15 -263.5q0 -186 -15 -262t-59 -133q-102 -135 -279 -135q-138 0 -268 123v-531h-209zM344 518q0 -55 2.5 -92t14 -84.5t32 -76t60.5 -48.5t96 -20q41 0 73.5 10t54 25t36.5 41.5 t23.5 50.5t13 60.5t5.5 64.5t1 69t-1 69.5t-5.5 65t-13 61.5t-23.5 51t-36.5 41.5t-54 25.5t-73.5 10q-47 0 -82.5 -12.5t-57.5 -38.5t-35.5 -53.5t-19.5 -69t-8 -73t-2 -77.5z" />
<glyph unicode="&#xff;" horiz-adv-x="909" d="M-14 1038h221l246 -727h4l245 727h222l-447 -1253q-40 -113 -114.5 -159t-178.5 -46h-69v197h61q42 0 76.5 23t48.5 67l57 174zM164 1200v221h221v-221h-221zM524 1200v221h221v-221h-221z" />
<glyph unicode="&#x152;" horiz-adv-x="1896" d="M104 729q0 172 7 263t18.5 128.5t38.5 87.5q60 108 179 185t278 77q192 0 299 -124v112h915v-209h-694v-415h590v-197h-590v-428h698v-209h-919v115q-49 -58 -134 -92.5t-165 -34.5q-159 0 -278 77t-179 185q-27 50 -38.5 87.5t-18.5 128.5t-7 263zM326 729 q0 -150 7 -226.5t20.5 -111.5t45.5 -76q84 -106 226 -106q141 0 225 106q32 41 45.5 76t21 112t7.5 226t-7.5 226t-21 112t-45.5 76q-84 106 -225 106q-142 0 -226 -106q-32 -41 -45.5 -76t-20.5 -111.5t-7 -226.5z" />
<glyph unicode="&#x153;" horiz-adv-x="1671" d="M84 520q0 162 25 245.5t88 152.5q120 133 315 133q189 0 326 -162q137 162 321 162q115 0 212 -53t156.5 -154.5t59.5 -231.5v-172h-647q0 -124 68.5 -190t179.5 -66q60 0 120.5 27t106.5 74l152 -129q-144 -168 -375 -168q-120 0 -212.5 45.5t-141.5 120.5 q-57 -78 -141 -122t-185 -44q-195 0 -315 133q-63 69 -88 152.5t-25 246.5zM293 520q0 -119 10.5 -168t40.5 -92q24 -33 69.5 -54.5t98.5 -21.5t98.5 21.5t69.5 54.5q30 43 40.5 91.5t10.5 166.5q0 119 -10.5 168t-40.5 92q-24 33 -69.5 54.5t-98.5 21.5t-98.5 -21.5 t-69.5 -54.5q-30 -43 -40.5 -91.5t-10.5 -166.5zM940 612h438q-4 116 -64 179t-155 63t-155.5 -63.5t-63.5 -178.5z" />
<glyph unicode="&#x178;" d="M-31 1458h234l309 -647l309 647h234l-439 -858v-600h-208v600zM221 1559v221h221v-221h-221zM582 1559v221h221v-221h-221z" />
<glyph unicode="&#x2c6;" horiz-adv-x="491" d="M-88 1171l217 299h233l218 -299h-197l-137 177l-137 -177h-197z" />
<glyph unicode="&#x2dc;" horiz-adv-x="491" d="M-119 1192q14 107 77 172.5t155 65.5q53 0 145.5 -39t132.5 -39q79 0 96 90h123q-19 -104 -74.5 -171t-150.5 -67q-55 0 -156 38t-139 38q-30 0 -58 -21.5t-28 -66.5h-123z" />
<glyph unicode="&#x2000;" horiz-adv-x="960" />
<glyph unicode="&#x2001;" horiz-adv-x="1921" />
<glyph unicode="&#x2002;" horiz-adv-x="960" />
<glyph unicode="&#x2003;" horiz-adv-x="1921" />
<glyph unicode="&#x2004;" horiz-adv-x="640" />
<glyph unicode="&#x2005;" horiz-adv-x="480" />
<glyph unicode="&#x2006;" horiz-adv-x="320" />
<glyph unicode="&#x2007;" horiz-adv-x="320" />
<glyph unicode="&#x2008;" horiz-adv-x="240" />
<glyph unicode="&#x2009;" horiz-adv-x="384" />
<glyph unicode="&#x200a;" horiz-adv-x="106" />
<glyph unicode="&#x2010;" horiz-adv-x="833" d="M109 463v209h616v-209h-616z" />
<glyph unicode="&#x2011;" horiz-adv-x="833" d="M109 463v209h616v-209h-616z" />
<glyph unicode="&#x2012;" horiz-adv-x="833" d="M109 463v209h616v-209h-616z" />
<glyph unicode="&#x2013;" d="M0 469v197h1024v-197h-1024z" />
<glyph unicode="&#x2014;" horiz-adv-x="2048" d="M0 469v197h2048v-197h-2048z" />
<glyph unicode="&#x2018;" horiz-adv-x="491" d="M141 1098v209l209 151v-360h-209z" />
<glyph unicode="&#x2019;" horiz-adv-x="491" d="M141 1098v360h209v-209z" />
<glyph unicode="&#x201a;" horiz-adv-x="491" d="M141 -152v361h209v-209z" />
<glyph unicode="&#x201c;" horiz-adv-x="681" d="M78 1098v209l209 151v-360h-209zM395 1098v209l209 151v-360h-209z" />
<glyph unicode="&#x201d;" horiz-adv-x="681" d="M78 1098v360h209v-209zM395 1098v360h209v-209z" />
<glyph unicode="&#x201e;" horiz-adv-x="681" d="M78 -152v361h209v-209zM395 -152v361h209v-209z" />
<glyph unicode="&#x2022;" d="M147 729q0 151 107 258t258 107t258 -107t107 -258t-107 -257.5t-258 -106.5t-258 106.5t-107 257.5z" />
<glyph unicode="&#x2026;" horiz-adv-x="2048" d="M238 0v209h208v-209h-208zM920 0v209h208v-209h-208zM1602 0v209h208v-209h-208z" />
<glyph unicode="&#x202f;" horiz-adv-x="384" />
<glyph unicode="&#x2039;" horiz-adv-x="606" d="M94 567l418 414v-209l-209 -205l209 -205v-208z" />
<glyph unicode="&#x203a;" horiz-adv-x="606" d="M94 154v208l209 205l-209 205v209l418 -414z" />
<glyph unicode="&#x205f;" horiz-adv-x="480" />
<glyph unicode="&#x20ac;" horiz-adv-x="983" d="M41 502l49 162h78q-2 18 -2 69q0 45 2 68h-127l49 160h90q30 245 143 376t312 131q91 0 163 -20t107 -47v-201q-82 78 -237 78q-244 0 -275 -317h447l-49 -160h-416v-68v-69h370l-49 -162h-303q30 -324 275 -324q154 0 237 76v-205q-31 -24 -101.5 -41.5t-168.5 -17.5 q-390 0 -451 512h-143z" />
<glyph unicode="&#x2122;" horiz-adv-x="2027" d="M82 1311v147h668v-147h-254v-697h-160v697h-254zM901 614v844h250l235 -622l236 622h250v-844h-160v684h-4l-270 -684h-105l-268 684h-4v-684h-160z" />
<glyph unicode="&#xe000;" horiz-adv-x="1034" d="M0 0v1034h1034v-1034h-1034z" />
</font>
</defs>
</svg>
