<?xml version="1.0" standalone="no"?>
<!DOCTYPE svg PUBLIC "-//W3C//DTD SVG 1.1//EN" "http://www.w3.org/Graphics/SVG/1.1/DTD/svg11.dtd" >
<svg xmlns="http://www.w3.org/2000/svg">
<metadata></metadata>
<defs>
<font id="proxima_nova_regularregular" horiz-adv-x="1171" >
<font-face units-per-em="2048" ascent="1638" descent="-410" />
<missing-glyph horiz-adv-x="530" />
<glyph horiz-adv-x="2048" />
<glyph horiz-adv-x="2048" />
<glyph unicode="&#xd;" horiz-adv-x="681" />
<glyph unicode=" "  horiz-adv-x="530" />
<glyph unicode="&#x09;" horiz-adv-x="530" />
<glyph unicode="&#xa0;" horiz-adv-x="530" />
<glyph unicode="!" horiz-adv-x="471" d="M123 92q0 47 33 80t80 33q46 0 79 -33t33 -80q0 -44 -33 -79q-32 -33 -79 -33q-48 0 -80 33q-33 35 -33 79zM139 1366h193l-33 -983h-127z" />
<glyph unicode="&#x22;" horiz-adv-x="704" d="M111 1292q0 41 26 67q27 27 66 27q40 0 67 -27t27 -67q0 -2 -0.5 -5.5t-1 -10t-0.5 -11.5q-2 -23 -6 -55l-9 -72l-12 -81l-26 -213h-76q-21 148 -29 213q-4 27 -10 81q-1 9 -2.5 24.5t-3 26.5t-2.5 21q-4 32 -6 55q0 5 -0.5 11.5t-1 10t-0.5 5.5zM408 1292q0 41 26 67 q27 27 68 27q38 0 65 -27t27 -67q0 -2 -0.5 -5.5t-1 -10t-0.5 -11.5q-2 -23 -6 -55l-9 -72q-1 -12 -3 -25.5t-5 -30t-4 -25.5l-26 -213h-76q-21 148 -29 213q-4 27 -10 81q-1 9 -2.5 24.5t-3 26.5t-2.5 21q-4 32 -6 55q0 5 -0.5 11.5t-1 10t-0.5 5.5z" />
<glyph unicode="#" horiz-adv-x="1210" d="M45 371l35 108h219l135 408h-221l33 106h225l123 373h127l-123 -373h225l123 373h125l-125 -373h219l-30 -106h-224l-137 -408h227l-32 -108h-232l-123 -371h-125l125 371h-227l-123 -371h-127l125 371h-217zM424 479h225l137 408h-225z" />
<glyph unicode="$" horiz-adv-x="1214" d="M88 193l102 131q62 -72 151 -124q92 -54 214 -69v498q-92 25 -155 47q-78 28 -136 68q-56 39 -96 106q-37 62 -37 158q0 79 32 146q32 68 88 116q59 51 134 80q78 30 170 36v187h125v-189q128 -10 229 -60q98 -48 176 -128l-102 -125q-63 69 -139 107q-78 39 -164 51 v-447q82 -23 158 -51t139 -74q61 -45 100 -112t39 -168q0 -72 -23 -137q-24 -68 -76 -123q-53 -55 -135 -93q-87 -40 -202 -47v-182h-125v182q-155 10 -272 69q-117 58 -195 147zM307 1018q0 -43 20 -74t52 -54q33 -24 78 -42q44 -18 98 -33v418q-109 -7 -179 -67 q-69 -58 -69 -148zM680 129q72 7 123 32q52 25 80 56q31 34 44 72t13 76q0 50 -20 86q-20 35 -57 63q-34 25 -83 46q-44 18 -100 36v-467z" />
<glyph unicode="%" horiz-adv-x="1499" d="M63 1047q0 71 25 135q23 59 68 107q44 47 103 72t134 25t134 -25q62 -27 105 -72q43 -46 67 -107q24 -62 24 -135t-24 -133q-24 -61 -67 -105q-43 -45 -105 -71q-59 -25 -134 -25t-134 25q-58 25 -103 71q-44 46 -68 105q-25 62 -25 133zM186 1047q0 -97 58 -164 q57 -66 149 -66q45 0 84 18t66 48t42 72t15 92q0 102 -57 168q-58 67 -150 67q-91 0 -149 -67t-58 -168zM262 0l873 1366h114l-874 -1366h-113zM776 311q0 69 25 133q24 62 67 108t104 72q59 25 134 25t134 -25t103 -72q43 -46 67 -108t24 -133t-24 -133t-67 -106 q-45 -46 -103 -71q-61 -26 -134 -26t-134 26q-60 26 -104 71q-43 44 -67 106q-25 64 -25 133zM897 311q0 -99 57 -165t152 -66q92 0 149 66q58 67 58 165q0 100 -58 167t-149 67q-94 0 -152 -67q-57 -66 -57 -167z" />
<glyph unicode="&#x26;" horiz-adv-x="1314" d="M76 356q0 80 24 142q23 59 67 109q43 49 96 86q57 40 114 71q-49 83 -76 157q-29 81 -29 150q0 68 27 125t73 100q47 44 108 67q60 23 136 23q68 0 122 -17q59 -19 98 -52t64 -85q24 -49 24 -114q0 -77 -30 -134q-29 -56 -79 -101q-50 -46 -112 -81q-70 -40 -128 -69 q37 -51 83 -105l77 -89l81 -95l81 -88q52 81 92 171q35 80 55 143l132 -60q-32 -76 -80 -174q-45 -92 -107 -178l126 -126l140 -132h-213q-22 20 -69 65l-80 78q-73 -73 -172 -121q-97 -47 -221 -47q-85 0 -165 25q-74 23 -134 72q-57 46 -91 118q-34 71 -34 166zM240 367 q0 -65 22 -113q21 -47 62 -83q36 -32 88 -51q50 -18 104 -18q86 0 156 38q68 37 129 98l-110 116q-63 71 -79 90l-86 104q-44 54 -84 114q-84 -51 -144 -121q-58 -67 -58 -174zM430 1067q0 -54 24 -115q24 -63 58 -121q29 14 104 55q48 26 86 61q39 36 59 74q21 41 21 91 q0 76 -46 116t-115 40q-39 0 -74 -15q-38 -16 -61 -41q-27 -29 -41 -63q-15 -37 -15 -82z" />
<glyph unicode="'" horiz-adv-x="407" d="M111 1292q0 41 26 67q27 27 66 27q40 0 67 -27t27 -67q0 -2 -0.5 -5.5t-1 -10t-0.5 -11.5q-2 -23 -6 -55l-9 -72l-12 -81l-26 -213h-76q-21 148 -29 213q-4 27 -10 81q-1 9 -2.5 24.5t-3 26.5t-2.5 21q-4 32 -6 55q0 5 -0.5 11.5t-1 10t-0.5 5.5z" />
<glyph unicode="(" horiz-adv-x="507" d="M90 498q0 248 75 480q76 235 214 425l94 -70q-47 -94 -89 -192t-68 -195q-29 -108 -43 -210q-15 -110 -15 -238q0 -127 15 -238q14 -104 43 -210q26 -97 68 -194q49 -115 89 -192l-94 -72q-138 190 -214 425q-75 232 -75 481z" />
<glyph unicode=")" horiz-adv-x="507" d="M35 -336q40 77 89 192q39 90 67 194q29 106 43 210q16 118 16 238q0 121 -16 238q-14 102 -43 210q-28 104 -67 195q-42 98 -89 192l94 70q138 -190 214 -425q75 -232 75 -480t-75 -481q-76 -235 -214 -425z" />
<glyph unicode="*" horiz-adv-x="696" d="M70 985l209 107l-209 106l45 82l198 -129l-12 235h94l-12 -235l197 129l47 -82l-209 -106l209 -107l-47 -80l-197 127l12 -235h-94l12 235l-198 -127z" />
<glyph unicode="+" horiz-adv-x="1021" d="M59 637v106h394v424h116v-424h394v-106h-394v-436h-116v436h-394z" />
<glyph unicode="," horiz-adv-x="471" d="M117 -197q48 32 88 86q39 52 45 105q-7 -4 -29 -4q-41 0 -69 29q-29 31 -29 75t31 78q30 33 77 33q54 0 92 -41q37 -40 37 -115q0 -93 -47 -176q-46 -82 -118 -133z" />
<glyph unicode="-" horiz-adv-x="614" d="M61 428v135h492v-135h-492z" />
<glyph unicode="." horiz-adv-x="473" d="M123 92q0 47 33 80t80 33q46 0 79 -33t33 -80t-33 -80q-32 -32 -79 -32q-48 0 -80 32q-33 33 -33 80z" />
<glyph unicode="/" horiz-adv-x="606" d="M0 -41l485 1448h121l-485 -1448h-121z" />
<glyph unicode="0" horiz-adv-x="1253" d="M104 682q0 123 29 251q28 124 92 226q64 101 162 164q99 63 240 63q139 0 238 -63q98 -63 162 -164q62 -98 92 -226q30 -126 30 -251t-30 -251q-30 -127 -92 -227q-63 -102 -162 -165q-101 -64 -238 -64q-139 0 -240 64q-99 63 -162 165q-64 104 -92 227q-29 128 -29 251 zM279 682q0 -108 17 -202q18 -100 58 -178q39 -77 108 -127q66 -48 165 -48t165 48q67 49 107 127t58 178q18 99 18 202t-18 202q-18 100 -58 177t-107 126q-66 48 -165 48t-165 -48q-68 -50 -108 -126q-40 -77 -58 -177q-17 -94 -17 -202z" />
<glyph unicode="1" horiz-adv-x="694" d="M43 1014l342 352h150v-1366h-170v1143l-220 -234z" />
<glyph unicode="2" horiz-adv-x="1204" d="M109 1171q78 105 203 160t272 55q86 0 168 -24q80 -23 146 -74q64 -49 104 -125t40 -178q0 -103 -50 -206q-46 -95 -139 -202q-89 -102 -210 -207q-142 -122 -264 -218h670v-152h-938v137l325 261q151 127 239 219q94 99 146 191q49 88 49 177q0 67 -24 113 q-24 47 -66 78q-40 30 -92 45q-48 14 -104 14q-121 0 -217 -47q-93 -46 -154 -125z" />
<glyph unicode="3" horiz-adv-x="1140" d="M59 201l101 106q62 -82 158 -130q100 -50 223 -50q147 0 234 70q85 69 85 186q0 63 -24 110q-23 44 -70 74q-44 28 -108 43q-63 15 -138 15h-84q-35 0 -57 -2v155q22 -2 58 -2h83q61 0 122 14q58 13 101 40q43 26 69 70q26 43 26 101q0 56 -25 101q-23 42 -65 73 q-40 30 -98 45q-57 15 -118 15q-112 0 -198 -42t-162 -124l-94 107q74 92 191 151t278 59q98 0 182 -24q83 -24 147 -71q63 -47 97 -113q35 -68 35 -154q0 -71 -28 -130q-26 -54 -71 -95t-95 -62q-52 -23 -99 -30q44 -4 100 -27q55 -22 104 -65q48 -42 79 -103 q32 -62 32 -143q0 -87 -34 -158q-35 -73 -96 -124q-63 -52 -152 -82q-90 -30 -203 -30q-172 0 -298 67q-124 66 -188 159z" />
<glyph unicode="4" horiz-adv-x="1142" d="M66 346v141l585 879h234v-870h192v-150h-192v-346h-170v346h-649zM236 496h479v712z" />
<glyph unicode="5" horiz-adv-x="1208" d="M135 195l105 114q68 -89 159 -135q92 -47 217 -47q71 0 128 22q59 23 100 62q40 38 64 93q24 54 24 116q0 68 -24 122q-24 55 -64 93q-38 36 -99 59q-57 21 -127 21q-86 0 -167 -31q-80 -31 -148 -96l-125 43v735h836v-152h-666v-475q50 48 133 86q81 37 187 37 q87 0 165 -28q79 -28 139 -84q60 -55 96 -137q36 -81 36 -187q0 -103 -38 -187q-39 -85 -103 -142q-66 -58 -155 -90q-90 -32 -192 -32q-173 0 -288 59t-193 161z" />
<glyph unicode="6" horiz-adv-x="1210" d="M104 682q0 138 33 265t102 225q70 98 173 156q104 58 249 58q131 0 223 -45q91 -45 154 -118l-86 -127q-52 61 -118 100t-172 39q-103 0 -174 -46q-74 -48 -119 -122q-48 -79 -70 -172q-23 -98 -23 -197v-53q22 35 61 73q38 38 89 68q54 32 112 52q57 20 126 20 q89 0 173 -28q80 -27 142 -81q61 -54 96 -137q35 -84 35 -190q0 -88 -33 -169t-94 -142t-150 -99q-87 -37 -200 -37q-143 0 -244 59q-102 60 -164 155q-63 98 -92 226q-29 130 -29 267zM283 508q7 -68 26 -131q21 -69 61 -123q41 -56 102 -91q63 -36 153 -36q79 0 138 27 t97 68q40 43 59 93t19 101q0 73 -25 131q-23 54 -66 92q-39 35 -99 54q-57 18 -123 18q-105 0 -196 -57t-146 -146z" />
<glyph unicode="7" horiz-adv-x="1054" d="M63 1214v152h932v-117l-559 -1249h-188l551 1214h-736z" />
<glyph unicode="8" horiz-adv-x="1191" d="M106 346q0 68 27 125q27 56 72 103t104 79q64 35 123 52q-60 17 -114 45q-56 30 -96 68q-41 40 -67 93q-26 54 -26 121q0 92 41 159t108 111q64 42 149 64q79 20 169 20q88 0 168 -20q85 -21 150 -64q66 -44 109 -111q42 -66 42 -159q0 -67 -26 -121q-26 -53 -67 -93 q-39 -38 -98 -68q-57 -29 -114 -45q59 -17 123 -52q59 -32 104 -79t72 -103q26 -55 26 -125q0 -89 -38 -156q-39 -69 -106 -116t-156 -73q-90 -26 -189 -26q-100 0 -192 25q-86 23 -154 73q-67 49 -105 116q-39 69 -39 157zM279 365q0 -57 25 -100q26 -45 70 -75 q44 -31 101 -47q55 -16 121 -16t121 16q57 16 101 47q44 30 70 75q25 43 25 100q0 68 -37 115t-90 80q-51 32 -105 48q-53 16 -85 21q-32 -5 -85 -21q-54 -16 -105 -48q-53 -33 -90 -80t-37 -115zM301 1010q0 -61 35 -105q33 -41 82 -70q47 -27 97 -41q52 -14 81 -20 q26 5 82 20q50 13 98 41q49 29 82 70q35 44 35 105q0 53 -24 95q-25 45 -63 71q-42 30 -94 44q-54 15 -116 15t-116 -15q-52 -14 -94 -44q-38 -27 -62 -71q-23 -43 -23 -95z" />
<glyph unicode="9" horiz-adv-x="1210" d="M100 942q0 88 33 169t94 142t151 99q87 37 202 37q142 0 243 -59q102 -60 164 -155q63 -98 92 -226q29 -130 29 -267q0 -138 -33 -266q-34 -130 -101 -225q-68 -96 -174 -155t-249 -59q-130 0 -222 47q-93 47 -157 117l86 127q50 -59 120 -100q66 -39 173 -39 q104 0 177 47q72 46 119 124q45 75 67 172q22 99 22 194v25q0 8 -2 28q-22 -35 -61 -73q-38 -38 -89 -68q-57 -33 -110 -52q-57 -20 -125 -20q-88 0 -174 28q-83 27 -143 81t-96 137q-36 82 -36 190zM272 948q0 -73 25 -131q23 -53 68 -92q41 -35 100 -54q57 -18 123 -18 q102 0 194 57q94 58 148 148q-6 60 -28 130q-22 68 -61 122q-40 54 -104 91q-63 36 -151 36q-77 0 -137 -27q-62 -28 -99 -68q-38 -41 -58 -93t-20 -101z" />
<glyph unicode=":" horiz-adv-x="460" d="M123 92q0 47 33 80t80 33q46 0 79 -33t33 -80t-33 -80q-32 -32 -79 -32q-48 0 -80 32q-33 33 -33 80zM123 891q0 47 33 80t80 33q46 0 79 -33t33 -80q0 -45 -33 -79t-79 -34q-47 0 -80 34t-33 79z" />
<glyph unicode=";" horiz-adv-x="471" d="M117 -195q49 32 88 87q39 54 45 106q-7 -4 -29 -4q-40 0 -69 29t-29 75q0 44 31 78q30 33 77 33q54 0 92 -41q37 -40 37 -115q0 -95 -47 -177t-118 -132zM123 891q0 47 33 80t80 33q46 0 79 -33t33 -80q0 -45 -33 -79t-79 -34q-47 0 -80 34t-33 79z" />
<glyph unicode="&#x3c;" horiz-adv-x="1021" d="M59 631v108l904 449v-129l-773 -375l773 -371v-129z" />
<glyph unicode="=" horiz-adv-x="1021" d="M59 432v109h904v-109h-904zM59 827v109h904v-109h-904z" />
<glyph unicode="&#x3e;" horiz-adv-x="1021" d="M59 184v129l772 371l-772 375v129l904 -449v-108z" />
<glyph unicode="?" horiz-adv-x="946" d="M37 1178q71 96 185 153q110 55 259 55q95 0 168 -24t126 -68q54 -45 80 -101q28 -61 28 -124q0 -77 -30 -133q-29 -54 -73 -98q-45 -45 -95 -78q-47 -31 -95 -69q-44 -35 -73 -71q-30 -38 -30 -88q0 -24 14 -52q15 -29 40 -46l-125 -55q-43 36 -60 78q-18 43 -18 90 q0 64 28 112q26 45 68 84q38 35 88 69q51 35 88 66q47 40 69 72q28 40 28 94q0 78 -60 135q-59 56 -180 56q-117 0 -194 -45q-77 -46 -134 -123zM346 92q0 47 33 80t80 33t80 -33q32 -32 32 -80t-32 -80t-80 -32t-80 32q-33 33 -33 80z" />
<glyph unicode="@" horiz-adv-x="1603" d="M72 500q0 166 67 312q66 144 179 257q110 109 260 174q149 64 307 64q143 0 264 -52q119 -51 204 -139q84 -87 131 -206q46 -117 46 -253q0 -118 -31 -211q-29 -88 -82 -150q-52 -62 -114 -91q-65 -31 -127 -31q-87 0 -135 50q-47 49 -52 116v14q-52 -78 -140 -129 q-87 -51 -185 -51q-143 0 -229 92q-85 91 -85 242q0 105 41 201q39 92 109 163q69 70 154 110q86 40 177 40q100 0 167 -47q68 -48 96 -113l26 127h140l-117 -555l-3 -21q-1 -8 -1 -22q0 -52 27 -79t69 -27q31 0 69 18q37 18 72 62q36 46 59 114q23 69 23 178q0 125 -42 232 t-118 184q-76 78 -182 121q-105 43 -237 43q-149 0 -283 -60t-234 -162q-98 -100 -159 -235q-60 -134 -60 -276q0 -123 44 -229q43 -103 122 -184q78 -79 186 -123q109 -44 234 -44q108 0 204 31q88 28 177 84l37 -53q-96 -62 -204 -96q-103 -33 -222 -33q-141 0 -258 49 q-120 50 -206 136q-87 86 -136 205q-49 117 -49 253zM498 516q0 -99 54 -163t155 -64q52 0 97 16q48 17 84 43q39 28 68 60q39 43 54 65l59 285q-7 24 -26 50q-19 27 -43 48q-25 22 -61 37q-34 14 -81 14q-77 0 -143 -33q-67 -33 -114 -88q-50 -58 -76 -126 q-27 -70 -27 -144z" />
<glyph unicode="A" horiz-adv-x="1347" d="M18 0l551 1366h211l549 -1366h-194l-121 305h-680l-121 -305h-195zM385 455h580l-291 737z" />
<glyph unicode="B" horiz-adv-x="1288" d="M160 0v1366h608q87 0 160 -26t121 -71q47 -44 75 -111q27 -64 27 -140q0 -68 -19 -119q-20 -53 -54 -93q-35 -42 -77 -66q-41 -24 -90 -35q53 -7 104 -39q46 -29 84 -76q35 -44 57 -103q22 -60 22 -118q0 -83 -27 -150t-78 -117q-48 -46 -124 -75q-72 -27 -167 -27h-622z M330 152h420q120 0 185 62q66 63 66 173q0 48 -16 90q-17 43 -48 75q-31 31 -79 51t-108 20h-420v-471zM330 774h409q116 0 176 63t60 156t-60 157t-176 64h-409v-440z" />
<glyph unicode="C" horiz-adv-x="1384" d="M104 682q0 155 55 288q53 129 149 223q94 92 223 144q130 52 276 52q181 0 309 -77q125 -75 209 -194l-141 -80q-60 89 -160 144t-217 55q-112 0 -209 -41q-94 -40 -167 -114q-68 -70 -110 -175q-40 -101 -40 -225q0 -122 40 -223q42 -105 110 -176q72 -75 167 -115 q97 -41 209 -41q118 0 217 56t160 143l143 -78q-86 -120 -212 -196q-127 -77 -308 -77q-146 0 -276 52q-129 52 -223 144q-96 94 -149 223q-55 133 -55 288z" />
<glyph unicode="D" horiz-adv-x="1433" d="M160 0v1366h467q160 0 288 -52q130 -53 222 -145q91 -91 141 -217q49 -123 49 -270t-49 -270q-50 -124 -141 -216q-90 -90 -222 -144q-128 -52 -288 -52h-467zM330 152h297q125 0 222 42q99 43 165 113q68 72 102 168q35 97 35 207q0 109 -35 208q-34 96 -101 169 q-64 70 -164 113q-97 42 -224 42h-297v-1062z" />
<glyph unicode="E" horiz-adv-x="1165" d="M160 0v1366h895v-152h-725v-440h710v-151h-710v-471h725v-152h-895z" />
<glyph unicode="F" horiz-adv-x="1128" d="M160 0v1366h895v-152h-725v-440h710v-151h-710v-623h-170z" />
<glyph unicode="G" horiz-adv-x="1460" d="M104 682q0 158 56 290q55 130 150 223q94 93 224 143q131 51 273 51q185 0 312 -72q130 -73 218 -182l-135 -86q-66 84 -169 136t-226 52q-112 0 -209 -41q-94 -40 -167 -114q-68 -70 -110 -175q-40 -101 -40 -225q0 -122 40 -223q42 -105 110 -176q72 -75 167 -115 q97 -41 209 -41q64 0 117 13t102 35q47 21 85 47q41 28 65 52v277h-471v151h638v-491q-97 -109 -232 -173q-138 -65 -304 -65q-143 0 -273 52q-131 52 -224 144q-95 93 -150 223q-56 132 -56 290z" />
<glyph unicode="H" horiz-adv-x="1458" d="M160 0v1366h170v-588h798v588h170v-1366h-170v627h-798v-627h-170z" />
<glyph unicode="I" horiz-adv-x="489" d="M160 0v1366h170v-1366h-170z" />
<glyph unicode="J" horiz-adv-x="972" d="M23 133l90 129q47 -56 104 -94q62 -41 152 -41q127 0 200 79q74 80 74 208v952h170v-954q0 -112 -34 -193q-35 -83 -92 -136q-59 -55 -137 -81q-80 -27 -171 -27q-110 0 -197 37t-159 121z" />
<glyph unicode="K" horiz-adv-x="1230" d="M160 0v1366h170v-704l604 704h213l-569 -647l620 -719h-213l-518 614l-137 -155v-459h-170z" />
<glyph unicode="L" horiz-adv-x="1009" d="M137 0v1366h170v-1214h635v-152h-805z" />
<glyph unicode="M" horiz-adv-x="1656" d="M160 0v1366h243l426 -1053l424 1053h244v-1366h-170v1149l-463 -1149h-69l-465 1149v-1149h-170z" />
<glyph unicode="N" horiz-adv-x="1449" d="M160 0v1366h174l786 -1067v1067h170v-1366h-164l-796 1090v-1090h-170z" />
<glyph unicode="O" horiz-adv-x="1566" d="M104 682q0 151 50 281t138 224q89 95 214 148q128 54 276 54q149 0 277 -54q124 -52 215 -148q89 -93 139 -224q49 -128 49 -281t-49 -281q-50 -131 -139 -224q-91 -96 -215 -148q-128 -54 -277 -54q-148 0 -276 54q-125 53 -214 148q-88 94 -138 224t-50 281zM281 682 q0 -119 34 -220q34 -99 101 -176q67 -76 158 -117q93 -42 208 -42t208 42t159 117q65 74 101 176t36 220q0 119 -36 221q-37 105 -101 176q-67 74 -159 116q-93 42 -208 42t-208 -42q-91 -41 -158 -116q-67 -74 -101 -176q-34 -101 -34 -221z" />
<glyph unicode="P" horiz-adv-x="1202" d="M160 0v1366h549q103 0 182 -33q82 -34 134 -89q55 -59 83 -131q29 -76 29 -159q0 -82 -29 -158q-28 -72 -83 -131q-54 -57 -134 -90q-77 -32 -182 -32h-379v-543h-170zM330 694h358q123 0 198 72t75 188q0 117 -75 189q-74 71 -198 71h-358v-520z" />
<glyph unicode="Q" horiz-adv-x="1566" d="M104 682q0 151 50 281t138 224q89 95 214 148q128 54 276 54q149 0 277 -54q124 -52 215 -148q89 -93 139 -224q49 -128 49 -281q0 -156 -49 -282q-50 -129 -139 -224l129 -137l-117 -102l-133 141q-77 -49 -171 -76q-93 -27 -200 -27q-148 0 -276 54q-125 53 -214 148 q-88 94 -138 224t-50 281zM281 682q0 -119 34 -220q34 -99 101 -176q67 -76 158 -117q93 -42 208 -42q144 0 260 70l-194 211l119 100l192 -209q57 70 93 171q34 96 34 212q0 119 -36 221q-37 105 -101 176q-67 74 -159 116q-93 42 -208 42t-208 -42q-91 -41 -158 -116 q-67 -74 -101 -176q-34 -101 -34 -221z" />
<glyph unicode="R" horiz-adv-x="1247" d="M160 0v1366h549q92 0 173 -29q78 -28 136 -83t89 -130q32 -78 32 -170q0 -91 -30 -163t-79 -121q-50 -50 -114 -78q-66 -29 -134 -35l369 -557h-201l-346 543h-274v-543h-170zM330 692h358q121 0 199 73q76 72 76 189t-76 189q-75 71 -199 71h-358v-522z" />
<glyph unicode="S" horiz-adv-x="1200" d="M78 193l102 131q33 -39 77 -74q48 -38 98 -63q55 -27 118 -44q61 -16 135 -16q94 0 154 22t98 57q36 33 53 76t17 83q0 64 -35 108t-91 72q-55 27 -129 49l-150 41q-88 24 -149 47q-72 27 -129 69t-91 103q-35 62 -35 154q0 84 36 154q38 73 98 121q67 52 148 78 q89 28 189 28q151 0 276 -51q120 -49 207 -142l-102 -125q-79 86 -180 125q-102 39 -215 39q-124 0 -202 -59q-79 -60 -79 -158q0 -56 35 -94q34 -37 91 -64q55 -26 129 -46l149 -41q77 -21 150 -50q71 -28 129 -74q57 -45 91 -110q35 -67 35 -162q0 -74 -27 -146t-87 -129 q-61 -58 -156 -92q-97 -35 -234 -35q-175 0 -308 61q-129 59 -216 157z" />
<glyph unicode="T" horiz-adv-x="1167" d="M66 1214v152h1036v-152h-434v-1214h-170v1214h-432z" />
<glyph unicode="U" horiz-adv-x="1435" d="M160 530v836h172v-831q0 -189 97 -298q98 -110 288 -110t289 110q98 108 98 298v831h172v-834q0 -125 -35 -230q-35 -104 -105 -176q-72 -74 -175 -112q-105 -39 -244 -39q-141 0 -243 40q-104 41 -174 112q-70 72 -105 174q-35 103 -35 229z" />
<glyph unicode="V" horiz-adv-x="1347" d="M18 1366h195l461 -1180l461 1180h194l-549 -1366h-211z" />
<glyph unicode="W" horiz-adv-x="1808" d="M29 1366h188l303 -1139l314 1139h141l313 -1139l301 1139h191l-391 -1366h-185l-301 1102l-301 -1102h-184z" />
<glyph unicode="X" horiz-adv-x="1335" d="M25 0l532 700l-502 666h207l406 -545l403 545h209l-502 -664l533 -702h-207l-436 582l-437 -582h-206z" />
<glyph unicode="Y" horiz-adv-x="1282" d="M18 1366h199l424 -635l424 635h199l-537 -788v-578h-170v578z" />
<glyph unicode="Z" horiz-adv-x="1198" d="M98 0v141l768 1073h-768v152h987v-141l-770 -1073h785v-152h-1002z" />
<glyph unicode="[" horiz-adv-x="497" d="M82 -389v1778h381v-113h-260v-1552h260v-113h-381z" />
<glyph unicode="\" horiz-adv-x="606" d="M0 1407h121l485 -1448h-121z" />
<glyph unicode="]" horiz-adv-x="497" d="M35 -276h262v1552h-262v113h383v-1778h-383v113z" />
<glyph unicode="^" horiz-adv-x="884" d="M39 682l346 684h117l344 -684h-127l-277 571l-276 -571h-127z" />
<glyph unicode="_" horiz-adv-x="1155" d="M-6 -82h1167v-113h-1167v113z" />
<glyph unicode="`" horiz-adv-x="462" d="M0 1434h160l303 -295h-117z" />
<glyph unicode="a" horiz-adv-x="1081" d="M100 303q0 85 30 146t79 101q48 39 110 59q63 20 125 20q104 0 186 -33t142 -100v178q0 98 -71 152q-72 55 -179 55q-90 0 -164 -33q-73 -33 -139 -105l-72 107q158 164 396 164q76 0 149 -19q71 -18 122 -58q52 -40 82 -103t30 -154v-680h-154v113q-62 -70 -143 -103 q-85 -35 -185 -35q-61 0 -122 21q-63 22 -111 62q-50 42 -80 104q-31 64 -31 141zM256 303q0 -97 68 -157t178 -60q78 0 152 31q73 30 118 92v188q-45 59 -118 90q-74 31 -152 31q-110 0 -178 -60t-68 -155z" />
<glyph unicode="b" horiz-adv-x="1177" d="M154 0v1366h153v-526q59 81 147 128q86 46 187 46q99 0 179 -37t139 -105q60 -70 91 -163q31 -94 31 -215q0 -125 -32 -218q-33 -95 -92 -162q-60 -68 -139 -103q-81 -36 -177 -36q-102 0 -191 49q-90 49 -143 123v-147h-153zM307 268q22 -34 52 -60q34 -29 71 -49 q42 -23 83 -34q43 -12 91 -12q74 0 133 28q60 29 101 80t62 121q22 72 22 152q0 78 -22 152q-21 70 -62 122q-41 51 -101 80q-61 29 -133 29q-46 0 -91 -14q-42 -13 -83 -35q-39 -21 -71 -50q-31 -28 -52 -61v-449z" />
<glyph unicode="c" horiz-adv-x="1015" d="M96 496q0 109 36 204q37 96 100 164q65 70 156 110q90 40 202 40q135 0 220 -49t142 -123l-102 -92q-49 67 -112 97t-140 30t-141 -29t-109 -80q-43 -48 -68 -121q-24 -69 -24 -151t24 -153q25 -73 68 -122q45 -51 109 -80q62 -28 141 -28q156 0 252 129l102 -95 q-56 -72 -142 -122t-220 -50q-112 0 -202 40q-92 41 -156 111t-100 165q-36 94 -36 205z" />
<glyph unicode="d" horiz-adv-x="1177" d="M96 494q0 119 33 215t91 163q59 68 139 105t178 37q101 0 187 -46q87 -46 146 -128v526h154v-1366h-154v147q-54 -74 -142 -123q-89 -49 -191 -49q-97 0 -178 36q-79 35 -139 103q-58 65 -91 162q-33 96 -33 218zM256 494q0 -80 22 -152q21 -70 62 -121q41 -52 100 -80 t135 -28q94 0 174 46q82 47 121 111v447q-40 66 -121 112q-84 48 -174 48q-74 0 -135 -29q-59 -28 -100 -80t-62 -122q-22 -74 -22 -152z" />
<glyph unicode="e" horiz-adv-x="1153" d="M96 496q0 108 37 201q39 99 101 165q66 71 154 111q90 41 196 41q110 0 200 -41q88 -40 150 -113q62 -72 93 -169q32 -99 32 -208v-39h-799q5 -70 31 -132q27 -62 71 -108q45 -47 109 -74q65 -28 143 -28q86 0 167 33q82 33 141 94l73 -100q-78 -75 -174 -114 q-98 -40 -219 -40q-110 0 -204 38q-92 37 -159 107q-68 71 -105 164q-38 96 -38 212zM258 559h649q0 57 -19 113q-20 57 -60 105q-43 51 -101 79q-64 31 -145 31q-80 0 -140 -30q-57 -29 -99 -78q-40 -47 -61 -106q-23 -63 -24 -114z" />
<glyph unicode="f" horiz-adv-x="581" d="M33 854v135h164v76q0 155 77 238t209 83q62 0 111 -16q53 -17 98 -59l-63 -99q-24 23 -55 35q-33 13 -66 13q-158 0 -158 -195v-76h201v-135h-201v-854h-153v854h-164z" />
<glyph unicode="g" horiz-adv-x="1177" d="M96 500q0 118 32 214q32 97 90 162q59 66 139 102q81 36 180 36q101 0 187 -46q87 -46 146 -128v149h154v-975q0 -117 -40 -196q-41 -80 -106 -129t-152 -70q-81 -20 -175 -20q-125 0 -218 30q-92 30 -181 119l77 111q62 -73 139 -103q76 -30 183 -30q62 0 119 15 q56 15 102 50q45 35 72 90q26 53 26 133v150q-56 -77 -142 -126q-88 -50 -191 -50q-96 0 -178 35q-79 34 -139 101q-57 65 -91 161q-33 95 -33 215zM256 500q0 -79 22 -151q21 -69 62 -119q41 -51 100 -77q62 -28 135 -28q48 0 90 13t83 35q36 20 70 50q30 27 52 62v434 q-23 33 -52 59q-34 30 -70 50q-41 22 -83 35q-45 14 -90 14q-73 0 -135 -28q-57 -26 -100 -78q-41 -50 -62 -120q-22 -72 -22 -151z" />
<glyph unicode="h" horiz-adv-x="1130" d="M156 0v1366h153v-520q24 29 63 61q40 32 83 55q36 19 98 37q53 15 109 15q155 0 235 -77t80 -239v-698h-154v651q0 68 -16 110q-17 43 -45 69q-28 25 -70 36t-92 11q-41 0 -88 -13q-40 -11 -81 -34q-37 -21 -70 -49q-28 -24 -52 -58v-723h-153z" />
<glyph unicode="i" horiz-adv-x="460" d="M127 1233q0 43 31 74q30 30 73 30t73 -30t30 -74q0 -43 -30 -73t-73 -30t-73 30q-31 31 -31 73zM154 0v989h153v-989h-153z" />
<glyph unicode="j" horiz-adv-x="460" d="M-201 -328l54 115q27 -27 60 -44t81 -17q70 0 115 42t45 136v1085h153v-1085q0 -148 -75 -227q-74 -78 -218 -78q-76 0 -122 18q-48 18 -93 55zM127 1233q0 43 31 74q30 30 73 30t73 -30t30 -74q0 -43 -30 -73t-73 -30t-73 30q-31 31 -31 73z" />
<glyph unicode="k" horiz-adv-x="1052" d="M154 0v1366h153v-903l520 526h195l-438 -448l440 -541h-197l-354 444l-166 -161v-283h-153z" />
<glyph unicode="l" horiz-adv-x="460" d="M154 0v1366h153v-1366h-153z" />
<glyph unicode="m" horiz-adv-x="1654" d="M154 0v989h153v-143q17 25 48 53q30 28 74 54q40 24 93 43q51 18 107 18q112 0 177 -53q64 -52 87 -132q21 33 55 67q32 32 78 59q44 26 94 42q53 17 105 17q135 0 206 -75q70 -74 70 -224v-715h-153v672q0 94 -42 149q-42 56 -141 56q-35 0 -76 -13q-36 -12 -73 -34 q-36 -22 -65 -48q-30 -27 -48 -57v-725h-153v672q0 94 -42 149q-42 56 -141 56q-73 0 -147 -48q-73 -47 -113 -106v-723h-153z" />
<glyph unicode="n" horiz-adv-x="1130" d="M154 0v989h153v-143q32 35 64 61q43 34 83 55q38 20 99 37q53 15 109 15q154 0 233 -79q80 -80 80 -241v-694h-152v647q0 131 -61 180q-62 50 -162 50q-89 0 -170 -48q-79 -47 -123 -106v-723h-153z" />
<glyph unicode="o" d="M96 496q0 108 34 201q36 98 97 165q65 71 155 111q93 41 204 41t204 -41q88 -39 154 -111q61 -67 97 -165q34 -93 34 -201q0 -110 -34 -203q-35 -95 -97 -165q-65 -73 -154 -112q-93 -41 -204 -41t-204 41q-91 40 -155 112q-62 70 -97 165q-34 93 -34 203zM258 496 q0 -74 22 -146q21 -70 63 -122t102 -84q59 -31 141 -31q81 0 140 31q60 32 102 84q43 54 64 122q21 69 21 146q0 75 -21 144q-20 66 -64 121q-42 53 -102 84q-61 32 -140 32q-80 0 -141 -32q-60 -31 -102 -84t-63 -121q-22 -72 -22 -144z" />
<glyph unicode="p" d="M154 -377v1366h153v-147q51 75 142 124q89 48 192 48q98 0 179 -36q80 -36 139 -102q60 -67 91 -163q31 -94 31 -217t-31 -217q-31 -95 -91 -164t-139 -104q-81 -36 -179 -36q-101 0 -187 47q-87 47 -147 128v-527h-153zM307 272q40 -65 122 -112t173 -47q74 0 133 28 q60 29 101 80q41 52 62 122q22 74 22 153t-22 151q-21 70 -62 121t-101 80q-61 29 -133 29q-91 0 -173 -47q-83 -48 -122 -111v-447z" />
<glyph unicode="q" d="M90 496q0 119 32 217t90 163q59 66 139 102q81 36 179 36q104 0 193 -48t141 -124v147h154v-1366h-154v527q-61 -82 -146 -128q-86 -47 -188 -47q-98 0 -179 36q-79 35 -139 104q-58 67 -90 164q-32 98 -32 217zM252 496q0 -82 21 -153q20 -68 63 -122q41 -52 100 -80 t133 -28q91 0 173 47t122 112v447q-39 63 -122 111q-82 47 -173 47q-72 0 -133 -29q-59 -28 -100 -80q-42 -53 -63 -121q-21 -69 -21 -151z" />
<glyph unicode="r" horiz-adv-x="675" d="M154 0v989h153v-158q61 80 144 130q84 51 186 51v-158q-5 0 -14.5 1t-14.5 2q-10 1 -30 1q-38 0 -77 -13q-41 -13 -78 -36q-40 -24 -69 -50t-47 -59v-700h-153z" />
<glyph unicode="s" horiz-adv-x="952" d="M70 131l77 111q51 -58 137 -100q87 -42 189 -42q115 0 175 48q61 49 61 122q0 60 -45 91q-46 32 -114 53q-58 18 -148 38q-79 18 -147 49q-69 31 -114 84t-45 144q0 55 25 110q24 52 70 91q46 38 115 61q71 23 157 23q129 0 218 -42q88 -42 148 -102l-71 -106 q-46 54 -121 89q-77 36 -174 36q-103 0 -161 -45t-58 -111q0 -53 45 -82q47 -30 113 -47q101 -26 148 -37q77 -17 147 -51t114 -89q45 -57 45 -153q0 -58 -25 -116q-24 -56 -73 -96q-46 -38 -122 -63q-72 -24 -167 -24q-249 0 -399 156z" />
<glyph unicode="t" horiz-adv-x="602" d="M20 854v135h164v271h156v-271h201v-135h-201v-614q0 -54 25 -92q23 -35 73 -35q36 0 62 13t43 30l45 -117q-27 -27 -73 -46q-43 -18 -109 -18q-110 0 -166 61t-56 171v647h-164z" />
<glyph unicode="u" horiz-adv-x="1128" d="M154 291v698h153v-651q0 -63 16 -109q14 -41 45 -69q29 -26 70 -37q39 -10 92 -10q44 0 88 12t81 33q44 25 69 47q32 28 53 57v727h154v-989h-154v139q-54 -63 -149 -114q-92 -50 -203 -50q-315 0 -315 316z" />
<glyph unicode="v" horiz-adv-x="1003" d="M6 989h168l328 -811l329 811h166l-411 -989h-168z" />
<glyph unicode="w" horiz-adv-x="1503" d="M25 989h159l242 -788l260 788h133l258 -788l242 788h162l-316 -989h-155l-258 795l-258 -795h-154z" />
<glyph unicode="x" horiz-adv-x="997" d="M25 0l378 508l-358 481h178l275 -377l276 377h176l-358 -481l381 -508h-176l-299 406l-297 -406h-176z" />
<glyph unicode="y" horiz-adv-x="1003" d="M6 989h168l328 -811l329 811h166l-495 -1190q-45 -108 -119 -153q-74 -46 -172 -47q-28 0 -57 4q-36 5 -54 10l23 139q16 -7 41 -12q21 -4 43 -4q51 0 86 21q34 20 61 83l66 150z" />
<glyph unicode="z" horiz-adv-x="966" d="M106 0v121l545 733h-545v135h746v-117l-549 -737h557v-135h-754z" />
<glyph unicode="{" horiz-adv-x="534" d="M10 449v102q55 0 82 42t27 99v420q0 64 21 115q20 49 58 87q35 35 81 55t94 20h127v-113h-127q-53 0 -94 -45q-41 -46 -41 -117v-434q0 -66 -21 -112q-20 -45 -72 -68q51 -22 72 -69t21 -112v-432q0 -70 41 -117q40 -46 94 -46h127v-113h-127q-50 0 -94 19t-81 56t-58 86 q-21 50 -21 113v422q0 58 -27 100t-82 42z" />
<glyph unicode="|" horiz-adv-x="432" d="M160 -41v1448h112v-1448h-112z" />
<glyph unicode="}" horiz-adv-x="534" d="M35 -276h125q56 0 96 46q41 47 41 117v432q0 68 20 112q21 47 72 69q-52 23 -72 68q-20 44 -20 112v434q0 71 -41 117q-40 45 -96 45h-125v113h125q47 0 95 -20q46 -19 82 -55t57 -87q22 -53 22 -115v-420q0 -59 26 -99q27 -42 80 -42v-102q-53 0 -80 -42 q-26 -40 -26 -100v-422q0 -61 -22 -113q-21 -50 -57 -86q-37 -37 -82 -56t-95 -19h-125v113z" />
<glyph unicode="~" horiz-adv-x="1030" d="M55 879q7 87 26 180q18 89 49 155q32 68 82 109t126 41q63 0 104 -29q42 -30 67 -72q22 -38 43 -95q28 -78 35 -94q20 -48 41 -73q24 -28 64 -28q38 0 65 28q27 29 48 81q20 51 34 124q14 72 21 160l113 -12q-7 -84 -25 -181q-16 -86 -48 -156q-31 -68 -82 -110 q-50 -41 -126 -41q-63 0 -104 29q-42 30 -67 72t-43 94q-23 64 -35 94q-18 43 -42 72q-24 28 -63 28q-38 0 -66 -28q-28 -29 -48 -81q-20 -53 -33 -124q-13 -72 -21 -158z" />
<glyph unicode="&#xa1;" horiz-adv-x="471" d="M123 897q0 47 33 80t80 33q46 0 78 -33q32 -34 32 -80q0 -44 -32 -78q-32 -33 -78 -33q-47 0 -80 33t-33 78zM139 -377l31 983h129l33 -983h-193z" />
<glyph unicode="&#xa2;" horiz-adv-x="1015" d="M96 496q0 100 30 187q31 89 85 155q55 67 132 112q79 46 173 58v149h121v-145q113 -10 188 -58q76 -48 127 -112l-102 -92q-42 58 -96 89q-50 29 -117 35v-759q128 12 213 127l102 -95q-50 -64 -127 -113q-73 -46 -188 -57v-182h-121v187q-96 12 -173 56q-76 43 -132 113 q-56 69 -85 156q-30 89 -30 189zM256 496q0 -143 69 -245t191 -130v747q-122 -28 -191 -130t-69 -242z" />
<glyph unicode="&#xa3;" horiz-adv-x="1060" d="M41 549v110h215l-56 67q-29 37 -50 72q-21 36 -37 84q-15 46 -15 101q0 87 37 160q38 75 100 128q66 56 146 85q84 30 176 30q143 0 249 -59q109 -60 165 -170l-137 -82q-27 65 -97 117q-69 51 -164 51q-59 0 -111 -18q-50 -17 -92 -53q-41 -35 -64 -81t-23 -110 q0 -55 15 -99q15 -42 40 -82q22 -35 53 -72q19 -23 55 -69h308v-110h-250q4 -14 10 -42q4 -19 4 -46q0 -95 -46 -160t-110 -111q33 11 51 14q30 5 56 5q50 0 86 -13q25 -9 71 -29q55 -24 68 -29q33 -13 78 -13q68 0 121 27q54 28 74 55l73 -137q-47 -44 -110 -69 q-70 -28 -166 -28q-70 0 -114 15q-51 18 -81 32q-44 21 -75 33q-39 15 -97 15q-53 0 -114 -24q-63 -25 -127 -58l-60 129q133 58 201 138q70 82 70 173q0 28 -9 64q-8 33 -22 59h-295z" />
<glyph unicode="&#xa4;" horiz-adv-x="1423" d="M63 485v107h91l-3 45q-1 15 -1 45q0 31 1 47q2 32 3 47h-91v109h113q30 113 94 208q60 89 153 158q87 65 198 102q108 36 231 36q181 0 309 -77q125 -75 209 -194l-141 -80q-60 89 -160 144t-217 55q-175 0 -308 -95q-132 -95 -188 -257h619v-109h-643q-6 -46 -6 -94 q0 -46 6 -90h643v-107h-619q26 -80 75 -147q48 -66 113 -113t142 -72q80 -26 166 -26q118 0 217 56t160 143l143 -78q-86 -120 -212 -196q-127 -77 -308 -77q-123 0 -234 36q-108 35 -199 103q-90 67 -152 160q-63 95 -93 211h-111z" />
<glyph unicode="&#xa5;" horiz-adv-x="1282" d="M18 1366h199l424 -635l424 635h199l-465 -682h440v-106h-512v-220h512v-108h-512v-250h-170v250h-512v108h512v220h-512v106h438z" />
<glyph unicode="&#xa6;" horiz-adv-x="432" d="M160 -41v647h112v-647h-112zM160 760v647h112v-647h-112z" />
<glyph unicode="&#xa7;" horiz-adv-x="958" d="M70 -6l77 100q46 -55 129 -100q82 -45 193 -45q105 0 172 46q68 47 68 130q0 63 -45 97q-46 35 -114 56q-70 21 -148 39q-70 16 -147 51q-69 32 -114 84t-45 144q0 51 20 96q20 44 51 75t74 54t89 35q-106 34 -170 92t-64 162q0 53 25 105q25 51 72 89t115 60 q67 22 155 22q137 0 227 -44q87 -43 139 -101l-71 -92q-52 63 -131 93q-78 30 -158 30q-99 0 -163 -44q-62 -43 -62 -120q0 -57 45 -87q44 -30 113 -49q62 -18 148 -37q81 -18 147 -50q70 -33 114 -88q45 -55 45 -152q0 -85 -47 -152q-48 -68 -141 -108q86 -35 137 -92 t51 -158q0 -70 -29 -128q-28 -57 -79 -94q-50 -36 -122 -58q-70 -21 -157 -21q-78 0 -136 13q-61 14 -108 35q-49 22 -85 51q-24 19 -70 61zM244 610q0 -44 24 -74q23 -29 66 -51q35 -18 93 -33l108 -28q80 34 125 83q45 50 45 120q0 43 -21 73q-24 35 -53 53t-74 35 q-37 14 -84 25q-132 -34 -181 -86q-48 -51 -48 -117z" />
<glyph unicode="&#xa8;" horiz-adv-x="557" d="M-29 1237q0 40 28 68q26 26 69 26q40 0 66 -26q28 -28 28 -68q0 -39 -28 -67q-27 -27 -66 -27q-42 0 -69 27q-28 28 -28 67zM395 1237q0 40 28 68q26 26 66 26q43 0 69 -26q28 -28 28 -68q0 -39 -28 -67q-27 -27 -69 -27q-39 0 -66 27q-28 28 -28 67z" />
<glyph unicode="&#xa9;" horiz-adv-x="1593" d="M90 684q0 149 55 275q56 129 152 225q95 95 225 151t275 56q146 0 275 -56t224 -151q96 -96 152 -225q55 -126 55 -275q0 -146 -55 -274q-56 -130 -152 -226q-95 -95 -224 -151t-275 -56q-145 0 -275 56t-225 151q-96 96 -152 226q-55 128 -55 274zM154 684 q0 -133 51 -250t138 -204t204 -138t250 -51t250 51q114 50 204 138q90 89 139 204q50 118 50 250t-50 250q-48 114 -139 205q-90 90 -204 138q-118 50 -250 50t-250 -50q-117 -49 -204 -138t-138 -205q-51 -117 -51 -250zM375 688q0 95 34 173q34 79 91 137q58 59 135 92 q76 32 166 32q95 0 171 -35q75 -35 128 -98l-51 -51q-41 53 -109 85q-69 32 -139 32t-133 -27q-65 -28 -112 -75q-50 -50 -77 -116q-28 -68 -28 -151q0 -80 28 -148q28 -67 77 -118q48 -50 112 -77q65 -28 133 -28q74 0 140 33q68 34 108 86l53 -51q-55 -66 -130 -100 q-76 -35 -171 -35q-89 0 -166 34q-80 36 -135 93q-56 59 -91 139q-34 78 -34 174z" />
<glyph unicode="&#xaa;" horiz-adv-x="774" d="M84 864q0 54 20 93q21 40 53 66q31 25 72 39q39 13 84 13q75 0 128 -22q54 -23 94 -64v113q0 63 -50 98t-114 35q-53 0 -107 -23q-55 -24 -94 -71l-53 78q107 108 268 108q53 0 101 -12q47 -12 85 -39t59 -71q21 -43 21 -105v-432h-116v71q-37 -39 -94 -64 q-54 -24 -128 -24q-43 0 -84 15q-43 16 -72 41q-34 29 -53 66q-20 39 -20 91zM203 864q0 -60 44 -98q43 -37 111 -37q54 0 101 21q50 22 76 57v115q-26 35 -76 57q-44 20 -101 20q-68 0 -111 -37q-44 -38 -44 -98z" />
<glyph unicode="&#xab;" horiz-adv-x="899" d="M61 498l328 362h154l-328 -362l328 -369h-154zM356 498l328 362h154l-328 -362l328 -369h-154z" />
<glyph unicode="&#xac;" horiz-adv-x="1032" d="M59 827v109h904v-504h-113v395h-791z" />
<glyph unicode="&#xad;" horiz-adv-x="614" d="M61 428v135h492v-135h-492z" />
<glyph unicode="&#xae;" horiz-adv-x="1011" d="M72 952q0 94 33 170q36 82 94 139q59 58 138 92q76 33 169 33q94 0 170 -33q81 -35 138 -92q56 -56 92 -139q34 -78 34 -170q0 -91 -34 -169q-34 -79 -92 -138q-56 -57 -138 -93q-78 -34 -170 -34q-91 0 -169 34q-79 34 -138 93q-60 60 -94 138q-33 76 -33 169zM131 952 q0 -78 30 -145t80 -119q50 -51 118 -81q67 -29 147 -29q79 0 146 29q70 30 119 81q50 52 80 119t30 145q0 80 -30 148q-30 67 -80 119q-48 50 -119 79q-70 29 -146 29q-77 0 -147 -29q-69 -28 -118 -79q-50 -52 -80 -119q-30 -68 -30 -148zM340 702v498h203q63 0 110 -41 t47 -110q0 -42 -15 -70q-14 -26 -37 -46q-19 -17 -43 -25q-20 -7 -32 -7l134 -199h-82l-129 197h-90v-197h-66zM406 958h137q32 0 61 26t29 65q0 40 -29 67q-28 27 -61 27h-137v-185z" />
<glyph unicode="&#xaf;" horiz-adv-x="743" d="M0 1210v99h743v-99h-743z" />
<glyph unicode="&#xb0;" horiz-adv-x="593" d="M47 1137q0 49 20 97q19 47 53 80q33 33 79 53q44 19 98 19q52 0 97 -19q46 -19 80 -53q33 -33 53 -80q20 -48 20 -97q0 -53 -20 -99t-53 -79t-80 -53q-45 -19 -97 -19q-54 0 -98 19q-46 20 -79 53t-53 79t-20 99zM147 1137q0 -64 43 -107t107 -43q62 0 106 43 q46 44 46 107q0 60 -46 106q-45 45 -106 45q-63 0 -107 -45q-43 -44 -43 -106z" />
<glyph unicode="&#xb1;" horiz-adv-x="1021" d="M59 0v109h904v-109h-904zM59 664v106h394v424h116v-424h394v-106h-394v-437h-116v437h-394z" />
<glyph unicode="&#xb2;" horiz-adv-x="794" d="M100 1565q51 66 133 97q84 32 168 32q56 0 109 -15q56 -16 94 -44q44 -32 66 -74q24 -45 24 -109q0 -61 -30 -121q-29 -57 -85 -120q-54 -60 -130 -121q-75 -60 -166 -127h415v-101h-596v92l205 153q91 71 147 127q58 58 88 109q29 49 29 101q0 40 -14 67q-16 31 -39 48 q-25 19 -56 26q-34 8 -65 8q-77 0 -136 -31q-60 -32 -93 -75z" />
<glyph unicode="&#xb3;" horiz-adv-x="794" d="M86 981l68 78q41 -51 103 -81q63 -30 134 -30q89 0 138 39q51 40 51 105q0 77 -62 109t-151 32h-50q-18 0 -32 -2v102q14 -2 32 -2h50q86 0 143 30t57 101q0 66 -54 99q-52 32 -130 32q-132 0 -223 -98l-64 72q46 52 121 90q73 37 178 37q128 0 211 -59q82 -58 82 -160 q0 -47 -17 -78q-19 -35 -44 -57q-23 -21 -59 -36q-31 -13 -62 -18q33 -5 63 -17q34 -13 65 -38q28 -23 49 -61q19 -35 19 -85q0 -106 -81 -171q-83 -66 -228 -66q-110 0 -188 39q-79 40 -119 94z" />
<glyph unicode="&#xb4;" horiz-adv-x="462" d="M0 1139l303 295h160l-346 -295h-117z" />
<glyph unicode="&#xb5;" horiz-adv-x="1128" d="M154 -377v1366h153v-651q0 -130 61 -180q59 -49 162 -49q44 0 88 12q40 11 81 34q39 22 69 49q29 26 53 58v727h154v-989h-154v139q-54 -63 -149 -114q-92 -50 -203 -50q-93 0 -162 29v-381h-153z" />
<glyph unicode="&#xb6;" horiz-adv-x="919" d="M55 1014q0 72 28 137q27 63 76 112q48 48 111 75q65 28 138 28h366v-1571h-92v1479h-182v-1479h-92v867q-75 0 -138 27q-61 26 -111 76q-49 49 -76 112q-28 65 -28 137z" />
<glyph unicode="&#xb7;" horiz-adv-x="473" d="M123 502q0 45 33 78q32 32 80 32q47 0 79 -32q33 -33 33 -78q0 -47 -33 -80t-79 -33q-47 0 -80 33t-33 80z" />
<glyph unicode="&#xb8;" horiz-adv-x="419" d="M0 -330l39 78q39 -30 81 -45q39 -14 83 -14q51 0 88 22t37 64q0 31 -19 52q-18 19 -57 19q-22 0 -43 -9q-20 -9 -35 -25l-68 38l64 173h92l-53 -136q20 14 36 18q22 5 40 5q60 0 97 -37q38 -38 38 -100q0 -76 -62 -120t-151 -44q-65 0 -121 18q-54 18 -86 43z" />
<glyph unicode="&#xb9;" horiz-adv-x="481" d="M29 1456l221 225h108v-819h-122v660l-136 -142z" />
<glyph unicode="&#xba;" horiz-adv-x="829" d="M82 989q0 72 23 131q24 62 67 108q42 45 104 72t138 27q78 0 139 -27q62 -27 104 -72q43 -46 67 -108t24 -131q0 -70 -24 -131t-67 -107t-104 -73q-62 -27 -139 -27q-76 0 -138 27q-61 27 -104 73t-67 107q-23 59 -23 131zM205 989q0 -101 54 -170t155 -69q102 0 157 69 q56 70 56 170q0 99 -56 169q-55 69 -157 69q-101 0 -155 -69t-54 -169z" />
<glyph unicode="&#xbb;" horiz-adv-x="899" d="M61 129l328 369l-328 362h154l328 -362l-328 -369h-154zM356 129l328 369l-328 362h154l328 -362l-328 -369h-154z" />
<glyph unicode="&#xbc;" horiz-adv-x="1576" d="M29 1141l221 225h108v-819h-122v659l-136 -141zM223 0l873 1366h112l-874 -1366h-111zM860 205v92l354 522h170v-514h117v-100h-117v-205h-122v205h-402zM983 305h279v406z" />
<glyph unicode="&#xbd;" horiz-adv-x="1652" d="M29 1141l221 225h108v-819h-122v659l-136 -141zM223 0l873 1366h112l-874 -1366h-111zM958 702q51 66 134 98q81 31 168 31q59 0 108 -14q56 -16 94 -44q43 -32 66 -75q24 -45 24 -108q0 -61 -30 -121q-29 -57 -85 -120q-57 -63 -130 -122q-75 -60 -166 -127h415v-100 h-595v92l204 153q91 71 147 127q58 58 88 109t30 101q0 38 -15 67t-39 47q-27 20 -56 27q-34 8 -65 8q-75 0 -136 -32t-93 -74z" />
<glyph unicode="&#xbe;" horiz-adv-x="1798" d="M86 666l68 77q40 -50 103 -80t134 -30q89 0 138 39q51 40 51 104q0 78 -62 110t-151 32h-50q-11 0 -32 -3v103q14 -2 32 -2h50q86 0 143 30t57 101q0 65 -54 98t-130 33q-132 0 -223 -98l-64 71q46 52 121 90q73 37 178 37q129 0 211 -58t82 -161q0 -47 -17 -78 q-18 -33 -44 -56q-25 -23 -59 -37q-28 -12 -62 -17q28 -5 63 -18q34 -13 65 -38q29 -23 49 -60q19 -35 19 -85q0 -106 -81 -171q-84 -67 -228 -67q-110 0 -188 39t-119 95zM444 0l873 1366h113l-875 -1366h-111zM1083 205v92l355 522h170v-514h116v-100h-116v-205h-123v205 h-402zM1206 305h279v406z" />
<glyph unicode="&#xbf;" horiz-adv-x="806" d="M63 -84q0 78 30 133q29 54 73 98q45 45 95 78q47 31 95 69q44 35 73 71q30 37 30 88q0 24 -14 52q-15 30 -39 46l124 55q43 -36 60 -78q18 -44 18 -90q0 -66 -27 -112q-25 -43 -69 -84q-38 -35 -88 -69q-57 -39 -88 -65q-46 -39 -69 -74q-27 -40 -27 -93q0 -79 59 -135 t180 -56q117 0 194 45q78 46 134 121l102 -109q-71 -96 -185 -153q-110 -55 -259 -55q-95 0 -168 24t-126 68q-54 45 -80 101q-28 61 -28 124zM375 897q0 47 33 80t79 33q47 0 80 -33t33 -80t-33 -80t-80 -33q-46 0 -79 33t-33 80z" />
<glyph unicode="&#xc0;" horiz-adv-x="1347" d="M18 0l551 1366h211l549 -1366h-194l-121 305h-680l-121 -305h-195zM348 1786h160l303 -295h-117zM385 455h580l-291 737z" />
<glyph unicode="&#xc1;" horiz-adv-x="1347" d="M18 0l551 1366h211l549 -1366h-194l-121 305h-680l-121 -305h-195zM385 455h580l-291 737zM541 1491l303 295h160l-347 -295h-116z" />
<glyph unicode="&#xc2;" horiz-adv-x="1347" d="M18 0l551 1366h211l549 -1366h-194l-121 305h-680l-121 -305h-195zM385 455h580l-291 737zM406 1491l194 295h148l200 -295h-104l-170 217l-164 -217h-104z" />
<glyph unicode="&#xc3;" horiz-adv-x="1347" d="M18 0l551 1366h211l549 -1366h-194l-121 305h-680l-121 -305h-195zM354 1499q0 121 50 198t149 77q55 0 88 -30q29 -27 56 -65q28 -40 47 -64q24 -30 61 -30q41 0 69 42q29 43 29 134h92q0 -120 -50 -197t-148 -77q-55 0 -88 30q-34 31 -57 64q-33 48 -47 65 q-23 29 -60 29q-41 0 -70 -42q-29 -43 -29 -134h-92zM385 455h580l-291 737z" />
<glyph unicode="&#xc4;" horiz-adv-x="1347" d="M18 0l551 1366h211l549 -1366h-194l-121 305h-680l-121 -305h-195zM369 1583q0 41 27 68q26 26 69 26q40 0 66 -26q28 -28 28 -68q0 -38 -28 -66t-66 -28q-41 0 -69 28q-27 27 -27 66zM385 455h580l-291 737zM793 1583q0 41 27 68q26 26 67 26q42 0 68 -26q28 -28 28 -68 q0 -38 -28 -66t-68 -28q-39 0 -67 28q-27 27 -27 66z" />
<glyph unicode="&#xc5;" horiz-adv-x="1347" d="M18 0l551 1366h211l549 -1366h-194l-121 305h-680l-121 -305h-195zM385 455h580l-291 737zM473 1620q0 42 16 78q15 34 45 64q28 28 64 44q39 17 78 17q84 0 141 -60t57 -143t-57 -143t-141 -60q-39 0 -78 17q-36 16 -64 44q-30 30 -45 64q-16 36 -16 78zM555 1620 q0 -48 35 -85q34 -36 86 -36q50 0 84 36q35 37 35 85t-35 85q-34 36 -84 36q-52 0 -86 -36q-35 -37 -35 -85z" />
<glyph unicode="&#xc6;" horiz-adv-x="1941" d="M14 0l852 1366h963v-152h-725v-440h711v-151h-711v-471h725v-152h-895v305h-537l-188 -305h-195zM479 455h455v737z" />
<glyph unicode="&#xc7;" horiz-adv-x="1384" d="M104 682q0 155 55 288q53 129 149 223q94 92 223 144q130 52 276 52q181 0 309 -77q125 -75 209 -194l-141 -80q-60 89 -160 144t-217 55q-112 0 -209 -41q-94 -40 -167 -114q-68 -70 -110 -175q-40 -101 -40 -225q0 -122 40 -223q42 -105 110 -176q72 -75 167 -115 q97 -41 209 -41q118 0 217 56t160 143l143 -78q-86 -117 -205 -192q-122 -77 -295 -81l-30 -79q18 13 36 17q22 5 39 5q61 0 98 -37q38 -38 38 -100q0 -76 -62 -120t-151 -44q-65 0 -121 18q-54 18 -86 43l39 78q39 -30 81 -45q39 -14 83 -14q51 0 88 22q36 22 36 64 q0 33 -18 52q-18 20 -57 20q-20 0 -43 -10q-20 -9 -35 -25l-68 39l43 121q-137 12 -251 67q-112 54 -200 148q-85 91 -133 216q-49 127 -49 271z" />
<glyph unicode="&#xc8;" horiz-adv-x="1165" d="M160 0v1366h895v-152h-725v-440h710v-151h-710v-471h725v-152h-895zM281 1786h159l303 -295h-116z" />
<glyph unicode="&#xc9;" horiz-adv-x="1165" d="M160 0v1366h895v-152h-725v-440h710v-151h-710v-471h725v-152h-895zM471 1491l303 295h160l-346 -295h-117z" />
<glyph unicode="&#xca;" horiz-adv-x="1165" d="M160 0v1366h895v-152h-725v-440h710v-151h-710v-471h725v-152h-895zM334 1491l194 295h148l201 -295h-105l-170 217l-164 -217h-104z" />
<glyph unicode="&#xcb;" horiz-adv-x="1165" d="M160 0v1366h895v-152h-725v-440h710v-151h-710v-471h725v-152h-895zM299 1583q0 40 28 68q26 26 68 26q41 0 67 -26q27 -27 27 -68q0 -39 -27 -66q-28 -28 -67 -28q-40 0 -68 28t-28 66zM723 1583q0 40 28 68q26 26 66 26q43 0 69 -26q27 -27 27 -68q0 -39 -27 -66 q-28 -28 -69 -28q-38 0 -66 28t-28 66z" />
<glyph unicode="&#xcc;" horiz-adv-x="489" d="M-84 1786h160l303 -295h-117zM160 0v1366h170v-1366h-170z" />
<glyph unicode="&#xcd;" horiz-adv-x="489" d="M113 1491l303 295h159l-346 -295h-116zM160 0v1366h170v-1366h-170z" />
<glyph unicode="&#xce;" horiz-adv-x="489" d="M-27 1491l195 295h147l201 -295h-104l-170 217l-164 -217h-105zM160 0v1366h170v-1366h-170z" />
<glyph unicode="&#xcf;" horiz-adv-x="489" d="M-63 1583q0 41 27 68q26 26 69 26q40 0 66 -26q28 -28 28 -68q0 -38 -28 -66t-66 -28q-41 0 -69 28q-27 27 -27 66zM160 0v1366h170v-1366h-170zM360 1583q0 40 28 68q26 26 67 26q42 0 68 -26q28 -28 28 -68q0 -38 -28 -66t-68 -28q-39 0 -67 28t-28 66z" />
<glyph unicode="&#xd0;" horiz-adv-x="1490" d="M20 612v125h197v629h467q161 0 289 -52t221 -145q91 -91 141 -217q49 -123 49 -270t-49 -270q-49 -124 -141 -216q-91 -91 -221 -144q-128 -52 -289 -52h-467v612h-197zM387 152h297q124 0 222 42q99 43 165 113q69 74 103 168q34 95 34 207t-34 208q-33 94 -102 169 q-64 70 -164 113q-98 42 -224 42h-297v-477h346v-125h-346v-460z" />
<glyph unicode="&#xd1;" horiz-adv-x="1449" d="M160 0v1366h174l786 -1067v1067h170v-1366h-164l-796 1090v-1090h-170zM401 1499q0 119 51 198q50 77 148 77q55 0 88 -30q29 -27 56 -65q21 -31 48 -64q24 -30 60 -30q42 0 70 42q28 41 28 134h92q0 -120 -50 -197t-148 -77q-55 0 -88 30q-34 31 -57 64q-33 48 -47 65 q-23 29 -60 29q-42 0 -70 -42q-28 -41 -28 -134h-93z" />
<glyph unicode="&#xd2;" horiz-adv-x="1566" d="M104 682q0 151 50 281t138 224q89 95 214 148q128 54 276 54q149 0 277 -54q124 -52 215 -148q89 -93 139 -224q49 -128 49 -281t-49 -281q-50 -131 -139 -224q-91 -96 -215 -148q-128 -54 -277 -54q-148 0 -276 54q-125 53 -214 148q-88 94 -138 224t-50 281zM281 682 q0 -119 34 -220q34 -99 101 -176q67 -76 158 -117q93 -42 208 -42t208 42t159 117q65 74 101 176t36 220q0 119 -36 221q-37 105 -101 176q-67 74 -159 116q-93 42 -208 42t-208 -42q-91 -41 -158 -116q-67 -74 -101 -176q-34 -101 -34 -221zM463 1786h160l303 -295h-117z " />
<glyph unicode="&#xd3;" horiz-adv-x="1566" d="M104 682q0 151 50 281t138 224q89 95 214 148q128 54 276 54q149 0 277 -54q124 -52 215 -148q89 -93 139 -224q49 -128 49 -281t-49 -281q-50 -131 -139 -224q-91 -96 -215 -148q-128 -54 -277 -54q-148 0 -276 54q-125 53 -214 148q-88 94 -138 224t-50 281zM281 682 q0 -119 34 -220q34 -99 101 -176q67 -76 158 -117q93 -42 208 -42t208 42t159 117q65 74 101 176t36 220q0 119 -36 221q-37 105 -101 176q-67 74 -159 116q-93 42 -208 42t-208 -42q-91 -41 -158 -116q-67 -74 -101 -176q-34 -101 -34 -221zM651 1491l303 295h160 l-346 -295h-117z" />
<glyph unicode="&#xd4;" horiz-adv-x="1566" d="M104 682q0 151 50 281t138 224q89 95 214 148q128 54 276 54q149 0 277 -54q124 -52 215 -148q89 -93 139 -224q49 -128 49 -281t-49 -281q-50 -131 -139 -224q-91 -96 -215 -148q-128 -54 -277 -54q-148 0 -276 54q-125 53 -214 148q-88 94 -138 224t-50 281zM281 682 q0 -119 34 -220q34 -99 101 -176q67 -76 158 -117q93 -42 208 -42t208 42t159 117q65 74 101 176t36 220q0 119 -36 221q-37 105 -101 176q-67 74 -159 116q-93 42 -208 42t-208 -42q-91 -41 -158 -116q-67 -74 -101 -176q-34 -101 -34 -221zM516 1491l195 295h147l201 -295 h-105l-170 217l-163 -217h-105z" />
<glyph unicode="&#xd5;" horiz-adv-x="1566" d="M104 682q0 151 50 281t138 224q89 95 214 148q128 54 276 54q149 0 277 -54q124 -52 215 -148q89 -93 139 -224q49 -128 49 -281t-49 -281q-50 -131 -139 -224q-91 -96 -215 -148q-128 -54 -277 -54q-148 0 -276 54q-125 53 -214 148q-88 94 -138 224t-50 281zM281 682 q0 -119 34 -220q34 -99 101 -176q67 -76 158 -117q93 -42 208 -42t208 42t159 117q65 74 101 176t36 220q0 119 -36 221q-37 105 -101 176q-67 74 -159 116q-93 42 -208 42t-208 -42q-91 -41 -158 -116q-67 -74 -101 -176q-34 -101 -34 -221zM463 1499q0 121 50 198t149 77 q55 0 88 -30q29 -27 56 -65q28 -40 47 -64q24 -30 60 -30q41 0 70 42q29 43 29 134h92q0 -120 -50 -197t-149 -77q-55 0 -88 30q-31 28 -56 64q-33 48 -47 65q-23 29 -61 29q-41 0 -69 -42q-29 -43 -29 -134h-92z" />
<glyph unicode="&#xd6;" horiz-adv-x="1566" d="M104 682q0 151 50 281t138 224q89 95 214 148q128 54 276 54q149 0 277 -54q124 -52 215 -148q89 -93 139 -224q49 -128 49 -281t-49 -281q-50 -131 -139 -224q-91 -96 -215 -148q-128 -54 -277 -54q-148 0 -276 54q-125 53 -214 148q-88 94 -138 224t-50 281zM281 682 q0 -119 34 -220q34 -99 101 -176q67 -76 158 -117q93 -42 208 -42t208 42t159 117q65 74 101 176t36 220q0 119 -36 221q-37 105 -101 176q-67 74 -159 116q-93 42 -208 42t-208 -42q-91 -41 -158 -116q-67 -74 -101 -176q-34 -101 -34 -221zM475 1583q0 40 28 68 q26 26 68 26q41 0 67 -26q28 -28 28 -68q0 -38 -28 -66t-67 -28q-40 0 -68 28t-28 66zM899 1583q0 40 28 68q26 26 66 26q43 0 69 -26q28 -28 28 -68q0 -38 -28 -66t-69 -28q-38 0 -66 28t-28 66z" />
<glyph unicode="&#xd7;" horiz-adv-x="1021" d="M131 379l305 305l-305 305l76 76l303 -305l305 305l76 -76l-303 -305l303 -305l-76 -76l-305 305l-303 -305z" />
<glyph unicode="&#xd8;" horiz-adv-x="1566" d="M104 682q0 151 50 281t138 224q89 95 214 148q128 54 276 54q97 0 184 -23q84 -22 158 -63l43 63h138l-86 -129q114 -96 179 -239q64 -141 64 -316q0 -153 -49 -281q-50 -131 -139 -224q-91 -96 -215 -148q-128 -54 -277 -54q-100 0 -188 24q-87 23 -164 69l-45 -68h-137 l90 133q-110 95 -172 237t-62 312zM281 682q0 -129 38 -231q39 -104 111 -181l606 901q-56 32 -117 49t-137 17q-115 0 -208 -42q-91 -41 -158 -116q-67 -74 -101 -176q-34 -101 -34 -221zM518 199q112 -72 264 -72q115 0 208 42t159 117q65 74 101 176t36 220 q0 128 -41 237q-39 105 -119 183z" />
<glyph unicode="&#xd9;" horiz-adv-x="1435" d="M160 530v836h172v-831q0 -189 97 -298q98 -110 288 -110t289 110q98 108 98 298v831h172v-834q0 -125 -35 -230q-35 -104 -105 -176q-72 -74 -175 -112q-105 -39 -244 -39q-141 0 -243 40q-104 41 -174 112q-70 72 -105 174q-35 103 -35 229zM393 1786h160l303 -295h-117 z" />
<glyph unicode="&#xda;" horiz-adv-x="1435" d="M160 530v836h172v-831q0 -189 97 -298q98 -110 288 -110t289 110q98 108 98 298v831h172v-834q0 -125 -35 -230q-35 -104 -105 -176q-72 -74 -175 -112q-105 -39 -244 -39q-141 0 -243 40q-104 41 -174 112q-70 72 -105 174q-35 103 -35 229zM582 1491l303 295h159 l-346 -295h-116z" />
<glyph unicode="&#xdb;" horiz-adv-x="1435" d="M160 530v836h172v-831q0 -189 97 -298q98 -110 288 -110t289 110q98 108 98 298v831h172v-834q0 -125 -35 -230q-35 -104 -105 -176q-72 -74 -175 -112q-105 -39 -244 -39q-141 0 -243 40q-104 41 -174 112q-70 72 -105 174q-35 103 -35 229zM457 1491l194 295h148 l200 -295h-104l-170 217l-164 -217h-104z" />
<glyph unicode="&#xdc;" horiz-adv-x="1435" d="M160 530v836h172v-831q0 -189 97 -298q98 -110 288 -110t289 110q98 108 98 298v831h172v-834q0 -125 -35 -230q-35 -104 -105 -176q-72 -74 -175 -112q-105 -39 -244 -39q-141 0 -243 40q-104 41 -174 112q-70 72 -105 174q-35 103 -35 229zM412 1583q0 41 27 68 q26 26 69 26q40 0 66 -26q28 -28 28 -68q0 -38 -28 -66t-66 -28q-41 0 -69 28q-27 27 -27 66zM836 1583q0 41 27 68q26 26 67 26q42 0 68 -26q28 -28 28 -68q0 -38 -28 -66t-68 -28q-39 0 -67 28q-27 27 -27 66z" />
<glyph unicode="&#xdd;" horiz-adv-x="1282" d="M18 1366h199l424 -635l424 635h199l-537 -788v-578h-170v578zM514 1491l303 295h160l-346 -295h-117z" />
<glyph unicode="&#xde;" horiz-adv-x="1202" d="M160 0v1366h170v-244h379q105 0 182 -32q79 -33 134 -91t83 -132q29 -76 29 -158q0 -83 -29 -159q-28 -73 -83 -130q-53 -54 -134 -88q-79 -33 -182 -33h-379v-299h-170zM330 451h358q124 0 198 70q75 71 75 188t-75 189q-76 73 -198 73h-358v-520z" />
<glyph unicode="&#xdf;" horiz-adv-x="1222" d="M156 0v1022q0 78 26 142q27 67 78 116q51 50 123 78q71 28 162 28q73 0 135 -17q69 -19 115 -51q47 -33 78 -82q30 -48 30 -108q0 -55 -22 -95q-20 -36 -58 -69q-40 -34 -73 -55q-38 -23 -74 -50t-58 -56t-22 -72q0 -54 44 -81q46 -28 109 -46q65 -18 141 -36 q80 -19 141 -50q67 -34 109 -89q44 -58 44 -153q0 -58 -24 -114t-70 -96q-49 -43 -119 -66q-75 -25 -168 -25q-71 0 -130 14q-55 13 -102 35q-43 20 -81 50q-34 27 -68 61l78 107q46 -60 121 -99q79 -41 182 -41q117 0 175 53q56 52 56 117q0 60 -44 92q-45 32 -108 53 q-62 20 -142 39q-78 18 -141 49q-66 32 -109 84q-44 53 -44 142q0 55 23 96q25 44 55 72q36 33 72 55q21 13 72 50q30 22 55 50q22 25 22 58q0 32 -18 59q-17 26 -47 43t-65 26q-36 9 -72 9q-49 0 -91 -15q-43 -15 -74 -45q-32 -31 -50 -72q-19 -44 -19 -95v-1022h-153z" />
<glyph unicode="&#xe0;" horiz-adv-x="1081" d="M100 303q0 85 30 146t79 101q48 39 110 59q63 20 125 20q104 0 186 -33t142 -100v178q0 98 -71 152q-72 55 -179 55q-90 0 -164 -33q-73 -33 -139 -105l-72 107q158 164 396 164q76 0 149 -19q71 -18 122 -58q52 -40 82 -103t30 -154v-680h-154v113q-62 -70 -143 -103 q-85 -35 -185 -35q-61 0 -122 21q-63 22 -111 62q-50 42 -80 104q-31 64 -31 141zM217 1434h160l303 -295h-117zM256 303q0 -97 68 -157t178 -60q78 0 152 31q73 30 118 92v188q-45 59 -118 90q-74 31 -152 31q-110 0 -178 -60t-68 -155z" />
<glyph unicode="&#xe1;" horiz-adv-x="1081" d="M100 303q0 85 30 146t79 101q48 39 110 59q63 20 125 20q104 0 186 -33t142 -100v178q0 98 -71 152q-72 55 -179 55q-90 0 -164 -33q-73 -33 -139 -105l-72 107q158 164 396 164q76 0 149 -19q71 -18 122 -58q52 -40 82 -103t30 -154v-680h-154v113q-62 -70 -143 -103 q-85 -35 -185 -35q-61 0 -122 21q-63 22 -111 62q-50 42 -80 104q-31 64 -31 141zM256 303q0 -97 68 -157t178 -60q78 0 152 31q73 30 118 92v188q-45 59 -118 90q-74 31 -152 31q-110 0 -178 -60t-68 -155zM412 1139l303 295h159l-346 -295h-116z" />
<glyph unicode="&#xe2;" horiz-adv-x="1081" d="M100 303q0 85 30 146t79 101q48 39 110 59q63 20 125 20q104 0 186 -33t142 -100v178q0 98 -71 152q-72 55 -179 55q-90 0 -164 -33q-73 -33 -139 -105l-72 107q158 164 396 164q76 0 149 -19q71 -18 122 -58q52 -40 82 -103t30 -154v-680h-154v113q-62 -70 -143 -103 q-85 -35 -185 -35q-61 0 -122 21q-63 22 -111 62q-50 42 -80 104q-31 64 -31 141zM256 303q0 -97 68 -157t178 -60q78 0 152 31q73 30 118 92v188q-45 59 -118 90q-74 31 -152 31q-110 0 -178 -60t-68 -155zM279 1139l194 295h148l200 -295h-104l-170 217l-164 -217h-104z " />
<glyph unicode="&#xe3;" horiz-adv-x="1081" d="M100 303q0 85 30 146t79 101q48 39 110 59q63 20 125 20q104 0 186 -33t142 -100v178q0 98 -71 152q-72 55 -179 55q-90 0 -164 -33q-73 -33 -139 -105l-72 107q158 164 396 164q76 0 149 -19q71 -18 122 -58q52 -40 82 -103t30 -154v-680h-154v113q-62 -70 -143 -103 q-85 -35 -185 -35q-61 0 -122 21q-63 22 -111 62q-50 42 -80 104q-31 64 -31 141zM223 1147q0 121 50 198q49 76 149 76q56 0 88 -29q29 -27 56 -65q28 -40 47 -64q24 -30 61 -30q40 0 69 42q29 43 29 134h92q0 -121 -50 -198q-49 -76 -148 -76q-56 0 -88 29t-57 65 q-28 40 -47 64q-24 30 -60 30q-42 0 -70 -42q-29 -43 -29 -134h-92zM256 303q0 -97 68 -157t178 -60q78 0 152 31q73 30 118 92v188q-45 59 -118 90q-74 31 -152 31q-110 0 -178 -60t-68 -155z" />
<glyph unicode="&#xe4;" horiz-adv-x="1081" d="M100 303q0 85 30 146t79 101q48 39 110 59q63 20 125 20q104 0 186 -33t142 -100v178q0 98 -71 152q-72 55 -179 55q-90 0 -164 -33q-73 -33 -139 -105l-72 107q158 164 396 164q76 0 149 -19q71 -18 122 -58q52 -40 82 -103t30 -154v-680h-154v113q-62 -70 -143 -103 q-85 -35 -185 -35q-61 0 -122 21q-63 22 -111 62q-50 42 -80 104q-31 64 -31 141zM233 1237q0 40 28 68q26 26 69 26q40 0 66 -26q28 -28 28 -68q0 -39 -28 -67q-27 -27 -66 -27q-42 0 -69 27q-28 28 -28 67zM256 303q0 -97 68 -157t178 -60q78 0 152 31q73 30 118 92v188 q-45 59 -118 90q-74 31 -152 31q-110 0 -178 -60t-68 -155zM657 1237q0 40 28 68q26 26 67 26q42 0 68 -26q28 -28 28 -68q0 -39 -28 -67q-27 -27 -68 -27q-40 0 -67 27q-28 28 -28 67z" />
<glyph unicode="&#xe5;" horiz-adv-x="1081" d="M100 303q0 85 30 146t79 101q48 39 110 59q63 20 125 20q104 0 186 -33t142 -100v178q0 98 -71 152q-72 55 -179 55q-90 0 -164 -33q-73 -33 -139 -105l-72 107q158 164 396 164q76 0 149 -19q71 -18 122 -58q52 -40 82 -103t30 -154v-680h-154v113q-62 -70 -143 -103 q-85 -35 -185 -35q-61 0 -122 21q-63 22 -111 62q-50 42 -80 104q-31 64 -31 141zM256 303q0 -97 68 -157t178 -60q78 0 152 31q73 30 118 92v188q-45 59 -118 90q-74 31 -152 31q-110 0 -178 -60t-68 -155zM342 1323q0 42 16 78t44 64q28 27 65 44q39 17 78 17 q84 0 141 -60t57 -143t-57 -143t-141 -60q-39 0 -78 17q-38 17 -65 44q-28 28 -44 64t-16 78zM424 1323q0 -48 35 -85q35 -36 86 -36q49 0 84 36q35 37 35 85t-35 85q-35 36 -84 36q-51 0 -86 -36q-35 -37 -35 -85z" />
<glyph unicode="&#xe6;" horiz-adv-x="1820" d="M100 303q0 78 29 141q29 62 77 103q47 40 109 61q61 21 129 21q100 0 184 -32q82 -31 144 -99v176q0 98 -71 152q-72 55 -179 55q-90 0 -164 -33q-73 -33 -139 -105l-72 107q158 164 396 164q138 0 225 -55t111 -162q51 90 144 153q94 64 234 64q110 0 198 -41t148 -113 q61 -73 92 -169t31 -208v-39h-798q5 -74 30 -131q26 -60 72 -107q43 -45 109 -73q63 -27 143 -27q85 0 167 32q79 31 140 93l74 -102q-78 -75 -174 -114q-98 -40 -219 -40q-145 0 -246 59q-103 60 -164 146q-28 -39 -63 -74q-36 -36 -88 -65t-115 -47q-66 -19 -141 -19 q-66 0 -129 21q-66 22 -113 62q-50 42 -80 104q-31 64 -31 141zM256 303q0 -97 68 -157t178 -60q82 0 163 37q83 38 138 137q-10 21 -21 61q-10 36 -10 72q-45 61 -118 93t-152 32q-110 0 -178 -60t-68 -155zM926 559h649q0 55 -20 113q-20 59 -59 105q-43 51 -101 79 q-64 31 -146 31q-79 0 -139 -30q-57 -29 -99 -78t-62 -106q-22 -60 -23 -114z" />
<glyph unicode="&#xe7;" horiz-adv-x="1015" d="M96 496q0 109 36 204q37 96 100 164q65 70 156 110q90 40 202 40q135 0 220 -49t142 -123l-102 -92q-49 67 -112 97t-140 30t-141 -29t-109 -80q-43 -48 -68 -121q-24 -69 -24 -151t24 -153q25 -73 68 -122q45 -51 109 -80q62 -28 141 -28q156 0 252 129l102 -95 q-51 -67 -130 -115q-78 -48 -193 -55l-33 -86q20 14 36 18q22 5 40 5q60 0 97 -37q38 -38 38 -100q0 -76 -62 -120t-151 -44q-66 0 -121 18q-54 18 -86 43l39 78q39 -30 81 -45q39 -14 83 -14q51 0 88 22t37 64q0 31 -19 52q-18 19 -57 19q-22 0 -43 -9q-20 -9 -35 -25 l-67 39l45 125q-101 8 -182 51q-82 44 -139 111q-58 69 -90 159q-32 91 -32 195z" />
<glyph unicode="&#xe8;" horiz-adv-x="1153" d="M96 496q0 108 37 201q39 99 101 165q66 71 154 111q90 41 196 41q110 0 200 -41q88 -40 150 -113q62 -72 93 -169q32 -99 32 -208v-39h-799q5 -70 31 -132q27 -62 71 -108q45 -47 109 -74q65 -28 143 -28q86 0 167 33q82 33 141 94l73 -100q-78 -75 -174 -114 q-98 -40 -219 -40q-110 0 -204 38q-92 37 -159 107q-68 71 -105 164q-38 96 -38 212zM258 559h649q0 57 -19 113q-20 57 -60 105q-43 51 -101 79q-64 31 -145 31q-80 0 -140 -30q-57 -29 -99 -78q-40 -47 -61 -106q-23 -63 -24 -114zM258 1434h160l303 -295h-117z" />
<glyph unicode="&#xe9;" horiz-adv-x="1153" d="M96 496q0 108 37 201q39 99 101 165q66 71 154 111q90 41 196 41q110 0 200 -41q88 -40 150 -113q62 -72 93 -169q32 -99 32 -208v-39h-799q5 -70 31 -132q27 -62 71 -108q45 -47 109 -74q65 -28 143 -28q86 0 167 33q82 33 141 94l73 -100q-78 -75 -174 -114 q-98 -40 -219 -40q-110 0 -204 38q-92 37 -159 107q-68 71 -105 164q-38 96 -38 212zM258 559h649q0 57 -19 113q-20 57 -60 105q-43 51 -101 79q-64 31 -145 31q-80 0 -140 -30q-57 -29 -99 -78q-40 -47 -61 -106q-23 -63 -24 -114zM451 1139l303 295h159l-346 -295h-116z " />
<glyph unicode="&#xea;" horiz-adv-x="1153" d="M96 496q0 108 37 201q39 99 101 165q66 71 154 111q90 41 196 41q110 0 200 -41q88 -40 150 -113q62 -72 93 -169q32 -99 32 -208v-39h-799q5 -70 31 -132q27 -62 71 -108q45 -47 109 -74q65 -28 143 -28q86 0 167 33q82 33 141 94l73 -100q-78 -75 -174 -114 q-98 -40 -219 -40q-110 0 -204 38q-92 37 -159 107q-68 71 -105 164q-38 96 -38 212zM258 559h649q0 57 -19 113q-20 57 -60 105q-43 51 -101 79q-64 31 -145 31q-80 0 -140 -30q-57 -29 -99 -78q-40 -47 -61 -106q-23 -63 -24 -114zM315 1139l195 295h147l201 -295h-104 l-170 217l-164 -217h-105z" />
<glyph unicode="&#xeb;" horiz-adv-x="1153" d="M96 496q0 108 37 201q39 99 101 165q66 71 154 111q90 41 196 41q110 0 200 -41q88 -40 150 -113q62 -72 93 -169q32 -99 32 -208v-39h-799q5 -70 31 -132q27 -62 71 -108q45 -47 109 -74q65 -28 143 -28q86 0 167 33q82 33 141 94l73 -100q-78 -75 -174 -114 q-98 -40 -219 -40q-110 0 -204 38q-92 37 -159 107q-68 71 -105 164q-38 96 -38 212zM258 559h649q0 57 -19 113q-20 57 -60 105q-43 51 -101 79q-64 31 -145 31q-80 0 -140 -30q-57 -29 -99 -78q-40 -47 -61 -106q-23 -63 -24 -114zM279 1237q0 41 27 68q26 26 69 26 q40 0 66 -26q28 -28 28 -68q0 -39 -28 -67q-27 -27 -66 -27q-42 0 -69 27t-27 67zM702 1237q0 40 28 68q26 26 67 26q42 0 68 -26q28 -28 28 -68q0 -39 -28 -67q-27 -27 -68 -27q-40 0 -67 27q-28 28 -28 67z" />
<glyph unicode="&#xec;" horiz-adv-x="460" d="M-98 1434h159l304 -295h-117zM154 0v989h153v-989h-153z" />
<glyph unicode="&#xed;" horiz-adv-x="460" d="M96 1139l303 295h160l-346 -295h-117zM154 0v989h153v-989h-153z" />
<glyph unicode="&#xee;" horiz-adv-x="460" d="M-39 1139l195 295h147l201 -295h-105l-170 217l-163 -217h-105zM154 0v989h153v-989h-153z" />
<glyph unicode="&#xef;" horiz-adv-x="460" d="M-76 1237q0 40 28 68q26 26 68 26q41 0 67 -26q28 -28 28 -68q0 -39 -28 -67q-27 -27 -67 -27q-41 0 -68 27q-28 28 -28 67zM154 0v989h153v-989h-153zM348 1237q0 40 28 68q26 26 66 26q43 0 69 -26q28 -28 28 -68q0 -39 -28 -67q-27 -27 -69 -27q-39 0 -66 27 q-28 28 -28 67z" />
<glyph unicode="&#xf0;" d="M96 479q0 107 33 199q34 93 93 160q59 66 144 105q84 38 181 38q95 0 177 -41q80 -40 146 -139q-56 100 -140 187q-80 83 -187 161l-293 -131l-37 86l242 106l-76 50l-78 49l84 127l118 -76q54 -36 111 -80l222 98l34 -84l-176 -77q84 -74 153 -151q75 -84 121 -167 q52 -94 79 -186q28 -97 28 -207q0 -116 -34 -212q-35 -98 -97 -168q-63 -71 -154 -111q-90 -40 -204 -40q-110 0 -201 38q-89 37 -155 106q-64 67 -99 160t-35 200zM258 479q0 -70 22 -139q21 -66 63 -117t102 -81q58 -29 141 -29q82 0 140 29q60 30 102 81q44 53 64 117 q21 66 21 139q0 72 -21 138q-21 67 -64 117t-102 80q-60 30 -140 30q-81 0 -141 -30q-59 -30 -102 -80q-41 -49 -63 -117q-22 -69 -22 -138z" />
<glyph unicode="&#xf1;" horiz-adv-x="1130" d="M160 0v989h153v-143q31 35 64 61q43 34 83 55q38 20 99 37q52 15 109 15q154 0 233 -79q80 -80 80 -241v-694h-152v647q0 131 -61 180q-62 50 -162 50q-89 0 -170 -48q-79 -47 -123 -106v-723h-153zM246 1147q0 121 50 198q49 76 148 76q56 0 88 -29t57 -65 q28 -40 47 -64q24 -30 60 -30q42 0 70 42q29 43 29 134h92q0 -121 -50 -198q-49 -76 -149 -76q-56 0 -88 29q-29 27 -56 65q-28 40 -47 64q-24 30 -61 30q-40 0 -69 -42q-29 -43 -29 -134h-92z" />
<glyph unicode="&#xf2;" d="M96 496q0 108 34 201q36 98 97 165q65 71 155 111q93 41 204 41t204 -41q88 -39 154 -111q61 -67 97 -165q34 -93 34 -201q0 -110 -34 -203q-35 -95 -97 -165q-65 -73 -154 -112q-93 -41 -204 -41t-204 41q-91 40 -155 112q-62 70 -97 165q-34 93 -34 203zM258 496 q0 -74 22 -146q21 -70 63 -122t102 -84q59 -31 141 -31q81 0 140 31q60 32 102 84q43 54 64 122q21 69 21 146q0 75 -21 144q-20 66 -64 121q-42 53 -102 84q-61 32 -140 32q-80 0 -141 -32q-60 -31 -102 -84t-63 -121q-22 -72 -22 -144zM258 1434h160l303 -295h-117z" />
<glyph unicode="&#xf3;" d="M96 496q0 108 34 201q36 98 97 165q65 71 155 111q93 41 204 41t204 -41q88 -39 154 -111q61 -67 97 -165q34 -93 34 -201q0 -110 -34 -203q-35 -95 -97 -165q-65 -73 -154 -112q-93 -41 -204 -41t-204 41q-91 40 -155 112q-62 70 -97 165q-34 93 -34 203zM258 496 q0 -74 22 -146q21 -70 63 -122t102 -84q59 -31 141 -31q81 0 140 31q60 32 102 84q43 54 64 122q21 69 21 146q0 75 -21 144q-20 66 -64 121q-42 53 -102 84q-61 32 -140 32q-80 0 -141 -32q-60 -31 -102 -84t-63 -121q-22 -72 -22 -144zM451 1139l303 295h159l-346 -295 h-116z" />
<glyph unicode="&#xf4;" d="M96 496q0 108 34 201q36 98 97 165q65 71 155 111q93 41 204 41t204 -41q88 -39 154 -111q61 -67 97 -165q34 -93 34 -201q0 -110 -34 -203q-35 -95 -97 -165q-65 -73 -154 -112q-93 -41 -204 -41t-204 41q-91 40 -155 112q-62 70 -97 165q-34 93 -34 203zM258 496 q0 -74 22 -146q21 -70 63 -122t102 -84q59 -31 141 -31q81 0 140 31q60 32 102 84q43 54 64 122q21 69 21 146q0 75 -21 144q-20 66 -64 121q-42 53 -102 84q-61 32 -140 32q-80 0 -141 -32q-60 -31 -102 -84t-63 -121q-22 -72 -22 -144zM317 1139l195 295h147l201 -295 h-104l-170 217l-164 -217h-105z" />
<glyph unicode="&#xf5;" d="M96 496q0 108 34 201q36 98 97 165q65 71 155 111q93 41 204 41t204 -41q88 -39 154 -111q61 -67 97 -165q34 -93 34 -201q0 -110 -34 -203q-35 -95 -97 -165q-65 -73 -154 -112q-93 -41 -204 -41t-204 41q-91 40 -155 112q-62 70 -97 165q-34 93 -34 203zM258 496 q0 -74 22 -146q21 -70 63 -122t102 -84q59 -31 141 -31q81 0 140 31q60 32 102 84q43 54 64 122q21 69 21 146q0 75 -21 144q-20 66 -64 121q-42 53 -102 84q-61 32 -140 32q-80 0 -141 -32q-60 -31 -102 -84t-63 -121q-22 -72 -22 -144zM266 1147q0 121 50 198 q49 76 149 76q56 0 88 -29q29 -27 56 -65q28 -40 47 -64q24 -30 61 -30q41 0 69 42q29 43 29 134h92q0 -121 -50 -198q-49 -76 -148 -76q-56 0 -88 29t-57 65q-28 40 -47 64q-24 30 -60 30q-41 0 -70 -42q-29 -43 -29 -134h-92z" />
<glyph unicode="&#xf6;" d="M96 496q0 108 34 201q36 98 97 165q65 71 155 111q93 41 204 41t204 -41q88 -39 154 -111q61 -67 97 -165q34 -93 34 -201q0 -110 -34 -203q-35 -95 -97 -165q-65 -73 -154 -112q-93 -41 -204 -41t-204 41q-91 40 -155 112q-62 70 -97 165q-34 93 -34 203zM258 496 q0 -74 22 -146q21 -70 63 -122t102 -84q59 -31 141 -31q81 0 140 31q60 32 102 84q43 54 64 122q21 69 21 146q0 75 -21 144q-20 66 -64 121q-42 53 -102 84q-61 32 -140 32q-80 0 -141 -32q-60 -31 -102 -84t-63 -121q-22 -72 -22 -144zM279 1237q0 41 27 68q26 26 69 26 q40 0 66 -26q28 -28 28 -68q0 -39 -28 -67q-27 -27 -66 -27q-42 0 -69 27t-27 67zM702 1237q0 40 28 68q26 26 67 26q42 0 68 -26q28 -28 28 -68q0 -39 -28 -67q-27 -27 -68 -27q-40 0 -67 27q-28 28 -28 67z" />
<glyph unicode="&#xf7;" horiz-adv-x="1046" d="M59 637v106h928v-106h-928zM430 295q0 38 28 66t66 28q39 0 67 -28q27 -27 27 -66q0 -40 -27 -67t-67 -27q-39 0 -66 27q-28 28 -28 67zM430 1079q0 38 28 66q26 26 66 26q41 0 67 -26q27 -27 27 -66q0 -41 -27 -68q-28 -28 -67 -28q-38 0 -66 28t-28 68z" />
<glyph unicode="&#xf8;" d="M96 496q0 108 34 201q36 98 97 165q65 71 155 111q93 41 204 41q78 0 152 -22q70 -21 128 -62l47 59h113l-92 -117q66 -71 104 -169q37 -96 37 -207q0 -110 -34 -203q-35 -95 -97 -165q-65 -73 -154 -112q-93 -41 -204 -41q-168 0 -291 93l-53 -68h-111l98 125 q-64 70 -99 166q-34 93 -34 205zM258 496q0 -74 17 -134q18 -62 53 -114l446 567q-79 62 -188 62q-80 0 -141 -32q-60 -31 -102 -84t-63 -121q-22 -72 -22 -144zM385 182q83 -69 201 -69q81 0 140 31q60 32 102 84q43 54 64 122q21 69 21 146q0 73 -19 137q-20 67 -58 117z " />
<glyph unicode="&#xf9;" horiz-adv-x="1128" d="M154 291v698h153v-651q0 -63 16 -109q14 -41 45 -69q29 -26 70 -37q39 -10 92 -10q44 0 88 12t81 33q44 25 69 47q32 28 53 57v727h154v-989h-154v139q-54 -63 -149 -114q-92 -50 -203 -50q-315 0 -315 316zM242 1434h159l304 -295h-117z" />
<glyph unicode="&#xfa;" horiz-adv-x="1128" d="M154 291v698h153v-651q0 -63 16 -109q14 -41 45 -69q29 -26 70 -37q39 -10 92 -10q44 0 88 12t81 33q44 25 69 47q32 28 53 57v727h154v-989h-154v139q-54 -63 -149 -114q-92 -50 -203 -50q-315 0 -315 316zM432 1139l303 295h160l-346 -295h-117z" />
<glyph unicode="&#xfb;" horiz-adv-x="1128" d="M154 291v698h153v-651q0 -63 16 -109q14 -41 45 -69q29 -26 70 -37q39 -10 92 -10q44 0 88 12t81 33q44 25 69 47q32 28 53 57v727h154v-989h-154v139q-54 -63 -149 -114q-92 -50 -203 -50q-315 0 -315 316zM295 1139l194 295h148l201 -295h-105l-170 217l-164 -217h-104 z" />
<glyph unicode="&#xfc;" horiz-adv-x="1128" d="M154 291v698h153v-651q0 -63 16 -109q14 -41 45 -69q29 -26 70 -37q39 -10 92 -10q44 0 88 12t81 33q44 25 69 47q32 28 53 57v727h154v-989h-154v139q-54 -63 -149 -114q-92 -50 -203 -50q-315 0 -315 316zM264 1237q0 40 28 68q26 26 68 26q41 0 67 -26q28 -28 28 -68 q0 -39 -28 -67q-27 -27 -67 -27q-41 0 -68 27q-28 28 -28 67zM688 1237q0 40 28 68q26 26 66 26q43 0 69 -26q28 -28 28 -68q0 -39 -28 -67q-27 -27 -69 -27q-39 0 -66 27q-28 28 -28 67z" />
<glyph unicode="&#xfd;" horiz-adv-x="1003" d="M6 989h168l328 -811l329 811h166l-495 -1190q-45 -108 -119 -153q-74 -46 -172 -47q-28 0 -57 4q-36 5 -54 10l23 139q16 -7 41 -12q21 -4 43 -4q51 0 86 21q34 20 61 83l66 150zM369 1139l303 295h159l-346 -295h-116z" />
<glyph unicode="&#xfe;" d="M154 -377v1743h153v-524q51 75 142 124q89 48 192 48q98 0 179 -36q80 -36 139 -102q60 -67 91 -163q31 -94 31 -217t-31 -217q-31 -95 -91 -164t-139 -104q-81 -36 -179 -36q-101 0 -187 47q-87 47 -147 128v-527h-153zM307 272q40 -65 122 -112t173 -47q74 0 133 28 q60 29 101 80q41 52 62 122q22 74 22 153t-22 151q-21 70 -62 121t-101 80q-61 29 -133 29q-91 0 -173 -47q-83 -48 -122 -111v-447z" />
<glyph unicode="&#xff;" horiz-adv-x="1003" d="M6 989h168l328 -811l329 811h166l-495 -1190q-45 -108 -119 -153q-74 -46 -172 -47q-28 0 -57 4q-36 5 -54 10l23 139q16 -7 41 -12q21 -4 43 -4q51 0 86 21q34 20 61 83l66 150zM195 1237q0 41 27 68q26 26 69 26q40 0 66 -26q28 -28 28 -68q0 -39 -28 -67 q-27 -27 -66 -27q-42 0 -69 27t-27 67zM618 1237q0 40 28 68q26 26 67 26q42 0 68 -26q28 -28 28 -68q0 -39 -28 -67q-27 -27 -68 -27q-40 0 -67 27q-28 28 -28 67z" />
<glyph unicode="&#x2c6;" horiz-adv-x="542" d="M0 1139l195 295h147l201 -295h-105l-170 217l-164 -217h-104z" />
<glyph unicode="&#x2dc;" horiz-adv-x="641" d="M0 1147q0 121 50 198q49 76 149 76q56 0 88 -29q29 -27 56 -65q28 -40 47 -64q24 -30 61 -30q41 0 69 42q29 43 29 134h92q0 -121 -50 -198q-49 -76 -149 -76q-56 0 -88 29q-29 27 -56 65q-28 40 -47 64q-24 30 -61 30q-40 0 -69 -42q-29 -43 -29 -134h-92z" />
<glyph unicode="&#x2000;" horiz-adv-x="911" />
<glyph unicode="&#x2001;" horiz-adv-x="1823" />
<glyph unicode="&#x2002;" horiz-adv-x="911" />
<glyph unicode="&#x2003;" horiz-adv-x="1823" />
<glyph unicode="&#x2004;" horiz-adv-x="607" />
<glyph unicode="&#x2005;" horiz-adv-x="455" />
<glyph unicode="&#x2006;" horiz-adv-x="303" />
<glyph unicode="&#x2007;" horiz-adv-x="303" />
<glyph unicode="&#x2008;" horiz-adv-x="227" />
<glyph unicode="&#x2009;" horiz-adv-x="364" />
<glyph unicode="&#x200a;" horiz-adv-x="101" />
<glyph unicode="&#x2010;" horiz-adv-x="614" d="M61 428v135h492v-135h-492z" />
<glyph unicode="&#x2011;" horiz-adv-x="614" d="M61 428v135h492v-135h-492z" />
<glyph unicode="&#x2012;" horiz-adv-x="614" d="M61 428v135h492v-135h-492z" />
<glyph unicode="&#x2013;" horiz-adv-x="1214" d="M61 428v135h1092v-135h-1092z" />
<glyph unicode="&#x2014;" horiz-adv-x="1705" d="M61 428v135h1584v-135h-1584z" />
<glyph unicode="&#x2018;" horiz-adv-x="471" d="M98 1079q0 93 47 176q45 79 117 131l78 -61q-49 -32 -88 -87q-39 -54 -45 -103q2 0 12 2t17 2q40 0 69 -30q29 -31 29 -75q0 -46 -31 -79q-30 -31 -78 -31q-52 0 -89 40q-38 41 -38 115z" />
<glyph unicode="&#x2019;" horiz-adv-x="471" d="M117 985q49 32 88 87q39 54 45 104q-8 -5 -29 -5q-41 0 -69 30q-29 31 -29 75t31 78q29 32 77 32q56 0 92 -39q37 -40 37 -116q0 -93 -47 -176q-46 -82 -118 -133z" />
<glyph unicode="&#x201a;" horiz-adv-x="471" d="M117 -197q48 32 88 86q39 52 45 105q-7 -4 -29 -4q-41 0 -69 29q-29 31 -29 75t31 78q30 33 77 33q54 0 92 -41q37 -40 37 -115q0 -93 -47 -176q-46 -82 -118 -133z" />
<glyph unicode="&#x201c;" horiz-adv-x="798" d="M111 1079q0 93 47 176q46 81 118 131l76 -61q-50 -33 -87 -87q-38 -55 -44 -103l10 2q10 2 17 2q42 0 71 -30q29 -31 29 -75q0 -47 -32 -79q-31 -31 -78 -31q-53 0 -90 40t-37 115zM438 1079q0 93 47 176q45 80 119 131l76 -61q-50 -33 -87 -87q-38 -55 -44 -103 q2 0 12 2t14 2q43 0 72 -30q29 -31 29 -75q0 -47 -32 -79q-31 -31 -79 -31q-52 0 -89 40q-38 41 -38 115z" />
<glyph unicode="&#x201d;" horiz-adv-x="798" d="M117 985q49 32 88 87q39 54 45 104q-8 -5 -29 -5q-41 0 -69 30q-29 31 -29 75t31 78q29 32 77 32q56 0 92 -39q37 -40 37 -116q0 -93 -47 -176q-46 -82 -118 -133zM446 985q51 34 88 87q38 55 44 104q-2 -2 -12 -4q-6 -1 -15 -1q-43 0 -72 30q-28 29 -28 75t31 78t79 32 q53 0 89 -39q38 -41 38 -116q0 -93 -47 -176q-46 -81 -119 -133z" />
<glyph unicode="&#x201e;" horiz-adv-x="798" d="M117 -197q48 32 88 86q39 52 45 105q-7 -4 -29 -4q-41 0 -69 29q-29 31 -29 75t31 78q30 33 77 33q54 0 92 -41q37 -40 37 -115q0 -93 -47 -176q-46 -82 -118 -133zM446 -197q51 34 88 86q38 53 44 105q-1 -1 -12 -3q-6 -1 -15 -1q-44 0 -72 29t-28 75t31 78q32 33 79 33 q51 0 89 -41t38 -115q0 -93 -47 -176q-46 -81 -119 -133z" />
<glyph unicode="&#x2022;" horiz-adv-x="733" d="M147 496q0 44 18 85q18 40 48 70t71 48q40 18 85 18t85 -18t70 -48t48 -70q18 -41 18 -85t-18 -85q-18 -40 -48 -70q-29 -29 -70 -47q-40 -18 -85 -18q-44 0 -85 18q-43 19 -71 47q-30 30 -48 70t-18 85z" />
<glyph unicode="&#x2026;" horiz-adv-x="1415" d="M123 92q0 47 33 80t80 33q46 0 79 -33t33 -80q0 -44 -33 -79q-32 -33 -79 -33q-48 0 -80 33q-33 35 -33 79zM594 92q0 47 33 80t80 33q46 0 79 -33t33 -80q0 -44 -33 -79q-32 -33 -79 -33q-48 0 -80 33q-33 34 -33 79zM1067 92q0 47 33 80t80 33q46 0 78 -33 q32 -34 32 -80q0 -44 -32 -79q-30 -33 -78 -33t-80 33q-33 35 -33 79z" />
<glyph unicode="&#x202f;" horiz-adv-x="364" />
<glyph unicode="&#x2039;" horiz-adv-x="604" d="M61 498l328 362h154l-328 -362l328 -369h-154z" />
<glyph unicode="&#x203a;" horiz-adv-x="604" d="M61 129l328 369l-328 362h154l328 -362l-328 -369h-154z" />
<glyph unicode="&#x205f;" horiz-adv-x="455" />
<glyph unicode="&#x2122;" horiz-adv-x="929" d="M35 1313v53h311v-53h-127v-398h-57v398h-127zM420 915v451h88l131 -328l131 328h88v-451h-57v373l-154 -373h-16l-154 373v-373h-57z" />
<glyph unicode="&#xe000;" horiz-adv-x="993" d="M0 0v993h993v-993h-993z" />
</font>
</defs>
</svg>
