<?xml version="1.0" standalone="no"?>
<!DOCTYPE svg PUBLIC "-//W3C//DTD SVG 1.1//EN" "http://www.w3.org/Graphics/SVG/1.1/DTD/svg11.dtd" >
<svg xmlns="http://www.w3.org/2000/svg">
<metadata></metadata>
<defs>
<font id="din_engschrift_stdregular" horiz-adv-x="757" >
<font-face units-per-em="2048" ascent="1458" descent="-590" />
<missing-glyph horiz-adv-x="380" />
<glyph unicode="&#xfb01;" horiz-adv-x="833" d="M10 874v164h103v142q0 73 22.5 128t61 87t85 47.5t99.5 15.5h96v-196h-94q-29 0 -45 -19t-16 -53v-152h155v-164h-155v-874h-209v874h-103zM539 0v1038h209v-1038h-209zM539 1249v209h209v-209h-209z" />
<glyph unicode="&#xfb02;" horiz-adv-x="833" d="M10 874v164h103v142q0 73 22.5 128t61 87t85 47.5t99.5 15.5h96v-196h-94q-29 0 -45 -19t-16 -53v-152h155v-164h-155v-874h-209v874h-103zM539 279v1179h209v-1165q0 -58 21 -80.5t81 -28.5v-196q-78 0 -131 12t-96 42.5t-63.5 89t-20.5 147.5z" />
<glyph horiz-adv-x="2048" />
<glyph horiz-adv-x="2048" />
<glyph unicode="&#xd;" horiz-adv-x="2048" />
<glyph unicode=" "  horiz-adv-x="380" />
<glyph unicode="&#x09;" horiz-adv-x="380" />
<glyph unicode="&#xa0;" horiz-adv-x="380" />
<glyph unicode="!" horiz-adv-x="491" d="M115 1458h262l-80 -1098h-102zM141 0v209h209v-209h-209z" />
<glyph unicode="&#x22;" horiz-adv-x="569" d="M68 1098v360h163v-360h-163zM338 1098v360h164v-360h-164z" />
<glyph unicode="#" horiz-adv-x="761" d="M12 440v123h121l45 332h-102v123h119l59 440h139l-59 -440h172l59 440h140l-60 -440h105v-123h-121l-45 -332h102v-123h-119l-59 -440h-139l59 440h-172l-59 -440h-140l60 440h-105zM272 563h172l45 332h-172z" />
<glyph unicode="$" horiz-adv-x="761" d="M23 330v82h208v-74q0 -51 24.5 -90.5t74.5 -50.5v471l-70 28q-129 53 -178 141.5t-49 233.5q0 162 76.5 270.5t220.5 128.5v154h104v-154q135 -17 220 -113t85 -216v-103h-209v47q0 145 -96 177v-412l86 -35q131 -50 175 -139t44 -260q0 -397 -305 -428v-172h-104v172 q-134 15 -220.5 111t-86.5 231zM242 1073q0 -80 15.5 -116t72.5 -62v367q-88 -34 -88 -189zM434 197q32 7 52 24.5t29 48t12 62t3 82.5q0 105 -17.5 144t-78.5 65v-426z" />
<glyph unicode="%" horiz-adv-x="720" d="M18 1169v134q0 76 47.5 121.5t127.5 45.5t127 -45.5t47 -121.5v-134q0 -69 -47.5 -112t-126.5 -43t-127 43t-48 112zM43 0l500 1458h135l-500 -1458h-135zM141 1190q0 -22 15.5 -37.5t36.5 -15.5q20 0 35.5 15.5t15.5 37.5v104q0 22 -15.5 38t-35.5 16t-36 -16t-16 -38 v-104zM354 143v133q0 77 47.5 122.5t126.5 45.5t126.5 -45.5t47.5 -122.5v-133q0 -69 -47.5 -112t-126.5 -43t-126.5 43t-47.5 112zM477 164q0 -22 15.5 -37.5t35.5 -15.5t36 15.5t16 37.5v104q0 22 -16 38t-36 16t-35.5 -16t-15.5 -38v-104z" />
<glyph unicode="&#x26;" horiz-adv-x="985" d="M74 326q0 112 52.5 203t147.5 176q-127 178 -127 335q0 123 74.5 203t210.5 80q129 0 203 -76t74 -188q0 -178 -213 -367q4 -6 76.5 -125t115.5 -180l113 154l129 -90l-156 -201l158 -250h-209l-70 111q-123 -123 -278 -123q-127 0 -214 94.5t-87 243.5zM258 336 q0 -76 44.5 -130t111.5 -54q43 0 85.5 27t69.5 61l-200 319q-111 -115 -111 -223zM332 1036q0 -79 80 -211q125 120 125 230q0 40 -28.5 72t-72.5 32q-46 0 -75 -37t-29 -86z" />
<glyph unicode="'" horiz-adv-x="380" d="M109 1098v360h163v-360h-163z" />
<glyph unicode="(" horiz-adv-x="454" d="M102 627q0 213 65.5 437.5t178.5 393.5h70q-105 -369 -105 -889q0 -395 105 -774h-70q-118 171 -181 397t-63 435z" />
<glyph unicode=")" horiz-adv-x="454" d="M39 -205q104 365 104 889q0 399 -104 774h70q118 -171 180.5 -396.5t62.5 -434.5q0 -213 -65 -438t-178 -394h-70z" />
<glyph unicode="*" d="M63 1010l205 112l-205 115l58 106l201 -122l-9 237h131l-8 -237l201 122l57 -106l-205 -115l205 -112l-57 -109l-201 123l8 -238h-131l9 238l-201 -123z" />
<glyph unicode="+" horiz-adv-x="1228" d="M96 436v164h436v436h164v-436h437v-164h-437v-436h-164v436h-436z" />
<glyph unicode="," horiz-adv-x="380" d="M86 -152v361h209v-209z" />
<glyph unicode="-" horiz-adv-x="796" d="M90 463v209h617v-209h-617z" />
<glyph unicode="." horiz-adv-x="380" d="M86 0v209h209v-209h-209z" />
<glyph unicode="/" horiz-adv-x="454" d="M10 -12l271 1482h163l-270 -1482h-164z" />
<glyph unicode="0" horiz-adv-x="761" d="M70 301v856q0 141 90.5 227t220.5 86t220.5 -86t90.5 -227v-856q0 -141 -90.5 -227t-220.5 -86t-220.5 86t-90.5 227zM279 301q0 -44 29 -74t73 -30t73 30t29 74v856q0 45 -29 75t-73 30t-73 -30t-29 -75v-856z" />
<glyph unicode="1" horiz-adv-x="761" d="M109 1083v222l208 153h209v-1458h-209v1237z" />
<glyph unicode="2" horiz-adv-x="761" d="M70 0v197l376 710q25 49 31 86t6 107q0 30 -0.5 46t-6 42t-15.5 39.5t-30.5 24t-49.5 10.5q-47 0 -74.5 -27.5t-27.5 -77.5v-119h-209v115q0 131 91.5 224t221.5 93q79 0 139.5 -29.5t97 -81t54.5 -116t18 -139.5q0 -111 -11 -162t-58 -141l-308 -592h377v-209h-622z" />
<glyph unicode="3" horiz-adv-x="761" d="M70 299v119h209v-109q0 -50 27.5 -81t74.5 -31t74.5 31t27.5 85v209q0 84 -32 110.5t-134 26.5v185q98 0 132 24t34 103v188q0 45 -28 74t-74 29q-51 0 -76.5 -32.5t-25.5 -70.5v-119h-209v121q0 128 92.5 218.5t222.5 90.5q77 0 135 -30.5t92 -71.5q45 -53 62.5 -115 t17.5 -194q0 -67 -2.5 -103.5t-8.5 -69t-21.5 -53t-37 -38.5t-59.5 -41q25 -15 42.5 -28t32 -29.5t23 -28t15 -34.5t9.5 -37.5t5 -49t2 -56.5v-71q0 -140 -10.5 -195t-44.5 -104q-89 -133 -258 -133q-53 0 -105 17t-99 52t-76 97.5t-29 144.5z" />
<glyph unicode="4" horiz-adv-x="761" d="M18 217v197l301 1044h222l-314 -1044h207v415h209v-415h100v-197h-100v-217h-209v217h-416z" />
<glyph unicode="5" horiz-adv-x="761" d="M70 301v61h209v-53q0 -53 29.5 -82.5t76.5 -29.5q46 0 72 28.5t26 79.5v342q0 43 -28 74t-70 31q-25 0 -44 -7.5t-32.5 -24.5t-17 -23.5t-12.5 -24.5h-185v786h598v-196h-413v-394q72 68 174 68q108 0 173.5 -67.5t65.5 -190.5v-377q0 -141 -90.5 -227t-220.5 -86 t-220.5 86t-90.5 227z" />
<glyph unicode="6" horiz-adv-x="761" d="M70 426q0 128 8 182t31 117l274 733h233l-237 -612l4 -4q25 18 88 18q54 0 101.5 -26.5t74.5 -67.5q28 -43 36.5 -106t8.5 -234q0 -140 -8.5 -193.5t-38.5 -103.5q-40 -67 -109 -104t-155 -37q-84 0 -152 37t-110 104q-31 50 -40 103t-9 194zM279 301q0 -46 30.5 -75 t71.5 -29t71.5 29t30.5 75v270q0 46 -30.5 75.5t-71.5 29.5t-71.5 -29.5t-30.5 -75.5v-270z" />
<glyph unicode="7" horiz-adv-x="761" d="M70 1094v364h622v-209l-354 -1249h-221l366 1262h-229v-168h-184z" />
<glyph unicode="8" horiz-adv-x="761" d="M70 408q0 177 16.5 240.5t87.5 117.5q-71 57 -87.5 114t-16.5 197q0 115 16 170.5t59 110.5q41 54 103 83t133 29t132.5 -29t102.5 -83q44 -56 60 -111t16 -170q0 -140 -16.5 -197t-87.5 -114q71 -54 87.5 -117.5t16.5 -240.5q0 -129 -11.5 -185.5t-45.5 -105.5 q-38 -58 -103 -93.5t-151 -35.5t-151 35.5t-103 93.5q-34 49 -45.5 105.5t-11.5 185.5zM279 299q0 -42 31 -72t71 -30t71 30t31 72v287q0 42 -31 72t-71 30t-71 -30t-31 -72v-287zM279 946q0 -42 31 -72t71 -30t71 30t31 72v213q0 42 -31 72.5t-71 30.5t-71 -30.5t-31 -72.5 v-213z" />
<glyph unicode="9" horiz-adv-x="761" d="M70 1032q0 140 8.5 193.5t38.5 103.5q40 67 109 104t155 37q84 0 152 -37t110 -104q31 -50 40 -103t9 -194q0 -128 -8 -182t-31 -117l-274 -733h-234l238 612l-4 4q-25 -18 -88 -18q-54 0 -101.5 26.5t-74.5 67.5q-28 43 -36.5 106t-8.5 234zM279 887q0 -46 30.5 -75.5 t71.5 -29.5t71.5 29.5t30.5 75.5v270q0 46 -30.5 75.5t-71.5 29.5t-71.5 -29.5t-30.5 -75.5v-270z" />
<glyph unicode=":" horiz-adv-x="380" d="M86 0v209h209v-209h-209zM86 465v209h209v-209h-209z" />
<glyph unicode=";" horiz-adv-x="380" d="M86 -152v361h209v-209zM86 465v209h209v-209h-209z" />
<glyph unicode="&#x3c;" horiz-adv-x="1228" d="M96 457v123l1037 473v-164l-814 -371l814 -371v-163z" />
<glyph unicode="=" horiz-adv-x="1228" d="M96 231v164h1037v-164h-1037zM96 641v164h1037v-164h-1037z" />
<glyph unicode="&#x3e;" horiz-adv-x="1228" d="M96 -16v163l813 371l-813 371v164l1037 -473v-123z" />
<glyph unicode="?" d="M66 1038v121q0 129 92 220t223 91q75 0 138 -30t104 -86q41 -55 55 -105.5t14 -144.5q0 -106 -6.5 -153.5t-26.5 -80.5l-141 -241q-35 -64 -35 -105v-164h-209v191q0 80 52 166l131 213q26 46 26 119v108q0 43 -30 74t-72 31q-41 0 -74 -28.5t-33 -76.5v-119h-208zM274 0 v209h209v-209h-209z" />
<glyph unicode="@" horiz-adv-x="1638" d="M111 733q0 201 105 371t283 268t386 98q192 0 353.5 -77.5t258 -218.5t96.5 -316q0 -98 -31.5 -190t-82.5 -160t-113 -119.5t-124.5 -77.5t-115.5 -26q-144 0 -159 129h-4q-29 -31 -47.5 -48t-50.5 -39t-69.5 -32t-82.5 -10q-129 0 -211 90t-82 221q0 81 22 162 t64.5 152.5t99.5 127t133 87.5t160 32q77 0 142 -40.5t94 -119.5h4l41 125h129l-179 -563q-20 -62 -20 -92q0 -59 47 -59q63 0 129 68.5t108 172t42 199.5q0 139 -76.5 252t-202 174t-270.5 61q-126 0 -241.5 -51t-197.5 -135t-131 -196t-49 -230q0 -165 83 -302.5 t227.5 -217.5t318.5 -80q145 0 284.5 62t213.5 153h157q-99 -163 -279.5 -256.5t-391.5 -93.5q-212 0 -388 96t-279 267.5t-103 381.5zM584 610q0 -85 46 -131.5t124 -46.5q74 0 144.5 68t111.5 162.5t41 177.5q0 75 -40.5 122.5t-111.5 47.5q-85 0 -159.5 -64.5 t-115 -156.5t-40.5 -179z" />
<glyph unicode="A" horiz-adv-x="833" d="M4 0l326 1458h174l325 -1458h-208l-62 313h-285l-61 -313h-209zM311 510h209l-102 528h-4z" />
<glyph unicode="B" horiz-adv-x="872" d="M98 0v1458h305q98 0 171.5 -30.5t116 -83t63 -116.5t20.5 -138v-54q0 -110 -33.5 -166.5t-109.5 -103.5q74 -35 108.5 -104t34.5 -183v-82q0 -397 -391 -397h-285zM307 209h90q49 0 83 12.5t53 32t29.5 54t13 66t2.5 81.5q0 118 -35.5 169.5t-143.5 51.5h-92v-467z M307 860h94q100 0 138.5 49.5t38.5 155.5q0 100 -42.5 148.5t-142.5 48.5h-86v-402z" />
<glyph unicode="C" horiz-adv-x="833" d="M86 332v803q0 144 95 239.5t245 95.5q145 0 240.5 -98t95.5 -250v-82h-209v70q0 64 -35.5 108t-93.5 44q-73 0 -101 -44t-28 -126v-746q0 -149 127 -149q52 0 91.5 34.5t39.5 112.5v72h209v-90q0 -137 -97 -237.5t-235 -100.5q-65 0 -122 17t-109 54.5t-82.5 107.5 t-30.5 165z" />
<glyph unicode="D" horiz-adv-x="872" d="M98 0v1458h310q176 0 271 -99.5t95 -277.5v-682q0 -200 -99 -299.5t-286 -99.5h-291zM307 197h96q87 0 124.5 43.5t37.5 138.5v702q0 91 -36.5 136t-125.5 45h-96v-1065z" />
<glyph unicode="E" d="M98 0v1458h623v-196h-414v-428h361v-197h-361v-428h414v-209h-623z" />
<glyph unicode="F" d="M98 0v1458h623v-196h-414v-443h361v-196h-361v-623h-209z" />
<glyph unicode="G" horiz-adv-x="872" d="M86 344v770q0 86 30.5 155.5t81 112.5t112 65.5t126.5 22.5t126.5 -22.5t112 -65.5t81 -112.5t30.5 -155.5v-74h-208v74q0 71 -40.5 109.5t-101.5 38.5t-101 -38t-40 -110v-770q0 -71 40 -109t101 -38t101.5 38t40.5 109v274h-166v185h374v-459q0 -86 -30.5 -155.5 t-81 -112.5t-112 -65.5t-126.5 -22.5t-126.5 22.5t-112 65.5t-81 112.5t-30.5 155.5z" />
<glyph unicode="H" horiz-adv-x="872" d="M98 0v1458h209v-624h258v624h209v-1458h-209v649h-258v-649h-209z" />
<glyph unicode="I" horiz-adv-x="417" d="M104 0v1458h209v-1458h-209z" />
<glyph unicode="J" horiz-adv-x="681" d="M-45 119l164 131q53 -53 114 -53q22 0 44 7.5t45.5 25.5t38 55t14.5 88v1085h209v-1114q0 -150 -97.5 -253t-259.5 -103q-155 0 -272 131z" />
<glyph unicode="K" horiz-adv-x="872" d="M98 0v1458h209v-665h4l305 665h209l-284 -584l338 -874h-222l-237 647l-113 -211v-436h-209z" />
<glyph unicode="L" d="M98 0v1458h209v-1249h414v-209h-623z" />
<glyph unicode="M" horiz-adv-x="1138" d="M98 0v1458h201l268 -772h4l267 772h202v-1458h-209v887h-4l-206 -627h-105l-205 627h-4v-887h-209z" />
<glyph unicode="N" horiz-adv-x="909" d="M90 0v1458h201l315 -878h4v878h209v-1458h-196l-320 877h-4v-877h-209z" />
<glyph unicode="O" horiz-adv-x="872" d="M86 344v770q0 86 30.5 155.5t81 112.5t112 65.5t126.5 22.5t126.5 -22.5t112 -65.5t81 -112.5t30.5 -155.5v-770q0 -86 -30.5 -155.5t-81 -112.5t-112 -65.5t-126.5 -22.5t-126.5 22.5t-112 65.5t-81 112.5t-30.5 155.5zM295 344q0 -71 40 -109t101 -38t101.5 38 t40.5 109v770q0 71 -40.5 109.5t-101.5 38.5t-101 -38t-40 -110v-770z" />
<glyph unicode="P" horiz-adv-x="833" d="M98 0v1458h314q89 0 153 -23.5t117 -78.5q53 -56 73.5 -132.5t20.5 -209.5q0 -103 -12 -169.5t-47 -123.5q-92 -152 -303 -152h-107v-569h-209zM307 766h101q31 0 56 4t42.5 14.5t30.5 20.5t21 30t12.5 35t6.5 43t2.5 46.5t0.5 52.5t-0.5 50.5t-2 45.5t-6 44t-12 36 t-19.5 31.5t-29 22t-41 16t-54 4.5h-109v-496z" />
<glyph unicode="Q" horiz-adv-x="872" d="M86 344v770q0 86 30.5 155.5t81 112.5t112 65.5t126.5 22.5t126.5 -22.5t112 -65.5t81 -112.5t30.5 -155.5v-770q0 -84 -30 -149l129 -105l-107 -127l-123 100q-93 -75 -219 -75q-65 0 -126.5 22.5t-112 65.5t-81 112.5t-30.5 155.5zM295 344q0 -71 40 -109t101 -38 q26 0 45 8l-94 76l107 127l84 -68v4v770q0 71 -40.5 109.5t-101.5 38.5t-101 -38t-40 -110v-770z" />
<glyph unicode="R" horiz-adv-x="872" d="M98 0v1458h336q369 0 369 -428q0 -131 -42 -220.5t-138 -143.5l225 -666h-221l-195 623h-125v-623h-209zM307 807h119q102 0 135 53.5t33 173.5q0 60 -6.5 98.5t-24.5 70t-54 45.5t-93 14h-109v-455z" />
<glyph unicode="S" horiz-adv-x="831" d="M57 334v78h209v-66q0 -63 37 -106t111 -43q51 0 82.5 14t46 46t18.5 65.5t4 91.5q0 80 -10 119t-33 59.5t-78 42.5l-149 61q-129 53 -178 141.5t-49 233.5q0 174 92.5 286.5t265.5 112.5q100 0 181.5 -48.5t124 -123.5t42.5 -157v-103h-209v47q0 78 -36 127.5t-111 49.5 q-142 0 -142 -189q0 -90 20.5 -126.5t98.5 -67.5l160 -64q131 -50 175 -139t44 -260q0 -428 -360 -428q-152 0 -254.5 99t-102.5 247z" />
<glyph unicode="T" horiz-adv-x="679" d="M-6 1262v196h692v-196h-242v-1262h-208v1262h-242z" />
<glyph unicode="U" horiz-adv-x="872" d="M98 328v1130h209v-1110q0 -74 35.5 -112.5t93.5 -38.5t93.5 38.5t35.5 112.5v1110h209v-1130q0 -142 -99 -241t-239 -99t-239 99t-99 241z" />
<glyph unicode="V" horiz-adv-x="833" d="M27 1458h221l166 -1018h4l168 1018h221l-299 -1458h-184z" />
<glyph unicode="W" horiz-adv-x="1214" d="M33 1458h221l104 -926h4l164 926h160l170 -948h4l101 948h221l-217 -1458h-197l-160 946h-4l-158 -946h-196z" />
<glyph unicode="X" horiz-adv-x="796" d="M-4 0l295 764l-273 694h222l157 -432l160 432h221l-278 -694l301 -764h-221l-183 492l-180 -492h-221z" />
<glyph unicode="Y" horiz-adv-x="794" d="M6 1458h221l168 -579h4l168 579h221l-286 -842v-616h-209v616z" />
<glyph unicode="Z" horiz-adv-x="681" d="M31 0v184l393 1078h-373v196h600v-166l-401 -1095h401v-197h-620z" />
<glyph unicode="[" horiz-adv-x="454" d="M119 -205v1663h319v-123h-135v-1417h135v-123h-319z" />
<glyph unicode="\" horiz-adv-x="454" d="M10 1470h164l270 -1482h-163z" />
<glyph unicode="]" horiz-adv-x="454" d="M16 -82h136v1417h-136v123h320v-1663h-320v123z" />
<glyph unicode="^" horiz-adv-x="1228" d="M102 580l445 878h135l444 -878h-163l-349 694l-348 -694h-164z" />
<glyph unicode="_" horiz-adv-x="1024" d="M0 -154h1024v-102h-1024v102z" />
<glyph unicode="`" horiz-adv-x="380" d="M-82 1464h221l185 -288h-136z" />
<glyph unicode="a" d="M51 264q0 93 15 156t52 108.5t101.5 66.5t161.5 21q16 0 49 -2.5t51 -3.5v109q0 123 -104 123q-42 0 -76 -28t-43 -77h-203q9 140 95 226q88 88 227 88q137 0 225 -85.5t88 -242.5v-723h-209v106h-4q-45 -63 -88 -90.5t-113 -27.5q-41 0 -76.5 11.5t-71 39.5t-56.5 86 t-21 139zM260 305q0 -61 29 -97t80 -36q53 0 82.5 35t29.5 98v141q-40 7 -57 7q-74 0 -119 -35t-45 -113z" />
<glyph unicode="b" horiz-adv-x="796" d="M86 0v1458h209v-514h4q71 107 193 107q126 0 186 -95q20 -32 26.5 -84t6.5 -167v-396q0 -160 -35 -223q-53 -98 -182 -98q-37 0 -66 7t-54 25t-39 31.5t-40 42.5v-94h-209zM295 326q0 -57 28.5 -93t75.5 -36q52 0 77.5 37.5t25.5 103.5v381q0 123 -103 123 q-45 0 -74.5 -32t-29.5 -81v-403z" />
<glyph unicode="c" d="M98 348v342q0 140 39 211q38 69 109 109.5t164 40.5q143 0 227 -92.5t84 -239.5h-209q0 123 -102 123q-48 0 -75.5 -30.5t-27.5 -88.5v-424q0 -49 27.5 -75.5t75.5 -26.5q93 0 102 104h209q0 -134 -84 -221q-89 -92 -227 -92q-93 0 -164 40t-109 109q-39 71 -39 211z" />
<glyph unicode="d" horiz-adv-x="796" d="M86 309v396q0 115 6.5 167t26.5 84q60 95 186 95q122 0 193 -107h4v514h209v-1458h-209v94q-26 -29 -40 -42.5t-39 -31.5t-54 -25t-66 -7q-129 0 -182 98q-35 63 -35 223zM295 338q0 -141 102 -141q47 0 76 36t29 93v403q0 49 -30 81t-75 32q-102 0 -102 -123v-381z" />
<glyph unicode="e" d="M68 348v342q0 142 38 211t109 109.5t164 40.5q142 0 226.5 -92t84.5 -232v-287h-414v-141q0 -49 27.5 -75.5t75.5 -26.5q93 0 102 104h209q0 -134 -84 -221q-89 -92 -227 -92q-93 0 -164 40t-109 109t-38 211zM276 604h205v119q0 58 -27 88.5t-75 30.5t-75.5 -30.5 t-27.5 -88.5v-119z" />
<glyph unicode="f" horiz-adv-x="454" d="M10 874v164h103v142q0 73 22.5 128t61 87t85 47.5t99.5 15.5h96v-196h-94q-29 0 -45 -19t-16 -53v-152h155v-164h-155v-874h-209v874h-103z" />
<glyph unicode="g" horiz-adv-x="796" d="M86 -121h209q2 -40 31 -71t80 -31q96 0 96 112v205h-4q-70 -106 -195 -106q-129 0 -182 98q-35 63 -35 223v396q0 115 6.5 167t26.5 84q60 95 186 95q48 0 86.5 -16.5t57 -34t53.5 -56.5v94h209v-1165q0 -55 -18.5 -107.5t-55 -97.5t-99 -72.5t-141.5 -27.5q-51 0 -99 16 t-93.5 50t-77 97t-41.5 148zM295 319q0 -122 102 -122q45 0 75 31.5t30 80.5v404q0 57 -29 93t-76 36q-102 0 -102 -142v-381z" />
<glyph unicode="h" horiz-adv-x="796" d="M86 0v1458h209v-520h4q74 113 197 113q89 0 152 -62.5t63 -191.5v-797h-209v719q0 58 -27 90.5t-76 32.5q-56 0 -80 -36t-24 -108v-698h-209z" />
<glyph unicode="i" horiz-adv-x="380" d="M86 0v1038h209v-1038h-209zM86 1249v209h209v-209h-209z" />
<glyph unicode="j" horiz-adv-x="380" d="M-45 -223q76 0 103.5 38.5t27.5 151.5v1071h209v-1149q0 -149 -93.5 -229t-246.5 -80v197zM86 1249v209h209v-209h-209z" />
<glyph unicode="k" horiz-adv-x="796" d="M86 0v1458h209v-872h4l252 452h209l-248 -422l299 -616h-227l-189 449l-100 -158v-291h-209z" />
<glyph unicode="l" horiz-adv-x="380" d="M74 279v1179h209v-1165q0 -58 21 -80.5t81 -28.5v-196q-78 0 -131 12t-96 42.5t-63.5 89t-20.5 147.5z" />
<glyph unicode="m" horiz-adv-x="1212" d="M86 0v1038h209v-100h4q74 113 197 113q110 0 186 -105q46 51 93.5 78t123.5 27q90 0 158.5 -63t68.5 -191v-797h-208v719q0 58 -27 90.5t-76 32.5q-56 0 -80 -36t-24 -108v-698h-209v719q0 58 -27 90.5t-76 32.5q-56 0 -80 -36t-24 -108v-698h-209z" />
<glyph unicode="n" horiz-adv-x="796" d="M86 0v1038h209v-100h4q74 113 197 113q89 0 152 -62.5t63 -191.5v-797h-209v719q0 58 -27 90.5t-76 32.5q-56 0 -80 -36t-24 -108v-698h-209z" />
<glyph unicode="o" d="M68 348v342q0 142 38 211t109 109.5t164 40.5t163.5 -40.5t108.5 -109.5q39 -71 39 -211v-342q0 -140 -39 -211q-38 -69 -108.5 -109t-163.5 -40t-164 40t-109 109t-38 211zM276 315q0 -57 27.5 -87.5t75.5 -30.5t75 30t27 88v408q0 58 -27 88.5t-75 30.5t-75.5 -30.5 t-27.5 -88.5v-408z" />
<glyph unicode="p" horiz-adv-x="796" d="M86 -420v1458h209v-94q35 39 54 56.5t57.5 34t87.5 16.5q128 0 182 -99q35 -63 35 -223v-395q0 -115 -6.5 -167.5t-26.5 -84.5q-60 -94 -186 -94q-123 0 -193 106h-4v-514h-209zM295 309q0 -49 29.5 -80.5t74.5 -31.5q103 0 103 122v381q0 66 -25.5 104t-77.5 38 q-47 0 -75.5 -36t-28.5 -93v-404z" />
<glyph unicode="q" horiz-adv-x="796" d="M86 334v395q0 160 35 223q54 99 182 99q49 0 87.5 -16.5t57.5 -34t54 -56.5v94h209v-1458h-209v514h-4q-70 -106 -193 -106q-126 0 -186 94q-20 32 -26.5 84.5t-6.5 167.5zM295 319q0 -122 102 -122q45 0 75 31.5t30 80.5v404q0 57 -29 93t-76 36q-102 0 -102 -142v-381z " />
<glyph unicode="r" horiz-adv-x="569" d="M86 0v1038h209v-110q73 64 132.5 93.5t143.5 29.5v-222q-32 13 -63 13q-36 0 -71 -12t-68 -37t-53.5 -71t-20.5 -106v-616h-209z" />
<glyph unicode="s" horiz-adv-x="720" d="M49 301h197q16 -117 112 -117q47 0 82 31.5t35 81.5q0 45 -23 75t-81 52l-101 37q-100 37 -155.5 111t-55.5 176q0 130 90 216.5t218 86.5q127 0 210 -86.5t85 -216.5h-197q-1 50 -32 78t-75 28q-47 0 -74.5 -31t-27.5 -73q0 -35 17.5 -60.5t70.5 -46.5l123 -49 q205 -78 205 -293q0 -131 -89 -222t-223 -91q-129 0 -217 82.5t-94 230.5z" />
<glyph unicode="t" horiz-adv-x="417" d="M-18 874v164h104v316h209v-316h129v-164h-129v-575q0 -67 26.5 -84.5t102.5 -17.5v-197h-86q-67 0 -118 22t-79 59t-41.5 78t-13.5 85v630h-104z" />
<glyph unicode="u" horiz-adv-x="796" d="M86 242v796h209v-719q0 -58 26.5 -90t75.5 -32q57 0 81 35.5t24 107.5v698h209v-1038h-209v100h-4q-73 -112 -197 -112q-89 0 -152 62.5t-63 191.5z" />
<glyph unicode="v" horiz-adv-x="720" d="M-2 1038h221l139 -663h4l140 663h221l-270 -1038h-185z" />
<glyph unicode="w" horiz-adv-x="1097" d="M2 1038h221l127 -645h4l117 645h164l110 -645h5l124 645h222l-246 -1038h-184l-115 616h-4l-115 -616h-184z" />
<glyph unicode="x" horiz-adv-x="679" d="M-23 0l256 530l-243 508h221l129 -295l129 295h221l-248 -508l260 -530h-221l-141 317l-141 -317h-222z" />
<glyph unicode="y" horiz-adv-x="720" d="M-2 1038h221l143 -647h5l141 647h215l-299 -1218q-58 -240 -289 -240h-57v197h47q45 0 69 17.5t44.5 74t44.5 178.5z" />
<glyph unicode="z" horiz-adv-x="645" d="M35 0v166l338 688h-312v184h549v-166l-338 -675h338v-197h-575z" />
<glyph unicode="{" horiz-adv-x="454" d="M6 567v123q57 0 94 65t37 165v311q0 104 58 165.5t143 61.5h111v-123h-37q-90 0 -90 -135v-309q0 -122 -44.5 -187.5t-97.5 -74.5v-4q24 -4 47 -20t45 -45t36 -81t14 -119v-305q0 -137 90 -137h37v-123h-111q-85 0 -143 62t-58 166v309q0 103 -37 169t-94 66z" />
<glyph unicode="|" horiz-adv-x="454" d="M145 -512v2048h164v-2048h-164z" />
<glyph unicode="}" horiz-adv-x="454" d="M6 -82h37q90 0 90 137v305q0 67 13.5 118.5t36 81t45 45.5t46.5 20v4q-53 9 -97 74.5t-44 187.5v309q0 135 -90 135h-37v123h111q85 0 142.5 -61.5t57.5 -165.5v-311q0 -100 37.5 -165t94.5 -65v-123q-57 0 -94.5 -66.5t-37.5 -168.5v-309q0 -104 -57.5 -166t-142.5 -62 h-111v123z" />
<glyph unicode="~" horiz-adv-x="1228" d="M141 492q93 178 256 178q85 0 228 -68q14 -6 44.5 -20t47.5 -21t40.5 -16t42 -13t34.5 -4q29 0 55 11.5t49.5 36.5t38 45t37.5 55l73 -133q-93 -178 -256 -178q-86 0 -227 67q-14 6 -44.5 20t-47.5 21t-40.5 16t-42 13t-34.5 4q-29 0 -54.5 -11.5t-49.5 -37t-38 -44 t-38 -53.5z" />
<glyph unicode="&#xa1;" horiz-adv-x="491" d="M115 -420l80 1098h102l80 -1098h-262zM141 829v209h209v-209h-209z" />
<glyph unicode="&#xa2;" horiz-adv-x="761" d="M70 342v352q0 140 39 211q33 61 91.5 100t135.5 46v153h84v-153q125 -10 198.5 -101.5t73.5 -230.5h-209q0 101 -63 123v-645q55 19 63 104h209q0 -138 -84 -225q-76 -79 -188 -88v-172h-84v172q-76 6 -135 44.5t-92 98.5q-39 71 -39 211zM279 291q0 -74 57 -94v645 q-24 -9 -41 -39q-16 -29 -16 -72v-440z" />
<glyph unicode="&#xa3;" horiz-adv-x="761" d="M27 610v146h112q-42 78 -60 145.5t-18 165.5q0 83 19 154t58 127.5t104 89t151 32.5q53 0 104.5 -20t97 -58.5t73.5 -105t28 -149.5v-93h-196v82q0 64 -26 106t-87 42q-68 0 -98.5 -57.5t-30.5 -151.5q0 -137 66 -309h237v-146h-190q1 -2 7.5 -20.5t8 -23t6.5 -21 t6.5 -25.5t4 -25t3.5 -31.5t1 -33.5q0 -108 -66 -223q14 -2 48 -8.5t64.5 -10.5t55.5 -4q41 0 71 12.5t64 53.5l139 -141q-47 -65 -100.5 -93t-126.5 -28q-37 0 -168.5 19.5t-179.5 19.5q-40 0 -88.5 -11t-73.5 -22v176q18 11 59 24.5t72 16.5q55 80 55 178q0 101 -47 221 h-159z" />
<glyph unicode="&#xa4;" horiz-adv-x="761" d="M8 438l86 86q-33 34 -52 89t-19 116q0 130 69 205l-84 86l84 84l84 -86q79 69 205 69q128 0 207 -69l84 86l82 -84l-84 -84q69 -79 69 -207q0 -129 -69 -205l84 -84l-84 -84l-84 84q-75 -69 -205 -69q-127 0 -205 71l-84 -86zM158 729q0 -92 65.5 -157.5t157.5 -65.5 t157.5 65.5t65.5 157.5t-65.5 157.5t-157.5 65.5t-157.5 -65.5t-65.5 -157.5z" />
<glyph unicode="&#xa5;" horiz-adv-x="761" d="M8 1458h209l162 -579h4l162 579h209l-242 -735h201v-135h-234v-101h234v-135h-234v-352h-196v352h-234v135h234v101h-234v135h201z" />
<glyph unicode="&#xa6;" horiz-adv-x="454" d="M145 -358v716h164v-716h-164zM145 666v716h164v-716h-164z" />
<glyph unicode="&#xa7;" d="M68 530q0 177 37 246.5t151 104.5q-50 25 -79.5 50t-44.5 60t-19 69.5t-4 94.5q0 154 79.5 234.5t200.5 80.5q111 0 194 -74t83 -206v-94h-174v86q0 51 -27.5 88t-75.5 37q-60 0 -83 -40t-23 -110q0 -75 15 -102.5t81 -69.5l199 -129q73 -47 92.5 -105.5t19.5 -220.5 q0 -67 -3 -104.5t-12 -74.5t-29 -60t-51.5 -45t-82.5 -45q100 -51 127 -105.5t27 -183.5q0 -88 -11 -139.5t-41 -94.5q-35 -50 -99 -80t-134 -30q-79 0 -139 28.5t-92 74t-47 93.5t-15 97v86h174v-84q0 -55 32 -93t81 -38q62 0 89.5 38t27.5 121q0 75 -12.5 105t-53.5 55 l-242 148q-77 47 -96.5 111.5t-19.5 219.5zM276 436q0 -44 30 -76t73 -32q41 0 71.5 32t30.5 76v203q0 44 -30.5 76.5t-71.5 32.5q-43 0 -73 -32.5t-30 -76.5v-203z" />
<glyph unicode="&#xa8;" horiz-adv-x="380" d="M-68 1200v209h185v-209h-185zM264 1200v209h185v-209h-185z" />
<glyph unicode="&#xa9;" horiz-adv-x="1638" d="M78 729q0 151 58.5 288.5t157.5 236.5t236.5 157.5t288.5 58.5q202 0 372.5 -99t270 -269.5t99.5 -372.5t-99.5 -372.5t-270 -269.5t-372.5 -99q-151 0 -288.5 58.5t-236.5 157.5t-157.5 236.5t-58.5 288.5zM225 729q0 -123 47 -235t126.5 -193.5t189.5 -129.5t231 -48 t231 48t189.5 129.5t126.5 193.5t47 235t-47 235t-126.5 193.5t-189.5 129.5t-231 48t-231 -48t-189.5 -129.5t-126.5 -193.5t-47 -235zM408 729q0 204 116.5 333.5t315.5 129.5q144 0 246 -82t122 -227h-135q-18 74 -81.5 124t-149.5 50q-132 0 -209.5 -92.5t-77.5 -231.5 q0 -86 35.5 -160.5t103 -122t152.5 -47.5q86 0 149.5 53.5t77.5 131.5h135q-28 -144 -127.5 -232t-234.5 -88q-196 0 -317 132t-121 329z" />
<glyph unicode="&#xaa;" horiz-adv-x="491" d="M29 999q0 112 49 165t172 53q10 0 32.5 -2t32.5 -3v50q0 73 -67 73q-29 0 -50.5 -15t-25.5 -46h-135q6 91 61 143q59 53 150 53q90 0 152.5 -52t62.5 -144v-434h-148v63h-4q-30 -38 -56.5 -55t-72.5 -17q-27 0 -51 7t-48.5 24t-39 52.5t-14.5 84.5zM176 1022 q0 -59 66 -59q33 0 53 19.5t20 49.5v76q-28 4 -36 4q-103 0 -103 -90z" />
<glyph unicode="&#xab;" horiz-adv-x="872" d="M20 567l416 414v-209l-207 -205l207 -205v-208zM399 567l416 414v-209l-207 -205l207 -205v-208z" />
<glyph unicode="&#xac;" horiz-adv-x="1228" d="M96 641v164h1037v-574h-164v410h-873z" />
<glyph unicode="&#xad;" horiz-adv-x="796" d="M90 463v209h617v-209h-617z" />
<glyph unicode="&#xae;" horiz-adv-x="1638" d="M78 729q0 151 58.5 288.5t157.5 236.5t236.5 157.5t288.5 58.5q202 0 372.5 -99t270 -269.5t99.5 -372.5t-99.5 -372.5t-270 -269.5t-372.5 -99q-151 0 -288.5 58.5t-236.5 157.5t-157.5 236.5t-58.5 288.5zM225 729q0 -123 47 -235t126.5 -193.5t189.5 -129.5t231 -48 t231 48t189.5 129.5t126.5 193.5t47 235t-47 235t-126.5 193.5t-189.5 129.5t-231 48t-231 -48t-189.5 -129.5t-126.5 -193.5t-47 -235zM539 297v864h327q297 0 297 -243q0 -114 -60.5 -172t-160.5 -70l248 -379h-164l-248 375h-104v-375h-135zM674 795h153 q102 0 151.5 30.5t49.5 98.5q0 58 -42.5 86t-115.5 28h-196v-243z" />
<glyph unicode="&#xaf;" horiz-adv-x="380" d="M-90 1243v123h561v-123h-561z" />
<glyph unicode="&#xb0;" horiz-adv-x="532" d="M37 1241q0 95 67 162t162 67t162.5 -67t67.5 -162t-67.5 -162t-162.5 -67t-162 67t-67 162zM141 1241q0 -53 36.5 -89t88.5 -36t88.5 36t36.5 89t-36.5 89t-88.5 36t-88.5 -36t-36.5 -89z" />
<glyph unicode="&#xb1;" horiz-adv-x="1228" d="M96 0v164h1037v-164h-1037zM96 543v164h436v329h164v-329h437v-164h-437v-330h-164v330h-436z" />
<glyph unicode="&#xb2;" horiz-adv-x="495" d="M23 588v110l262 435q24 43 24 79v48q0 29 -19.5 46t-43.5 17q-25 0 -42.5 -17t-17.5 -46v-64h-163v74q0 86 64.5 143t160.5 57q94 0 159.5 -53t65.5 -133v-67q0 -50 -11 -81.5t-36 -72.5l-195 -328h242v-147h-450z" />
<glyph unicode="&#xb3;" horiz-adv-x="495" d="M23 772v70h163v-47q0 -31 17 -49.5t45 -18.5q26 0 43.5 18.5t17.5 42.5v107q0 46 -20.5 61t-83.5 15v135q61 0 82 14t22 56v86q0 27 -17 44t-44 17q-29 0 -45.5 -19.5t-16.5 -41.5v-54h-163v66q0 86 64 141t165 55q107 0 164 -60.5t57 -143.5v-84q0 -50 -16.5 -82.5 t-67.5 -59.5q48 -28 66 -62t18 -87v-105q0 -84 -56.5 -145t-168.5 -61q-95 0 -160 46.5t-65 145.5z" />
<glyph unicode="&#xb4;" horiz-adv-x="380" d="M57 1176l185 288h221l-270 -288h-136z" />
<glyph unicode="&#xb5;" horiz-adv-x="796" d="M86 -420v1458h209v-719q0 -58 26.5 -90t75.5 -32q57 0 81 35.5t24 107.5v698h209v-1038h-209v100h-4q-25 -54 -66 -86q-36 -26 -70 -26q-43 0 -63 20h-4v-428h-209z" />
<glyph unicode="&#xb6;" horiz-adv-x="909" d="M16 1065q0 194 120.5 293.5t326.5 99.5h352v-1878h-147v1774h-148v-1774h-147v1104q-137 0 -247 112.5t-110 268.5z" />
<glyph unicode="&#xb7;" horiz-adv-x="380" d="M59 610q0 54 38.5 92.5t92.5 38.5t93 -38.5t39 -92.5t-39 -92.5t-93 -38.5t-92.5 38.5t-38.5 92.5z" />
<glyph unicode="&#xb8;" horiz-adv-x="380" d="M-31 -420l35 86q83 -31 133 -31q44 0 77.5 18.5t33.5 65.5q0 34 -27.5 56t-64.5 22q-42 0 -80 -14l-35 41l133 176h94l-94 -123q40 4 64 4q92 0 133 -46.5t41 -106.5q0 -63 -40.5 -107t-95.5 -62t-116 -18q-82 0 -191 39z" />
<glyph unicode="&#xb9;" horiz-adv-x="495" d="M55 1223v147l135 88h164v-870h-164v723z" />
<glyph unicode="&#xba;" horiz-adv-x="491" d="M37 1034v234q0 89 57.5 145.5t151.5 56.5t151.5 -56.5t57.5 -145.5v-234q0 -89 -57.5 -146t-151.5 -57t-151.5 57t-57.5 146zM184 1036q0 -69 62 -69q61 0 61 69v228q0 71 -61 71q-62 0 -62 -71v-228z" />
<glyph unicode="&#xbb;" horiz-adv-x="872" d="M57 154v208l207 205l-207 205v209l416 -414zM436 154v208l207 205l-207 205v209l416 -414z" />
<glyph unicode="&#xbc;" horiz-adv-x="1136" d="M23 1223v147l135 88h164v-870h-164v723zM37 -35l895 1528h123l-895 -1528h-123zM596 127v127l201 620h164l-193 -612h121v236h164v-236h61v-135h-61v-127h-164v127h-293z" />
<glyph unicode="&#xbd;" horiz-adv-x="1136" d="M23 1223v147l135 88h164v-870h-164v723zM37 -35l895 1528h123l-895 -1528h-123zM659 0v111l267 434q24 43 24 80v47q0 29 -19.5 46t-43.5 17q-27 0 -45.5 -16.5t-18.5 -46.5v-64h-164v74q0 86 66 143.5t164 57.5q94 0 159.5 -53t65.5 -134v-67q0 -50 -11 -81.5t-36 -72.5 l-195 -328h242v-147h-455z" />
<glyph unicode="&#xbe;" horiz-adv-x="1136" d="M23 772v70h163v-47q0 -31 17 -49.5t45 -18.5q26 0 43.5 18.5t17.5 42.5v107q0 46 -20.5 61t-83.5 15v135q61 0 82 14t22 56v86q0 27 -17 44t-44 17q-29 0 -45.5 -19.5t-16.5 -41.5v-54h-163v66q0 86 64 141t165 55q107 0 164 -60.5t57 -143.5v-84q0 -50 -16.5 -82.5 t-67.5 -59.5q48 -28 66 -62t18 -87v-105q0 -84 -56.5 -145t-168.5 -61q-95 0 -160 46.5t-65 145.5zM76 -35l895 1528h123l-895 -1528h-123zM596 127v127l201 620h164l-193 -612h121v236h164v-236h61v-135h-61v-127h-164v127h-293z" />
<glyph unicode="&#xbf;" d="M66 -66q0 107 6 154t26 80l142 242q34 62 34 104v164h209v-191q0 -81 -51 -165l-131 -213q-27 -47 -27 -119v-109q0 -43 30 -73.5t73 -30.5q41 0 73.5 28t32.5 76v119h209v-121q0 -129 -92 -220t-223 -91q-75 0 -138 30.5t-104 86.5t-55 105.5t-14 143.5zM274 829v209 h209v-209h-209z" />
<glyph unicode="&#xc0;" horiz-adv-x="833" d="M4 0l326 1458h174l325 -1458h-208l-62 313h-285l-61 -313h-209zM145 1812h222l184 -288h-135zM311 510h209l-102 528h-4z" />
<glyph unicode="&#xc1;" horiz-adv-x="833" d="M4 0l326 1458h174l325 -1458h-208l-62 313h-285l-61 -313h-209zM285 1524l184 288h221l-270 -288h-135zM311 510h209l-102 528h-4z" />
<glyph unicode="&#xc2;" horiz-adv-x="833" d="M4 0l326 1458h174l325 -1458h-208l-62 313h-285l-61 -313h-209zM121 1524l201 288h192l201 -288h-160l-137 194l-137 -194h-160zM311 510h209l-102 528h-4z" />
<glyph unicode="&#xc3;" horiz-adv-x="833" d="M4 0l326 1458h174l325 -1458h-208l-62 313h-285l-61 -313h-209zM70 1542q21 106 68 166.5t138 60.5q34 0 154.5 -40.5t140.5 -40.5q42 0 65.5 25.5t25.5 66.5h104q-21 -106 -68.5 -167t-138.5 -61q-33 0 -153 41t-142 41q-41 0 -64.5 -25.5t-25.5 -66.5h-104zM311 510 h209l-102 528h-4z" />
<glyph unicode="&#xc4;" horiz-adv-x="833" d="M4 0l326 1458h174l325 -1458h-208l-62 313h-285l-61 -313h-209zM160 1548v209h184v-209h-184zM311 510h209l-102 528h-4zM492 1548v209h184v-209h-184z" />
<glyph unicode="&#xc5;" horiz-adv-x="833" d="M4 0l326 1458h174l325 -1458h-208l-62 313h-285l-61 -313h-209zM209 1710q0 86 61.5 147.5t147.5 61.5t147.5 -62t61.5 -147q0 -86 -61.5 -147.5t-147.5 -61.5t-147.5 62t-61.5 147zM293 1710q0 -52 36.5 -88.5t88.5 -36.5t88.5 36.5t36.5 88.5t-36.5 88.5t-88.5 36.5 t-88.5 -36.5t-36.5 -88.5zM311 510h209l-102 528h-4z" />
<glyph unicode="&#xc6;" horiz-adv-x="1251" d="M4 0l414 1458h796v-196h-413v-428h360v-197h-360v-428h413v-209h-622v313h-287l-80 -313h-221zM354 510h238v752h-49z" />
<glyph unicode="&#xc7;" horiz-adv-x="833" d="M86 332v803q0 144 95 239.5t245 95.5q145 0 240.5 -98t95.5 -250v-82h-209v70q0 64 -35.5 108t-93.5 44q-73 0 -101 -44t-28 -126v-746q0 -149 127 -149q52 0 91.5 34.5t39.5 112.5v72h209v-90q0 -120 -77.5 -215.5t-195.5 -118.5l-88 -115q40 4 64 4q92 0 133 -46.5 t41 -106.5q0 -63 -40.5 -107t-95.5 -62t-116 -18q-81 0 -190 39l34 86q83 -31 134 -31q44 0 77 18.5t33 65.5q0 34 -27.5 56t-64.5 22q-42 0 -80 -14l-35 41l125 164q-47 4 -89.5 16.5t-83 39t-70 64.5t-47 95.5t-17.5 128.5z" />
<glyph unicode="&#xc8;" d="M98 0v1458h623v-196h-414v-428h361v-197h-361v-428h414v-209h-623zM127 1812h221l184 -288h-135z" />
<glyph unicode="&#xc9;" d="M98 0v1458h623v-196h-414v-428h361v-197h-361v-428h414v-209h-623zM266 1524l185 288h221l-271 -288h-135z" />
<glyph unicode="&#xca;" d="M98 0v1458h623v-196h-414v-428h361v-197h-361v-428h414v-209h-623zM102 1524l201 288h193l200 -288h-159l-138 194l-137 -194h-160z" />
<glyph unicode="&#xcb;" d="M98 0v1458h623v-196h-414v-428h361v-197h-361v-428h414v-209h-623zM141 1548v209h185v-209h-185zM473 1548v209h184v-209h-184z" />
<glyph unicode="&#xcc;" horiz-adv-x="417" d="M-63 1812h221l184 -288h-135zM104 0v1458h209v-1458h-209z" />
<glyph unicode="&#xcd;" horiz-adv-x="417" d="M76 1524l184 288h221l-270 -288h-135zM104 0v1458h209v-1458h-209z" />
<glyph unicode="&#xce;" horiz-adv-x="417" d="M-88 1524l201 288h192l201 -288h-160l-137 194l-137 -194h-160zM104 0v1458h209v-1458h-209z" />
<glyph unicode="&#xcf;" horiz-adv-x="417" d="M-49 1548v209h184v-209h-184zM104 0v1458h209v-1458h-209zM283 1548v209h184v-209h-184z" />
<glyph unicode="&#xd0;" horiz-adv-x="872" d="M0 717v135h98v606h310q176 0 271 -99.5t95 -277.5v-682q0 -200 -99 -299.5t-286 -99.5h-291v717h-98zM307 197h96q87 0 124.5 43.5t37.5 138.5v702q0 91 -36.5 136t-125.5 45h-96v-410h144v-135h-144v-520z" />
<glyph unicode="&#xd1;" horiz-adv-x="909" d="M90 0v1458h201l315 -878h4v878h209v-1458h-196l-320 877h-4v-877h-209zM106 1542q21 106 68.5 166.5t138.5 60.5q34 0 154.5 -40.5t140.5 -40.5q41 0 64.5 25.5t25.5 66.5h105q-21 -106 -68.5 -167t-138.5 -61q-34 0 -154 41t-141 41q-41 0 -64.5 -25.5t-25.5 -66.5h-105 z" />
<glyph unicode="&#xd2;" horiz-adv-x="872" d="M86 344v770q0 86 30.5 155.5t81 112.5t112 65.5t126.5 22.5t126.5 -22.5t112 -65.5t81 -112.5t30.5 -155.5v-770q0 -86 -30.5 -155.5t-81 -112.5t-112 -65.5t-126.5 -22.5t-126.5 22.5t-112 65.5t-81 112.5t-30.5 155.5zM164 1812h221l184 -288h-135zM295 344 q0 -71 40 -109t101 -38t101.5 38t40.5 109v770q0 71 -40.5 109.5t-101.5 38.5t-101 -38t-40 -110v-770z" />
<glyph unicode="&#xd3;" horiz-adv-x="872" d="M86 344v770q0 86 30.5 155.5t81 112.5t112 65.5t126.5 22.5t126.5 -22.5t112 -65.5t81 -112.5t30.5 -155.5v-770q0 -86 -30.5 -155.5t-81 -112.5t-112 -65.5t-126.5 -22.5t-126.5 22.5t-112 65.5t-81 112.5t-30.5 155.5zM295 344q0 -71 40 -109t101 -38t101.5 38 t40.5 109v770q0 71 -40.5 109.5t-101.5 38.5t-101 -38t-40 -110v-770zM303 1524l184 288h222l-271 -288h-135z" />
<glyph unicode="&#xd4;" horiz-adv-x="872" d="M86 344v770q0 86 30.5 155.5t81 112.5t112 65.5t126.5 22.5t126.5 -22.5t112 -65.5t81 -112.5t30.5 -155.5v-770q0 -86 -30.5 -155.5t-81 -112.5t-112 -65.5t-126.5 -22.5t-126.5 22.5t-112 65.5t-81 112.5t-30.5 155.5zM139 1524l201 288h192l201 -288h-160l-137 194 l-137 -194h-160zM295 344q0 -71 40 -109t101 -38t101.5 38t40.5 109v770q0 71 -40.5 109.5t-101.5 38.5t-101 -38t-40 -110v-770z" />
<glyph unicode="&#xd5;" horiz-adv-x="872" d="M86 344v770q0 86 30.5 155.5t81 112.5t112 65.5t126.5 22.5t126.5 -22.5t112 -65.5t81 -112.5t30.5 -155.5v-770q0 -86 -30.5 -155.5t-81 -112.5t-112 -65.5t-126.5 -22.5t-126.5 22.5t-112 65.5t-81 112.5t-30.5 155.5zM88 1542q21 106 68.5 166.5t138.5 60.5 q34 0 154.5 -40.5t140.5 -40.5q41 0 64.5 25.5t25.5 66.5h104q-10 -51 -24.5 -89t-38 -71t-60 -50.5t-83.5 -17.5q-34 0 -154 41t-141 41q-41 0 -64.5 -25.5t-25.5 -66.5h-105zM295 344q0 -71 40 -109t101 -38t101.5 38t40.5 109v770q0 71 -40.5 109.5t-101.5 38.5t-101 -38 t-40 -110v-770z" />
<glyph unicode="&#xd6;" horiz-adv-x="872" d="M86 344v770q0 86 30.5 155.5t81 112.5t112 65.5t126.5 22.5t126.5 -22.5t112 -65.5t81 -112.5t30.5 -155.5v-770q0 -86 -30.5 -155.5t-81 -112.5t-112 -65.5t-126.5 -22.5t-126.5 22.5t-112 65.5t-81 112.5t-30.5 155.5zM178 1548v209h184v-209h-184zM295 344 q0 -71 40 -109t101 -38t101.5 38t40.5 109v770q0 71 -40.5 109.5t-101.5 38.5t-101 -38t-40 -110v-770zM510 1548v209h184v-209h-184z" />
<glyph unicode="&#xd7;" horiz-adv-x="1228" d="M137 158l363 360l-363 363l117 114l360 -360l363 360l115 -114l-361 -363l361 -360l-115 -117l-363 362l-360 -362z" />
<glyph unicode="&#xd8;" horiz-adv-x="872" d="M20 -33l103 211q-37 70 -37 166v770q0 86 30.5 155.5t81 112.5t112 65.5t126.5 22.5q153 0 256 -106l82 172l78 -45l-102 -211q36 -67 36 -166v-770q0 -86 -30.5 -155.5t-81 -112.5t-112 -65.5t-126.5 -22.5q-73 0 -140.5 27t-115.5 79l-82 -172zM295 334 q3 -66 42.5 -101.5t98.5 -35.5q61 0 101.5 38t40.5 109v576h-5zM295 537h4l279 587q-4 67 -44 102.5t-98 35.5q-61 0 -101 -38t-40 -110v-577z" />
<glyph unicode="&#xd9;" horiz-adv-x="872" d="M98 328v1130h209v-1110q0 -74 35.5 -112.5t93.5 -38.5t93.5 38.5t35.5 112.5v1110h209v-1130q0 -142 -99 -241t-239 -99t-239 99t-99 241zM164 1812h221l184 -288h-135z" />
<glyph unicode="&#xda;" horiz-adv-x="872" d="M98 328v1130h209v-1110q0 -74 35.5 -112.5t93.5 -38.5t93.5 38.5t35.5 112.5v1110h209v-1130q0 -142 -99 -241t-239 -99t-239 99t-99 241zM303 1524l184 288h222l-271 -288h-135z" />
<glyph unicode="&#xdb;" horiz-adv-x="872" d="M98 328v1130h209v-1110q0 -74 35.5 -112.5t93.5 -38.5t93.5 38.5t35.5 112.5v1110h209v-1130q0 -142 -99 -241t-239 -99t-239 99t-99 241zM139 1524l201 288h192l201 -288h-160l-137 194l-137 -194h-160z" />
<glyph unicode="&#xdc;" horiz-adv-x="872" d="M98 328v1130h209v-1110q0 -74 35.5 -112.5t93.5 -38.5t93.5 38.5t35.5 112.5v1110h209v-1130q0 -142 -99 -241t-239 -99t-239 99t-99 241zM178 1548v209h184v-209h-184zM510 1548v209h184v-209h-184z" />
<glyph unicode="&#xdd;" horiz-adv-x="794" d="M6 1458h221l168 -579h4l168 579h221l-286 -842v-616h-209v616zM264 1524l185 288h221l-271 -288h-135z" />
<glyph unicode="&#xde;" horiz-adv-x="833" d="M98 0v1458h209v-254h105q89 0 153 -23.5t117 -78.5q53 -56 73.5 -132.5t20.5 -209.5q0 -103 -12 -169.5t-47 -123.5q-92 -152 -303 -152h-107v-315h-209zM307 512h101q31 0 56 4t42.5 14.5t30.5 20.5t21 30t12.5 35t6.5 43t2.5 46.5t0.5 52.5t-0.5 50.5t-2 45.5t-6 44 t-12 36t-19.5 31.5t-29 22t-41 16t-54 4.5h-109v-496z" />
<glyph unicode="&#xdf;" horiz-adv-x="796" d="M86 0v1130q0 144 79 242t230 98q87 0 149.5 -28t98 -80t52 -117t16.5 -147q0 -109 -23 -158t-98 -96q121 -67 121 -209v-361q0 -74 -17 -127t-43 -83.5t-67.5 -48t-80.5 -22.5t-91 -5v196q47 0 68.5 22t21.5 83v389q0 38 -22 52.5t-68 14.5v185q50 0 70 16t20 64v164 q0 48 -21.5 74t-77.5 26q-59 0 -83.5 -40t-24.5 -140v-1094h-209z" />
<glyph unicode="&#xe0;" d="M51 264q0 93 15 156t52 108.5t101.5 66.5t161.5 21q16 0 49 -2.5t51 -3.5v109q0 123 -104 123q-42 0 -76 -28t-43 -77h-203q9 140 95 226q88 88 227 88q137 0 225 -85.5t88 -242.5v-723h-209v106h-4q-45 -63 -88 -90.5t-113 -27.5q-41 0 -76.5 11.5t-71 39.5t-56.5 86 t-21 139zM106 1464h222l184 -288h-135zM260 305q0 -61 29 -97t80 -36q53 0 82.5 35t29.5 98v141q-40 7 -57 7q-74 0 -119 -35t-45 -113z" />
<glyph unicode="&#xe1;" d="M51 264q0 93 15 156t52 108.5t101.5 66.5t161.5 21q16 0 49 -2.5t51 -3.5v109q0 123 -104 123q-42 0 -76 -28t-43 -77h-203q9 140 95 226q88 88 227 88q137 0 225 -85.5t88 -242.5v-723h-209v106h-4q-45 -63 -88 -90.5t-113 -27.5q-41 0 -76.5 11.5t-71 39.5t-56.5 86 t-21 139zM246 1176l184 288h221l-270 -288h-135zM260 305q0 -61 29 -97t80 -36q53 0 82.5 35t29.5 98v141q-40 7 -57 7q-74 0 -119 -35t-45 -113z" />
<glyph unicode="&#xe2;" d="M51 264q0 93 15 156t52 108.5t101.5 66.5t161.5 21q16 0 49 -2.5t51 -3.5v109q0 123 -104 123q-42 0 -76 -28t-43 -77h-203q9 140 95 226q88 88 227 88q137 0 225 -85.5t88 -242.5v-723h-209v106h-4q-45 -63 -88 -90.5t-113 -27.5q-41 0 -76.5 11.5t-71 39.5t-56.5 86 t-21 139zM82 1176l201 288h192l201 -288h-160l-137 194l-137 -194h-160zM260 305q0 -61 29 -97t80 -36q53 0 82.5 35t29.5 98v141q-40 7 -57 7q-74 0 -119 -35t-45 -113z" />
<glyph unicode="&#xe3;" d="M31 1194q21 106 68.5 166.5t138.5 60.5q34 0 154 -41t140 -41q42 0 65.5 26t25.5 67h104q-21 -106 -68.5 -167t-138.5 -61q-34 0 -154 41t-141 41q-41 0 -64.5 -25.5t-25.5 -66.5h-104zM51 264q0 93 15 156t52 108.5t101.5 66.5t161.5 21q16 0 49 -2.5t51 -3.5v109 q0 123 -104 123q-42 0 -76 -28t-43 -77h-203q9 140 95 226q88 88 227 88q137 0 225 -85.5t88 -242.5v-723h-209v106h-4q-45 -63 -88 -90.5t-113 -27.5q-41 0 -76.5 11.5t-71 39.5t-56.5 86t-21 139zM260 305q0 -61 29 -97t80 -36q53 0 82.5 35t29.5 98v141q-40 7 -57 7 q-74 0 -119 -35t-45 -113z" />
<glyph unicode="&#xe4;" d="M51 264q0 93 15 156t52 108.5t101.5 66.5t161.5 21q16 0 49 -2.5t51 -3.5v109q0 123 -104 123q-42 0 -76 -28t-43 -77h-203q9 140 95 226q88 88 227 88q137 0 225 -85.5t88 -242.5v-723h-209v106h-4q-45 -63 -88 -90.5t-113 -27.5q-41 0 -76.5 11.5t-71 39.5t-56.5 86 t-21 139zM121 1200v209h184v-209h-184zM260 305q0 -61 29 -97t80 -36q53 0 82.5 35t29.5 98v141q-40 7 -57 7q-74 0 -119 -35t-45 -113zM453 1200v209h184v-209h-184z" />
<glyph unicode="&#xe5;" d="M51 264q0 93 15 156t52 108.5t101.5 66.5t161.5 21q16 0 49 -2.5t51 -3.5v109q0 123 -104 123q-42 0 -76 -28t-43 -77h-203q9 140 95 226q88 88 227 88q137 0 225 -85.5t88 -242.5v-723h-209v106h-4q-45 -63 -88 -90.5t-113 -27.5q-41 0 -76.5 11.5t-71 39.5t-56.5 86 t-21 139zM170 1352q0 86 61.5 147.5t147.5 61.5t147.5 -62t61.5 -147q0 -86 -61.5 -147.5t-147.5 -61.5t-147.5 62t-61.5 147zM254 1352q0 -52 36 -88.5t89 -36.5t89 36.5t36 88.5t-36 88.5t-89 36.5t-89 -36.5t-36 -88.5zM260 305q0 -61 29 -97t80 -36q53 0 82.5 35 t29.5 98v141q-40 7 -57 7q-74 0 -119 -35t-45 -113z" />
<glyph unicode="&#xe6;" horiz-adv-x="1171" d="M51 264q0 93 15 156t52 108.5t101.5 66.5t161.5 21q16 0 49 -2.5t51 -3.5v109q0 123 -104 123q-42 0 -76 -28t-43 -77h-203q9 140 96 227t226 87q120 0 207 -74q84 74 209 74q142 0 226.5 -92t84.5 -232v-287h-414v-141q0 -49 27.5 -75.5t75.5 -26.5q93 0 102 104h209 q0 -135 -87.5 -223.5t-223.5 -89.5q-97 -1 -168.5 40.5t-104.5 106.5q-36 -72 -100.5 -109.5t-143.5 -37.5q-41 0 -76.5 11.5t-71 39.5t-56.5 86t-21 139zM260 305q0 -61 29 -97t80 -36q53 0 82.5 35t29.5 98v141q-40 7 -57 7q-74 0 -119 -35t-45 -113zM690 604h205v119 q0 58 -27 88.5t-75 30.5t-75.5 -30.5t-27.5 -88.5v-119z" />
<glyph unicode="&#xe7;" d="M98 348v342q0 140 39 211q38 69 109 109.5t164 40.5q143 0 227 -92.5t84 -239.5h-209q0 123 -102 123q-48 0 -75.5 -30.5t-27.5 -88.5v-424q0 -49 27.5 -75.5t75.5 -26.5q93 0 102 104h209q0 -134 -84 -221q-73 -76 -186 -88l-89 -115q40 4 64 4q92 0 133 -46.5 t41 -106.5q0 -63 -40.5 -107t-95.5 -62t-116 -18q-81 0 -190 39l35 86q83 -31 133 -31q44 0 77 18.5t33 65.5q0 34 -27.5 56t-64.5 22q-42 0 -80 -14l-35 41l129 168q-75 10 -132.5 48.5t-88.5 96.5q-39 71 -39 211z" />
<glyph unicode="&#xe8;" d="M68 348v342q0 142 38 211t109 109.5t164 40.5q142 0 226.5 -92t84.5 -232v-287h-414v-141q0 -49 27.5 -75.5t75.5 -26.5q93 0 102 104h209q0 -134 -84 -221q-89 -92 -227 -92q-93 0 -164 40t-109 109t-38 211zM106 1464h222l184 -288h-135zM276 604h205v119 q0 58 -27 88.5t-75 30.5t-75.5 -30.5t-27.5 -88.5v-119z" />
<glyph unicode="&#xe9;" d="M68 348v342q0 142 38 211t109 109.5t164 40.5q142 0 226.5 -92t84.5 -232v-287h-414v-141q0 -49 27.5 -75.5t75.5 -26.5q93 0 102 104h209q0 -134 -84 -221q-89 -92 -227 -92q-93 0 -164 40t-109 109t-38 211zM246 1176l184 288h221l-270 -288h-135zM276 604h205v119 q0 58 -27 88.5t-75 30.5t-75.5 -30.5t-27.5 -88.5v-119z" />
<glyph unicode="&#xea;" d="M68 348v342q0 142 38 211t109 109.5t164 40.5q142 0 226.5 -92t84.5 -232v-287h-414v-141q0 -49 27.5 -75.5t75.5 -26.5q93 0 102 104h209q0 -134 -84 -221q-89 -92 -227 -92q-93 0 -164 40t-109 109t-38 211zM82 1176l201 288h192l201 -288h-160l-137 194l-137 -194 h-160zM276 604h205v119q0 58 -27 88.5t-75 30.5t-75.5 -30.5t-27.5 -88.5v-119z" />
<glyph unicode="&#xeb;" d="M68 348v342q0 142 38 211t109 109.5t164 40.5q142 0 226.5 -92t84.5 -232v-287h-414v-141q0 -49 27.5 -75.5t75.5 -26.5q93 0 102 104h209q0 -134 -84 -221q-89 -92 -227 -92q-93 0 -164 40t-109 109t-38 211zM121 1200v209h184v-209h-184zM276 604h205v119 q0 58 -27 88.5t-75 30.5t-75.5 -30.5t-27.5 -88.5v-119zM453 1200v209h184v-209h-184z" />
<glyph unicode="&#xec;" horiz-adv-x="380" d="M-82 1464h221l185 -288h-136zM86 0v1038h209v-1038h-209z" />
<glyph unicode="&#xed;" horiz-adv-x="380" d="M57 1176l185 288h221l-270 -288h-136zM86 0v1038h209v-1038h-209z" />
<glyph unicode="&#xee;" horiz-adv-x="380" d="M-106 1176l200 288h193l200 -288h-159l-138 194l-137 -194h-159zM86 0v1038h209v-1038h-209z" />
<glyph unicode="&#xef;" horiz-adv-x="380" d="M-68 1200v209h185v-209h-185zM86 0v1038h209v-1038h-209zM264 1200v209h185v-209h-185z" />
<glyph unicode="&#xf0;" d="M68 348v342q0 142 38 211t109 109.5t164 40.5q29 0 56 -13t42 -34l4 4q-37 153 -96 227l-152 -72l-57 82l141 66q-56 48 -157 88l170 90q95 -33 164 -96l139 65l57 -82l-129 -59q129 -171 129 -481v-488q0 -140 -39 -211q-38 -69 -108.5 -109t-163.5 -40t-164 40 t-109 109t-38 211zM276 315q0 -57 27.5 -87.5t75.5 -30.5t75 30t27 88v408q0 58 -27 88.5t-75 30.5t-75.5 -30.5t-27.5 -88.5v-408z" />
<glyph unicode="&#xf1;" horiz-adv-x="796" d="M51 1194q21 106 68.5 166.5t138.5 60.5q34 0 154.5 -41t140.5 -41q41 0 64.5 26t25.5 67h105q-21 -106 -68.5 -167t-138.5 -61q-33 0 -153 41t-142 41q-41 0 -64.5 -25.5t-25.5 -66.5h-105zM86 0v1038h209v-100h4q74 113 197 113q89 0 152 -62.5t63 -191.5v-797h-209v719 q0 58 -27 90.5t-76 32.5q-56 0 -80 -36t-24 -108v-698h-209z" />
<glyph unicode="&#xf2;" d="M68 348v342q0 142 38 211t109 109.5t164 40.5t163.5 -40.5t108.5 -109.5q39 -71 39 -211v-342q0 -140 -39 -211q-38 -69 -108.5 -109t-163.5 -40t-164 40t-109 109t-38 211zM106 1464h222l184 -288h-135zM276 315q0 -57 27.5 -87.5t75.5 -30.5t75 30t27 88v408 q0 58 -27 88.5t-75 30.5t-75.5 -30.5t-27.5 -88.5v-408z" />
<glyph unicode="&#xf3;" d="M68 348v342q0 142 38 211t109 109.5t164 40.5t163.5 -40.5t108.5 -109.5q39 -71 39 -211v-342q0 -140 -39 -211q-38 -69 -108.5 -109t-163.5 -40t-164 40t-109 109t-38 211zM246 1176l184 288h221l-270 -288h-135zM276 315q0 -57 27.5 -87.5t75.5 -30.5t75 30t27 88v408 q0 58 -27 88.5t-75 30.5t-75.5 -30.5t-27.5 -88.5v-408z" />
<glyph unicode="&#xf4;" d="M68 348v342q0 142 38 211t109 109.5t164 40.5t163.5 -40.5t108.5 -109.5q39 -71 39 -211v-342q0 -140 -39 -211q-38 -69 -108.5 -109t-163.5 -40t-164 40t-109 109t-38 211zM82 1176l201 288h192l201 -288h-160l-137 194l-137 -194h-160zM276 315q0 -57 27.5 -87.5 t75.5 -30.5t75 30t27 88v408q0 58 -27 88.5t-75 30.5t-75.5 -30.5t-27.5 -88.5v-408z" />
<glyph unicode="&#xf5;" d="M31 1194q21 106 68.5 166.5t138.5 60.5q34 0 154 -41t140 -41q42 0 65.5 26t25.5 67h104q-21 -106 -68.5 -167t-138.5 -61q-34 0 -154 41t-141 41q-41 0 -64.5 -25.5t-25.5 -66.5h-104zM68 348v342q0 142 38 211t109 109.5t164 40.5t163.5 -40.5t108.5 -109.5 q39 -71 39 -211v-342q0 -140 -39 -211q-38 -69 -108.5 -109t-163.5 -40t-164 40t-109 109t-38 211zM276 315q0 -57 27.5 -87.5t75.5 -30.5t75 30t27 88v408q0 58 -27 88.5t-75 30.5t-75.5 -30.5t-27.5 -88.5v-408z" />
<glyph unicode="&#xf6;" d="M68 348v342q0 142 38 211t109 109.5t164 40.5t163.5 -40.5t108.5 -109.5q39 -71 39 -211v-342q0 -140 -39 -211q-38 -69 -108.5 -109t-163.5 -40t-164 40t-109 109t-38 211zM121 1200v209h184v-209h-184zM276 315q0 -57 27.5 -87.5t75.5 -30.5t75 30t27 88v408 q0 58 -27 88.5t-75 30.5t-75.5 -30.5t-27.5 -88.5v-408zM453 1200v209h184v-209h-184z" />
<glyph unicode="&#xf7;" horiz-adv-x="1228" d="M96 436v164h1037v-164h-1037zM483 94q0 54 38.5 92.5t92.5 38.5t92.5 -38.5t38.5 -92.5t-38.5 -92.5t-92.5 -38.5t-92.5 38.5t-38.5 92.5zM483 942q0 54 38.5 92.5t92.5 38.5t92.5 -38.5t38.5 -92.5t-38.5 -92.5t-92.5 -38.5t-92.5 38.5t-38.5 92.5z" />
<glyph unicode="&#xf8;" d="M8 -25l101 170q-41 80 -41 179v391q0 149 84 242.5t227 93.5q134 0 217 -86l84 141l70 -43l-101 -170q41 -80 41 -178v-391q0 -149 -84 -242.5t-227 -93.5q-134 0 -217 86l-84 -142zM276 428h5l194 334q-13 80 -96 80q-48 0 -75.5 -30.5t-27.5 -88.5v-295zM283 276 q6 -38 31 -58.5t65 -20.5q48 0 75 30t27 88v295h-4z" />
<glyph unicode="&#xf9;" horiz-adv-x="796" d="M86 242v796h209v-719q0 -58 26.5 -90t75.5 -32q57 0 81 35.5t24 107.5v698h209v-1038h-209v100h-4q-73 -112 -197 -112q-89 0 -152 62.5t-63 191.5zM127 1464h221l184 -288h-135z" />
<glyph unicode="&#xfa;" horiz-adv-x="796" d="M86 242v796h209v-719q0 -58 26.5 -90t75.5 -32q57 0 81 35.5t24 107.5v698h209v-1038h-209v100h-4q-73 -112 -197 -112q-89 0 -152 62.5t-63 191.5zM266 1176l185 288h221l-271 -288h-135z" />
<glyph unicode="&#xfb;" horiz-adv-x="796" d="M86 242v796h209v-719q0 -58 26.5 -90t75.5 -32q57 0 81 35.5t24 107.5v698h209v-1038h-209v100h-4q-73 -112 -197 -112q-89 0 -152 62.5t-63 191.5zM102 1176l201 288h193l200 -288h-159l-138 194l-137 -194h-160z" />
<glyph unicode="&#xfc;" horiz-adv-x="796" d="M86 242v796h209v-719q0 -58 26.5 -90t75.5 -32q57 0 81 35.5t24 107.5v698h209v-1038h-209v100h-4q-73 -112 -197 -112q-89 0 -152 62.5t-63 191.5zM141 1200v209h185v-209h-185zM473 1200v209h184v-209h-184z" />
<glyph unicode="&#xfd;" horiz-adv-x="720" d="M-2 1038h221l143 -647h5l141 647h215l-299 -1218q-58 -240 -289 -240h-57v197h47q45 0 69 17.5t44.5 74t44.5 178.5zM227 1176l185 288h221l-271 -288h-135z" />
<glyph unicode="&#xfe;" horiz-adv-x="796" d="M86 -420v1878h209v-514q35 39 54 56.5t57.5 34t87.5 16.5q128 0 182 -99q35 -63 35 -223v-395q0 -115 -6.5 -167.5t-26.5 -84.5q-60 -94 -186 -94q-123 0 -193 106h-4v-514h-209zM295 309q0 -49 29.5 -80.5t74.5 -31.5q103 0 103 122v381q0 66 -25.5 104t-77.5 38 q-47 0 -75.5 -36t-28.5 -93v-404z" />
<glyph unicode="&#xff;" horiz-adv-x="720" d="M-2 1038h221l143 -647h5l141 647h215l-299 -1218q-58 -240 -289 -240h-57v197h47q45 0 69 17.5t44.5 74t44.5 178.5zM102 1200v209h185v-209h-185zM434 1200v209h184v-209h-184z" />
<glyph unicode="&#x152;" horiz-adv-x="1249" d="M98 334v790q0 144 85 245t229 101q119 0 174 -86h4v74h622v-196h-413v-428h360v-197h-360v-428h413v-209h-622v70h-4q-27 -36 -75.5 -59t-98.5 -23q-144 0 -229 101t-85 245zM307 324q0 -63 39.5 -107.5t102.5 -44.5t102 44.5t39 107.5v811q0 63 -39 107t-102 44 t-102.5 -44t-39.5 -107v-811z" />
<glyph unicode="&#x153;" horiz-adv-x="1171" d="M68 348v342q0 142 38 211t109 109.5t164 40.5q123 0 207 -70q79 70 207 70q142 0 226.5 -92t84.5 -232v-287h-414v-141q0 -49 27.5 -75.5t75.5 -26.5q93 0 102 104h209q0 -134 -84 -221q-89 -92 -227 -92q-62 0 -122 18t-93 53q-34 -33 -87 -52t-112 -19q-93 0 -164 40 t-109 109t-38 211zM276 315q0 -57 27.5 -87.5t75.5 -30.5t75 30t27 88v408q0 58 -27 88.5t-75 30.5t-75.5 -30.5t-27.5 -88.5v-408zM690 604h205v119q0 58 -27 88.5t-75 30.5t-75.5 -30.5t-27.5 -88.5v-119z" />
<glyph unicode="&#x178;" horiz-adv-x="794" d="M6 1458h221l168 -579h4l168 579h221l-286 -842v-616h-209v616zM139 1548v209h185v-209h-185zM471 1548v209h184v-209h-184z" />
<glyph unicode="&#x2c6;" horiz-adv-x="380" d="M-106 1176l200 288h193l200 -288h-159l-138 194l-137 -194h-159z" />
<glyph unicode="&#x2dc;" horiz-adv-x="380" d="M-158 1194q21 106 68.5 166.5t138.5 60.5q34 0 154.5 -41t140.5 -41q41 0 64.5 26t25.5 67h105q-21 -106 -68.5 -167t-138.5 -61q-34 0 -153.5 41t-141.5 41q-41 0 -64.5 -25.5t-25.5 -66.5h-105z" />
<glyph unicode="&#x2000;" horiz-adv-x="959" />
<glyph unicode="&#x2001;" horiz-adv-x="1919" />
<glyph unicode="&#x2002;" horiz-adv-x="959" />
<glyph unicode="&#x2003;" horiz-adv-x="1919" />
<glyph unicode="&#x2004;" horiz-adv-x="639" />
<glyph unicode="&#x2005;" horiz-adv-x="479" />
<glyph unicode="&#x2006;" horiz-adv-x="319" />
<glyph unicode="&#x2007;" horiz-adv-x="319" />
<glyph unicode="&#x2008;" horiz-adv-x="239" />
<glyph unicode="&#x2009;" horiz-adv-x="383" />
<glyph unicode="&#x200a;" horiz-adv-x="106" />
<glyph unicode="&#x2010;" horiz-adv-x="796" d="M90 463v209h617v-209h-617z" />
<glyph unicode="&#x2011;" horiz-adv-x="796" d="M90 463v209h617v-209h-617z" />
<glyph unicode="&#x2012;" horiz-adv-x="796" d="M90 463v209h617v-209h-617z" />
<glyph unicode="&#x2013;" horiz-adv-x="1024" d="M0 469v197h1024v-197h-1024z" />
<glyph unicode="&#x2014;" horiz-adv-x="2048" d="M0 469v197h2048v-197h-2048z" />
<glyph unicode="&#x2018;" horiz-adv-x="380" d="M86 1098v209l209 151v-360h-209z" />
<glyph unicode="&#x2019;" horiz-adv-x="380" d="M86 1098v360h209v-209z" />
<glyph unicode="&#x201a;" horiz-adv-x="380" d="M86 -152v361h209v-209z" />
<glyph unicode="&#x201c;" horiz-adv-x="569" d="M37 1098v209l209 151v-360h-209zM324 1098v209l208 151v-360h-208z" />
<glyph unicode="&#x201d;" horiz-adv-x="569" d="M37 1098v360h209v-209zM324 1098v360h208v-209z" />
<glyph unicode="&#x201e;" horiz-adv-x="569" d="M37 -152v361h209v-209zM324 -152v361h208v-209z" />
<glyph unicode="&#x2022;" horiz-adv-x="1024" d="M147 729q0 151 107 258t258 107t258 -107t107 -258t-107 -257.5t-258 -106.5t-258 106.5t-107 257.5z" />
<glyph unicode="&#x2026;" horiz-adv-x="2048" d="M238 0v209h208v-209h-208zM920 0v209h208v-209h-208zM1602 0v209h208v-209h-208z" />
<glyph unicode="&#x202f;" horiz-adv-x="383" />
<glyph unicode="&#x2039;" horiz-adv-x="493" d="M20 567l416 414v-209l-207 -205l207 -205v-208z" />
<glyph unicode="&#x203a;" horiz-adv-x="493" d="M57 154v208l207 205l-207 205v209l416 -414z" />
<glyph unicode="&#x205f;" horiz-adv-x="479" />
<glyph unicode="&#x20ac;" horiz-adv-x="761" d="M33 502l41 162h65q-2 18 -2 69q0 43 2 68h-106l41 160h78q40 507 354 507q67 0 117 -14.5t75 -32.5v-194q-51 51 -155 51q-86 0 -132 -77.5t-55 -239.5h293l-41 -160h-262v-68v-69h227l-41 -162h-176q9 -169 56 -246.5t131 -77.5q106 0 155 49v-198q-53 -39 -194 -39 q-152 0 -238.5 121t-109.5 391h-123z" />
<glyph unicode="&#x2122;" horiz-adv-x="2027" d="M80 1323v135h668v-135h-261v-709h-147v709h-260zM850 614v844h233l240 -616l240 616h233v-844h-147v709h-4l-281 -709h-84l-279 709h-4v-709h-147z" />
<glyph unicode="&#xe000;" horiz-adv-x="1034" d="M0 0v1034h1034v-1034h-1034z" />
</font>
</defs>
</svg>
