<?xml version="1.0" standalone="no"?>
<!DOCTYPE svg PUBLIC "-//W3C//DTD SVG 1.1//EN" "http://www.w3.org/Graphics/SVG/1.1/DTD/svg11.dtd" >
<svg xmlns="http://www.w3.org/2000/svg">
<metadata></metadata>
<defs>
<font id="proxima_nova_regular_italicIt" horiz-adv-x="1171" >
<font-face units-per-em="2048" ascent="1638" descent="-410" />
<missing-glyph horiz-adv-x="530" />
<glyph horiz-adv-x="2048" />
<glyph horiz-adv-x="2048" />
<glyph unicode="&#xd;" horiz-adv-x="681" />
<glyph unicode=" "  horiz-adv-x="530" />
<glyph unicode="&#x09;" horiz-adv-x="530" />
<glyph unicode="&#xa0;" horiz-adv-x="530" />
<glyph unicode="!" horiz-adv-x="471" d="M33 84q0 49 36 85t87 36q41 0 72 -31q30 -30 30 -74q0 -52 -36 -86q-35 -34 -87 -34q-44 0 -73 29t-29 75zM145 383l185 983h192l-250 -983h-127z" />
<glyph unicode="&#x22;" horiz-adv-x="704" d="M238 844q14 129 20 203q3 26 7 76q3 44 6 70l5 53q1 8 2 17t1 11q5 51 33 81q30 31 77 31q35 0 58 -23q24 -24 24 -63q0 -13 -4 -25t-6 -22l-3 -7q-3 -8 -5 -15q-6 -18 -18 -48q-8 -19 -23 -67q-10 -33 -27 -74l-72 -198h-75zM539 844q14 129 20 203q3 26 7 76q4 44 6 70 l6 53q0 5 0.5 12t1 10.5t0.5 5.5q5 51 33 81q30 32 77 32q35 0 59 -24q23 -23 23 -63q0 -13 -4 -25q-6 -20 -8 -22q0 -5 -7 -22q-7 -18 -18 -48l-23 -67l-26 -74l-72 -198h-75z" />
<glyph unicode="#" horiz-adv-x="1210" d="M16 371l58 108h221l225 408h-221l55 106h228l202 373h127l-204 -373h225l205 373h125l-207 -373h219l-53 -106h-224l-229 -408h227l-57 -108h-229l-205 -371h-125l207 371h-228l-204 -371h-127l206 371h-217zM420 479h223l227 408h-225z" />
<glyph unicode="$" horiz-adv-x="1214" d="M43 221l117 121q52 -73 134 -126t179 -75l111 494q-59 24 -128 57q-57 27 -112 72q-50 41 -80 96q-31 57 -31 129q0 80 36 152q35 70 101 127q63 55 153 88q88 33 196 33q10 0 15 -1q10 -2 18 -2l41 187h125l-46 -201q109 -23 197 -75q89 -53 141 -126l-114 -118 q-44 62 -115 105q-67 40 -143 61l-99 -447q66 -28 129 -60q65 -33 114 -74q53 -45 81 -98q31 -59 31 -132q0 -82 -33 -160q-34 -80 -95 -138q-64 -61 -156 -98t-214 -37q-12 0 -17 1t-18 1l-39 -182h-125l43 195q-133 24 -238 86q-104 62 -159 145zM416 1014q0 -70 60 -114 q59 -43 149 -81l92 418h-19q-58 0 -111 -18q-48 -17 -90 -50q-40 -32 -60 -71q-21 -40 -21 -84zM596 127h14q81 0 138 24q59 25 93 60q35 36 53 82q17 43 17 88q0 76 -61 122q-59 45 -152 85z" />
<glyph unicode="%" horiz-adv-x="1499" d="M152 0l1173 1366h115l-1176 -1366h-112zM178 989q0 89 30 162t81 126t117 81q65 28 137 28q65 0 119 -19q56 -20 96 -55q41 -37 65 -87q25 -53 25 -115q0 -91 -30 -163t-80 -125q-49 -52 -116 -81q-65 -28 -139 -28q-61 0 -117 19q-59 20 -98 55q-41 37 -65 87 q-25 53 -25 115zM301 999q0 -78 52 -130t134 -52q46 0 92 22q43 21 76 58q35 39 53 89q19 51 19 114q0 77 -53 130q-52 52 -135 52q-47 0 -90 -21q-42 -20 -76 -59q-33 -37 -52 -89q-20 -54 -20 -114zM727 252q0 88 30 162t81 126q52 53 116 81q65 28 138 28q64 0 118 -19 q55 -19 98 -56q42 -36 66 -87q25 -53 25 -114q0 -91 -30 -163q-30 -73 -81 -125q-51 -53 -117 -81q-67 -29 -137 -29q-62 0 -119 20q-56 20 -97 55q-42 36 -66 87q-25 53 -25 115zM850 262q0 -78 52 -130t134 -52q48 0 91 21q44 21 77 59q33 37 52 89q20 54 20 113 q0 78 -53 131q-52 52 -136 52q-44 0 -90 -22q-42 -20 -75 -58q-35 -39 -53 -89q-19 -51 -19 -114z" />
<glyph unicode="&#x26;" horiz-adv-x="1314" d="M33 317q0 100 34 171q36 76 89 127q57 56 128 94q72 39 150 69q-24 65 -35 120q-12 58 -12 118q0 73 31 143q30 68 83 119q54 52 121 80q68 28 144 28q62 0 117 -15q52 -14 97 -46q42 -30 66 -77q23 -45 23 -105q0 -90 -38 -154q-37 -63 -100 -109q-65 -48 -141 -81 q-106 -46 -161 -66q46 -101 104 -194l66 -111q27 -47 63 -100q78 85 131 161q60 87 88 140l117 -72q-54 -82 -119 -169q-72 -97 -143 -169l78 -105l88 -114h-195l-43 53q-20 25 -45 62q-88 -66 -177 -102q-94 -38 -198 -38q-81 0 -160 22q-74 21 -131 64q-56 43 -88 107 t-32 149zM205 338q0 -60 21 -104q20 -41 58 -73q34 -29 82 -44q46 -15 97 -15q72 0 144 33q71 32 138 86l-84 124q-36 54 -61 99q-29 50 -64 117l-57 111q-52 -25 -107 -58q-51 -31 -87 -70q-38 -41 -59 -90t-21 -116zM547 1016q0 -43 10 -87q11 -47 27 -93q68 24 129 51 q64 28 107 60q49 36 74 77q28 45 28 102q0 70 -45 106t-107 36q-37 0 -79 -17q-39 -16 -71 -48t-53 -79q-20 -44 -20 -108z" />
<glyph unicode="'" horiz-adv-x="407" d="M238 844q14 129 20 203q3 26 7 76q3 44 6 70l5 53q1 8 2 17t1 11q5 51 33 81q30 31 77 31q35 0 58 -23q24 -24 24 -63q0 -13 -4 -25t-6 -22l-3 -7q-3 -8 -5 -15q-6 -18 -18 -48q-8 -19 -23 -67q-10 -33 -27 -74l-72 -198h-75z" />
<glyph unicode="(" horiz-adv-x="507" d="M51 186q0 322 135 634q135 313 392 583l79 -78q-208 -272 -326 -567q-118 -294 -118 -629q0 -115 21 -240q19 -116 55 -235l-109 -62q-59 119 -95 275q-34 149 -34 319z" />
<glyph unicode=")" horiz-adv-x="507" d="M-152 -330q209 274 327 568t118 628q0 110 -22 240q-21 123 -54 235l109 62q59 -118 95 -274q34 -148 34 -320q0 -320 -136 -634q-136 -315 -391 -583z" />
<glyph unicode="*" horiz-adv-x="696" d="M176 1016l234 84l-185 127l64 73l168 -145l39 231h96l-66 -239l226 104l26 -84l-229 -84l182 -127l-63 -73l-170 145l-39 -231h-94l65 239l-225 -102z" />
<glyph unicode="+" horiz-adv-x="1021" d="M90 637l23 106h393l92 424h119l-94 -424h393l-25 -106h-391l-98 -436h-117l96 436h-391z" />
<glyph unicode="," horiz-adv-x="471" d="M-37 -180q58 30 106 75q50 47 66 97h-16q-35 0 -62 24q-26 23 -26 68q0 49 38 85q37 36 85 36q44 0 76 -30t32 -89q0 -50 -19 -97q-18 -45 -52 -93q-32 -46 -74 -82q-45 -39 -90 -62z" />
<glyph unicode="-" horiz-adv-x="614" d="M45 428l29 135h491l-28 -135h-492z" />
<glyph unicode="." horiz-adv-x="473" d="M33 84q0 49 36 85t87 36q41 0 72 -31q30 -30 30 -74q0 -52 -36 -86q-35 -34 -87 -34q-44 0 -73 29t-29 75z" />
<glyph unicode="/" horiz-adv-x="606" d="M-123 -41l805 1448h129l-807 -1448h-127z" />
<glyph unicode="0" horiz-adv-x="1253" d="M121 508q0 154 45 310t128 283q83 126 203 206q119 79 269 79q110 0 189 -36q84 -38 141 -107q58 -70 86 -167q28 -96 28 -220q0 -152 -44 -311q-43 -156 -127 -284q-83 -127 -201 -206q-119 -80 -269 -80q-107 0 -191 38q-83 38 -140 107q-57 70 -87 167q-30 99 -30 221 zM293 498q0 -83 16 -148q17 -68 51 -117q33 -47 91 -77q56 -29 133 -29q105 0 190 71q83 70 142 180q62 115 90 239q30 131 30 249q0 80 -15 148q-15 66 -50 117q-34 49 -90 76q-58 28 -133 28q-106 0 -191 -71q-84 -70 -142 -178q-59 -108 -90 -238q-32 -133 -32 -250z" />
<glyph unicode="1" horiz-adv-x="694" d="M158 1014l417 352h150l-301 -1366h-170l252 1143l-270 -234z" />
<glyph unicode="2" horiz-adv-x="1204" d="M0 0l37 168l379 239q182 119 299 218q127 107 195 201q71 98 71 194q0 102 -83 159q-81 56 -212 56q-118 0 -202 -37q-87 -38 -148 -96l-80 121q77 73 195 118q117 45 245 45q90 0 174 -21q83 -21 149 -67q64 -44 103 -111q39 -66 39 -159q0 -117 -69 -228t-188 -221 q-124 -115 -274 -217q-132 -90 -329 -210h670l-33 -152h-938z" />
<glyph unicode="3" horiz-adv-x="1140" d="M-6 260l123 96q53 -109 163 -169t234 -60q155 0 240 82q86 83 86 205q0 94 -78 152q-79 59 -225 59h-78q-31 0 -53 -2l36 155q16 0 30 -1t49 -1h57h49q63 0 123 15t105 44q47 30 73 75t26 108q0 91 -83 154t-228 63q-86 0 -177 -31q-90 -31 -169 -102l-72 115 q77 75 194 123q113 46 236 46q105 0 190 -22q83 -21 149 -67q63 -43 99 -108q35 -63 35 -147q0 -79 -32 -140q-32 -60 -86 -107q-52 -45 -120 -71t-132 -32q51 -12 96 -36q47 -25 79 -60q33 -35 54 -86q21 -50 21 -111q0 -89 -36 -165q-36 -77 -102 -134t-155 -91t-199 -34 q-86 0 -169 21q-87 22 -151 57q-72 39 -122 89q-54 54 -80 118z" />
<glyph unicode="4" horiz-adv-x="1142" d="M31 346l35 156l768 864h241l-192 -870h192l-33 -150h-192l-76 -346h-170l76 346h-649zM233 496h480l157 712z" />
<glyph unicode="5" horiz-adv-x="1208" d="M72 248l129 102q106 -223 379 -223q70 0 133 26q60 25 107 69q45 42 73 104q27 60 27 129q0 63 -24 111q-24 47 -65 81q-39 32 -97 50q-57 18 -122 18q-81 0 -151 -25q-65 -23 -133 -74l-111 56l152 694h835l-33 -152h-665l-100 -450q44 37 120 65q73 27 166 27 q79 0 156 -25q74 -24 129 -72q55 -47 88 -120q33 -72 33 -166q0 -100 -39 -190t-108 -159q-68 -68 -166 -109q-96 -40 -214 -40q-185 0 -306 69t-193 204z" />
<glyph unicode="6" horiz-adv-x="1210" d="M113 479q0 146 40 303q42 164 122 294q83 134 210 222t299 88q146 0 249 -54t163 -150l-115 -115q-41 81 -120 124q-80 44 -187 44q-99 0 -175 -46t-133 -120q-55 -71 -95 -165q-41 -95 -62 -181q-10 -29 -10 -43q30 33 69 61q49 35 93 57q52 26 110 42t121 16 q86 0 166 -25q74 -23 131 -71q55 -46 86 -114t31 -150q0 -103 -41 -199q-39 -92 -112 -166q-70 -72 -167 -114q-96 -42 -206 -42q-225 0 -347 131q-120 129 -120 373zM276 449q0 -145 79 -233q80 -89 227 -89q75 0 139 29q62 28 109 75q44 45 73 111q27 63 27 131 q0 113 -85 177q-86 65 -220 65q-102 0 -188 -46q-88 -47 -156 -124q-3 -25 -4 -45q-1 -22 -1 -51z" />
<glyph unicode="7" horiz-adv-x="1054" d="M133 0l815 1214h-727l33 152h932l-27 -117l-829 -1249h-197z" />
<glyph unicode="8" horiz-adv-x="1191" d="M61 324q0 154 114 257q113 103 300 142q-41 17 -86 45q-44 28 -77 63q-32 35 -54 82q-20 43 -20 99q0 96 44 167q42 68 113 116q68 46 156 69q84 22 172 22q90 0 174 -21q83 -21 150 -65q66 -43 104 -105q39 -63 39 -144q0 -73 -29 -136q-27 -59 -80 -107 q-52 -47 -123 -77q-76 -32 -155 -43q46 -22 89 -50q45 -29 83 -70q35 -38 60 -91q24 -51 24 -112q0 -87 -40 -158t-110 -123q-71 -52 -160 -80q-93 -29 -192 -29q-98 0 -192 22q-90 21 -158 65t-107 110t-39 152zM242 354q0 -55 25 -98q25 -44 69 -72q43 -28 101 -43 q55 -14 124 -14q65 0 120 17q57 17 104 51q47 33 75 79q29 47 29 107q0 49 -26 90q-27 43 -64 73q-40 32 -86 53q-48 22 -88 32q-81 -4 -152 -26t-121 -57q-52 -36 -81 -85q-29 -48 -29 -107zM408 995q0 -45 23 -79q24 -36 61 -64t80 -49q45 -22 83 -29q72 6 141 25 q63 18 111 50q46 31 74 76q27 43 27 99q0 46 -24 83q-26 40 -63 65q-44 29 -94 45q-51 16 -114 16q-59 0 -115 -15q-50 -14 -97 -47q-42 -30 -68 -74q-25 -43 -25 -102z" />
<glyph unicode="9" horiz-adv-x="1210" d="M92 182l115 115q41 -80 121 -124t186 -44q101 0 177 46t133 120q58 75 95 165q38 92 60 181l7 26q1 5 3 10t2 7q-32 -33 -69 -61q-44 -33 -94 -57q-54 -26 -110 -42q-57 -16 -120 -16q-90 0 -166 24q-72 23 -131 72q-54 46 -87 114q-32 67 -32 150q0 103 41 199 q39 92 112 166q70 72 167 114q96 42 209 42q222 0 345 -132q122 -131 122 -372q0 -96 -18 -201q-19 -112 -54 -205q-38 -102 -92 -191q-55 -91 -130 -160q-76 -70 -170 -110q-96 -41 -210 -41q-141 0 -248 55q-104 53 -164 150zM360 891q0 -113 84 -177q85 -65 220 -65 q101 0 187 46q88 47 159 124q2 15 3 46q1 21 1 50q0 144 -80 233t-227 89q-76 0 -140 -29q-62 -28 -109 -75q-45 -45 -72 -111q-26 -64 -26 -131z" />
<glyph unicode=":" horiz-adv-x="460" d="M33 84q0 49 36 85t87 36q41 0 72 -31q30 -30 30 -74q0 -52 -36 -86q-35 -34 -87 -34q-44 0 -73 29t-29 75zM209 883q0 51 36 86q37 35 87 35q42 0 72 -30t30 -73q0 -51 -36 -87t-87 -36q-41 0 -72 31q-30 30 -30 74z" />
<glyph unicode=";" horiz-adv-x="471" d="M-37 -180q58 30 106 75q50 47 66 97h-16q-35 0 -62 24q-26 23 -26 68q0 49 38 85q37 36 85 36q44 0 76 -30t32 -89q0 -50 -19 -97q-18 -45 -52 -93q-32 -46 -74 -82q-45 -39 -90 -62zM209 883q0 51 36 86q37 35 87 35q42 0 72 -30t30 -73q0 -51 -36 -87t-87 -36 q-41 0 -72 31q-30 30 -30 74z" />
<glyph unicode="&#x3c;" horiz-adv-x="1021" d="M86 631l27 108l1001 449l-31 -135l-854 -375l689 -371l-27 -123z" />
<glyph unicode="=" horiz-adv-x="1021" d="M43 432l25 109h903l-25 -109h-903zM131 827l25 109h903l-25 -109h-903z" />
<glyph unicode="&#x3e;" horiz-adv-x="1021" d="M-12 184l30 135l856 371l-690 375l27 123l803 -449l-25 -108z" />
<glyph unicode="?" horiz-adv-x="946" d="M186 1219q93 87 196 128q98 39 216 39q88 0 164 -21q75 -21 131 -60t86 -95q31 -57 31 -123q0 -88 -38 -152q-38 -63 -96 -108q-54 -41 -125 -77q-75 -37 -125 -67q-62 -37 -97 -73q-37 -38 -37 -96q0 -18 7 -38q8 -23 27 -42l-137 -55q-47 62 -47 145q0 74 36 124 q37 52 90 88q61 42 117 69t116 65q54 35 91 79q35 42 35 110q0 78 -64 127t-185 49q-183 0 -314 -131zM254 84q0 49 37 85t88 36q42 0 73 -31q29 -29 29 -74q0 -52 -37 -86t-88 -34q-43 0 -72 29q-30 30 -30 75z" />
<glyph unicode="@" horiz-adv-x="1603" d="M113 500q0 166 67 312q66 144 179 257q110 109 260 174q149 64 307 64q143 0 264 -52q119 -51 204 -139q84 -87 131 -206q46 -117 46 -253q0 -118 -31 -211q-29 -88 -82 -150q-52 -62 -114 -91q-65 -31 -127 -31q-87 0 -135 50q-47 49 -52 116v14q-52 -78 -140 -129 q-87 -51 -185 -51q-143 0 -229 92q-85 91 -85 242q0 105 41 201q39 92 109 163q69 70 154 110q86 40 177 40q100 0 167 -47q68 -48 96 -113l26 127h139l-116 -555l-3 -21q-1 -8 -1 -22q0 -52 27 -79t69 -27q32 0 69 18t72 62q36 46 59 114q23 69 23 178q0 125 -42 232 t-118 184q-76 78 -182 121q-105 43 -237 43q-150 0 -283 -60t-235 -162q-99 -99 -160 -235q-60 -134 -60 -276q0 -123 44 -229q43 -103 122 -184q77 -79 187 -123q109 -44 235 -44q108 0 204 31q88 28 177 84l37 -53q-96 -62 -204 -96q-103 -33 -222 -33q-141 0 -258 49 q-120 50 -206 136q-87 86 -136 205q-49 117 -49 253zM539 516q0 -99 54 -163t155 -64q52 0 97 16q48 17 84 43q39 28 68 60q39 43 54 65l59 285q-7 24 -26 50q-19 27 -43 48q-25 22 -61 37q-34 14 -81 14q-77 0 -143 -33q-67 -33 -114 -88q-50 -58 -76 -126 q-27 -70 -27 -144z" />
<glyph unicode="A" horiz-adv-x="1347" d="M-92 0l852 1366h211l248 -1366h-185l-55 305h-680l-188 -305h-203zM383 455h580l-127 737z" />
<glyph unicode="B" horiz-adv-x="1288" d="M49 0l301 1366h568q76 0 139 -24t109 -64t73 -99t27 -126q0 -71 -26 -135t-69 -113q-44 -50 -100 -81q-58 -32 -121 -38q42 -12 80 -39q37 -27 64 -64q25 -35 41 -84q14 -43 14 -93q0 -74 -28 -149q-27 -72 -85 -130t-145 -92q-90 -35 -209 -35h-633zM252 152h426 q75 0 129 22q56 23 92 59t56 85t20 100q0 88 -57 146q-57 59 -162 59h-400zM389 774h424q75 0 127 23q53 23 83 59q32 38 45 82q13 43 13 90q0 81 -59 133q-61 53 -148 53h-387z" />
<glyph unicode="C" horiz-adv-x="1384" d="M123 573q0 186 64 335q65 151 171 257q106 107 246 165q141 59 287 59q205 0 346 -87q140 -87 213 -235l-164 -63q-59 119 -168 177q-106 56 -235 56q-109 0 -215 -47q-103 -46 -186 -133q-80 -85 -130 -207q-49 -120 -49 -268q0 -100 32 -185q31 -82 92 -143 q58 -58 145 -93q84 -34 192 -34q97 0 190 40q94 40 176 118l127 -97q-111 -114 -243 -163q-135 -50 -260 -50q-136 0 -251 42q-116 42 -201 121q-86 80 -132 190q-47 112 -47 245z" />
<glyph unicode="D" horiz-adv-x="1433" d="M49 0l301 1366h457q116 0 217 -43q103 -44 180 -121q78 -78 124 -184q46 -105 46 -236q0 -138 -51 -278q-50 -138 -157 -252q-106 -113 -267 -182q-164 -70 -385 -70h-465zM252 152h291q148 0 271 50q122 50 206 135q83 85 130 198q46 111 46 239q0 93 -32 175t-88 141 t-134 92q-76 32 -168 32h-287z" />
<glyph unicode="E" horiz-adv-x="1165" d="M49 0l301 1366h895l-33 -152h-725l-98 -440h713l-35 -151h-711l-104 -471h725l-33 -152h-895z" />
<glyph unicode="F" horiz-adv-x="1128" d="M49 0l301 1366h895l-33 -152h-725l-98 -440h713l-35 -151h-711l-137 -623h-170z" />
<glyph unicode="G" horiz-adv-x="1460" d="M123 573q0 179 61 328q62 150 168 258q108 110 249 169q145 61 302 61q195 0 331 -85t208 -214l-154 -70q-51 103 -163 161q-108 56 -242 56q-115 0 -219 -49q-107 -50 -185 -136q-80 -88 -128 -207q-48 -120 -48 -263q0 -104 33 -186q34 -85 92 -143q60 -60 145 -93 t191 -33q116 0 206 44q86 42 154 101l62 279h-471l33 151h641l-111 -499q-105 -110 -239 -169q-133 -59 -285 -59q-138 0 -256 44t-200 123q-82 80 -129 189q-46 108 -46 242z" />
<glyph unicode="H" horiz-adv-x="1458" d="M49 0l301 1366h170l-129 -588h799l129 588h170l-301 -1366h-170l137 627h-799l-137 -627h-170z" />
<glyph unicode="I" horiz-adv-x="489" d="M49 0l301 1366h170l-301 -1366h-170z" />
<glyph unicode="J" horiz-adv-x="972" d="M-45 147l102 123q37 -65 103 -104t155 -39q129 0 205 79q77 80 105 208l209 952h170l-211 -954q-50 -225 -167 -330q-119 -107 -302 -107q-117 0 -215 43t-154 129z" />
<glyph unicode="K" horiz-adv-x="1230" d="M49 0l301 1366h170l-153 -690l747 690h223l-712 -647l462 -719h-200l-389 623l-179 -164l-100 -459h-170z" />
<glyph unicode="L" horiz-adv-x="1009" d="M27 0l301 1366h170l-269 -1214h635l-33 -152h-804z" />
<glyph unicode="M" horiz-adv-x="1656" d="M49 0l301 1366h238l190 -1053l658 1053h252l-302 -1366h-169l253 1149l-716 -1149h-70l-211 1149l-254 -1149h-170z" />
<glyph unicode="N" horiz-adv-x="1449" d="M49 0l301 1366h174l547 -1077l240 1077h170l-301 -1366h-164l-553 1100l-244 -1100h-170z" />
<glyph unicode="O" horiz-adv-x="1566" d="M123 573q0 173 60 321q59 147 164 259q102 110 244 173q141 63 300 63q133 0 246 -40q117 -41 200 -116q88 -78 136 -187q49 -110 49 -253q0 -172 -60 -322q-60 -151 -164 -259q-107 -112 -244 -173q-143 -64 -300 -64q-133 0 -246 40q-116 41 -201 117q-84 76 -135 189 q-49 110 -49 252zM303 582q0 -111 36 -195q36 -83 99 -142q61 -57 147 -88q83 -30 179 -30q117 0 221 49q105 49 184 136q80 87 126 208q46 120 46 262q0 113 -35 195t-100 142q-62 58 -147 88q-84 30 -178 30q-119 0 -223 -49q-105 -49 -184 -136q-78 -85 -125 -208 q-46 -120 -46 -262z" />
<glyph unicode="P" horiz-adv-x="1202" d="M49 0l301 1366h531q76 0 143 -29t114 -76q46 -46 74 -113q27 -64 27 -134q0 -75 -28 -162q-27 -84 -90 -153t-163 -112q-102 -44 -243 -44h-377l-119 -543h-170zM371 694h358h-2q78 0 144 25q63 24 105 66t63 98q22 58 22 116q0 43 -18 83q-19 42 -47 69q-30 28 -71 46 q-40 17 -91 17h-347z" />
<glyph unicode="Q" horiz-adv-x="1566" d="M123 573q0 173 60 321q59 147 164 259q102 110 244 173q141 63 300 63q133 0 246 -40q117 -41 200 -116q88 -78 136 -187q49 -110 49 -253q0 -208 -85 -379t-227 -283l84 -119l-135 -75l-80 112q-75 -35 -155 -54q-85 -20 -170 -20q-133 0 -246 40q-116 41 -201 117 q-84 76 -135 189q-49 110 -49 252zM303 582q0 -111 36 -195q36 -83 99 -142q61 -57 147 -88q83 -30 179 -30q117 0 225 51l-162 230l136 73l155 -219q101 89 162 221t61 299q0 113 -35 195t-100 142q-62 58 -147 88q-84 30 -178 30q-119 0 -223 -49q-105 -49 -184 -136 q-78 -85 -125 -208q-46 -120 -46 -262z" />
<glyph unicode="R" horiz-adv-x="1247" d="M49 0l301 1366h502q74 0 143 -24q74 -26 124 -69q54 -46 87 -113q33 -66 33 -150q0 -93 -32 -175q-32 -83 -90 -142q-60 -62 -140 -98q-84 -38 -182 -44l245 -551h-188l-229 543h-285l-119 -543h-170zM371 692h356h4q77 0 141 25q61 24 104 65q41 40 63 97q22 58 22 116 q0 47 -20 89q-20 41 -52 69q-33 29 -75 45q-41 16 -87 16h-340z" />
<glyph unicode="S" horiz-adv-x="1200" d="M33 221l116 121q71 -98 189 -157q116 -58 262 -58q80 0 137 24q59 25 93 60q36 38 54 82q17 43 17 88q0 68 -50 112q-49 43 -126 78q-80 36 -163 69q-88 35 -163 79q-77 45 -126 109q-50 65 -50 161q0 80 36 152t100 127q63 54 154 88q89 33 196 33q156 0 288 -59 q131 -59 203 -159l-115 -118q-68 94 -177 139q-108 45 -220 45q-58 0 -111 -18q-50 -17 -91 -50q-38 -30 -59 -71q-21 -40 -21 -84q0 -62 50 -104q48 -41 126 -76q87 -39 162 -69q86 -34 163 -81q76 -46 126 -113t50 -163q0 -84 -32 -160q-33 -78 -96 -138q-65 -62 -155 -98 q-92 -37 -214 -37q-87 0 -177 19q-85 18 -157 51q-70 32 -128 78q-55 44 -91 98z" />
<glyph unicode="T" horiz-adv-x="1167" d="M223 1214l33 152h1036l-32 -152h-435l-268 -1214h-170l268 1214h-432z" />
<glyph unicode="U" horiz-adv-x="1435" d="M156 430q0 29 3 56q3 31 7 44l184 836h172l-184 -831q-1 -8 -6 -34q-4 -21 -4 -52q0 -69 24 -128q24 -58 71 -102q45 -42 113 -67q69 -25 152 -25q94 0 164 29q71 29 121 81q52 53 84 128q31 73 53 170l184 831h172l-184 -834q-27 -122 -73 -229q-44 -104 -114 -175 q-71 -72 -170 -113q-98 -40 -237 -40q-125 0 -226 32t-167 91q-68 61 -104 144q-35 82 -35 188z" />
<glyph unicode="V" horiz-adv-x="1347" d="M209 1366h186l201 -1180l721 1180h203l-850 -1366h-211z" />
<glyph unicode="W" horiz-adv-x="1808" d="M219 1366h184l52 -1139l563 1139h143l62 -1139l553 1139h194l-692 -1366h-184l-58 1102l-544 -1102h-185z" />
<glyph unicode="X" horiz-adv-x="1335" d="M-86 0l690 713l-358 653h194l293 -543l514 543h223l-651 -676l381 -690h-194l-316 578l-557 -578h-219z" />
<glyph unicode="Y" horiz-adv-x="1282" d="M209 1366h186l285 -635l563 635h211l-711 -788l-127 -578h-170l127 578z" />
<glyph unicode="Z" horiz-adv-x="1198" d="M-12 0l30 141l994 1073h-756l33 152h987l-31 -141l-997 -1073h774l-33 -152h-1001z" />
<glyph unicode="[" horiz-adv-x="497" d="M-115 -389l394 1778h380l-24 -113h-262l-344 -1552h262l-27 -113h-379z" />
<glyph unicode="\" horiz-adv-x="606" d="M201 1407h121l163 -1448h-120z" />
<glyph unicode="]" horiz-adv-x="497" d="M-162 -389l27 113h260l344 1552h-262l24 113h383l-395 -1778h-381z" />
<glyph unicode="^" horiz-adv-x="884" d="M78 682l497 684h117l193 -684h-121l-150 571l-403 -571h-133z" />
<glyph unicode="_" horiz-adv-x="1155" d="M-160 -195l27 113h1165l-26 -113h-1166z" />
<glyph unicode="`" horiz-adv-x="462" d="M207 1434h160l237 -295h-117z" />
<glyph unicode="a" horiz-adv-x="1177" d="M82 383q0 120 36 234t103 202q68 89 163 142t216 53q118 0 206 -49q89 -50 138 -131l35 155h154l-220 -989h-153l31 141q-62 -79 -144 -122q-83 -44 -182 -44q-82 0 -155 28q-71 27 -122 80q-52 53 -78 128q-28 79 -28 172zM244 412q0 -139 77 -219t199 -80q94 0 174 50 q78 49 129 118l97 436q-37 65 -114 112q-79 48 -185 48q-85 0 -154 -39q-70 -39 -119 -105q-51 -68 -77 -149q-27 -84 -27 -172z" />
<glyph unicode="b" horiz-adv-x="1177" d="M43 0l301 1366h154l-113 -518q63 80 143 122q83 44 183 44q83 0 155 -28q70 -27 121 -80q53 -55 79 -128q28 -79 28 -172q0 -120 -36 -234q-35 -112 -104 -202q-68 -89 -163 -141q-99 -54 -216 -54q-116 0 -205 50q-91 51 -139 131l-34 -156h-154zM256 272 q37 -65 114 -112t185 -47q85 0 154 39t118 104q51 68 77 148q28 86 28 174q0 139 -77 219t-200 80q-92 0 -174 -51q-79 -50 -129 -117z" />
<glyph unicode="c" horiz-adv-x="1015" d="M82 418q0 123 43 230q44 109 119 190q78 84 177 129q103 47 218 47q137 0 228 -49t143 -136l-117 -88q-39 67 -106 102q-65 34 -144 34q-91 0 -167 -38q-72 -36 -127 -102q-53 -64 -80 -146q-27 -83 -27 -171q0 -78 23 -133q25 -59 66 -97q42 -39 98 -58t122 -19 q79 0 142 32q65 33 110 86l86 -104q-62 -65 -149 -109q-85 -43 -203 -43q-99 0 -184 31q-83 30 -143 87t-94 138t-34 187z" />
<glyph unicode="d" horiz-adv-x="1177" d="M82 383q0 120 36 234t103 202q68 89 163 142t216 53q118 0 206 -49q89 -50 138 -131l119 532h154l-304 -1366h-153l31 141q-62 -79 -144 -122q-83 -44 -182 -44q-82 0 -155 28q-71 27 -122 80q-52 53 -78 128q-28 79 -28 172zM244 412q0 -139 77 -219t199 -80 q94 0 174 50q78 49 129 118l97 436q-37 65 -114 112q-79 48 -185 48q-85 0 -154 -39q-70 -39 -119 -105q-51 -68 -77 -149q-27 -84 -27 -172z" />
<glyph unicode="e" horiz-adv-x="1153" d="M82 414q0 124 43 232q44 111 118 191q75 81 177 129t219 48q96 0 177 -32q77 -31 134 -89q54 -56 85 -137q30 -80 30 -174q0 -34 -6 -75q-7 -50 -10 -63h-805q-2 -6 -3 -21q-1 -10 -1 -26q0 -57 21 -110t64 -94q45 -44 104 -66q66 -25 146 -25q69 0 149 25q75 23 136 74 l53 -109q-67 -51 -159 -84q-91 -33 -189 -33q-112 0 -203 32q-87 31 -152 89q-61 56 -95 138q-33 81 -33 180zM258 559h660h6q0 10 1 18t1 19q0 125 -77 208t-224 83q-67 0 -129 -27t-111 -72q-50 -45 -82 -104q-33 -60 -45 -125z" />
<glyph unicode="f" horiz-adv-x="581" d="M86 0l188 854h-163l30 135h164l17 76q16 69 42 129q25 59 65 102t93 67q50 23 125 23q70 0 121 -19q54 -20 98 -64l-82 -95q-23 25 -51 38q-30 14 -74 14q-76 0 -120 -52q-43 -50 -64 -143l-16 -76h200l-30 -135h-201l-188 -854h-154z" />
<glyph unicode="g" horiz-adv-x="1177" d="M-8 -233l96 104q52 -76 140 -111q86 -34 202 -34q56 0 107 15q52 15 95 51q45 37 78 95q32 55 54 146l29 125q-59 -75 -146 -121q-85 -45 -190 -45q-78 0 -147 24q-67 23 -120 75q-49 47 -80 127q-30 76 -30 181q0 117 36 228q36 110 102 196t162 139q94 52 216 52 q48 0 99 -14q54 -15 97 -37q44 -23 84 -58t66 -71l35 155h156l-215 -956q-28 -122 -77 -207q-48 -84 -113 -134q-68 -52 -139 -72q-75 -21 -155 -21q-143 0 -252 34q-110 34 -190 134zM242 424q0 -140 74 -218q75 -79 202 -79q85 0 168 47q82 46 135 113l94 426 q-41 77 -124 120q-85 44 -183 44q-83 0 -152 -39t-116 -103q-48 -65 -73 -144t-25 -167z" />
<glyph unicode="h" horiz-adv-x="1130" d="M45 0l301 1366h152l-115 -520q67 64 155 116t195 52q131 0 213 -63t82 -181q0 -17 -4 -41q-6 -35 -8 -43l-150 -686h-153l143 651q4 10 7 33q3 21 3 35q0 86 -58 122t-147 36q-40 0 -84 -14q-38 -12 -82 -35q-39 -20 -75 -50q-40 -33 -64 -57l-157 -721h-154z" />
<glyph unicode="i" horiz-adv-x="460" d="M43 0l219 989h154l-219 -989h-154zM287 1221q0 53 38 85q37 31 78 31q42 0 68 -26q27 -27 27 -64q0 -56 -38 -86q-39 -31 -79 -31q-41 0 -68 27q-26 26 -26 64z" />
<glyph unicode="j" horiz-adv-x="460" d="M-375 -315l76 108q23 -29 59 -48q37 -19 80 -19q68 0 115 42q47 43 68 136l239 1085h154l-240 -1085q-34 -147 -107 -227q-71 -78 -208 -78q-80 0 -137 20q-60 21 -99 66zM287 1221q0 53 38 85q37 31 78 31q42 0 68 -26q27 -27 27 -64q0 -56 -38 -86q-39 -31 -79 -31 q-41 0 -68 27q-26 26 -26 64z" />
<glyph unicode="k" horiz-adv-x="1052" d="M43 0l301 1366h154l-197 -893l627 516h202l-538 -448l321 -541h-184l-262 451l-207 -168l-63 -283h-154z" />
<glyph unicode="l" horiz-adv-x="460" d="M43 0l301 1366h154l-301 -1366h-154z" />
<glyph unicode="m" horiz-adv-x="1654" d="M43 0l219 989h154l-33 -143q25 29 52 53q31 29 72 54q38 24 87 43q47 18 100 18q66 0 115 -21t81 -51t48 -64q16 -33 16 -61v-2q27 36 66 73t79 63q43 27 91 45q50 18 102 18q49 0 99 -16q45 -15 83 -46q36 -30 57 -76q21 -47 21 -106q0 -17 -3 -41q-4 -30 -7 -43 l-151 -686h-154l147 664q0 2 1.5 6t2.5 8.5t1 8.5q2 20 2 32q0 76 -51 118q-49 40 -117 40q-71 0 -145 -48q-75 -49 -126 -108l-159 -721h-154l147 664q9 41 9 63q0 66 -43 108q-44 42 -129 42q-71 0 -143 -49q-75 -51 -124 -107l-159 -721h-154z" />
<glyph unicode="n" horiz-adv-x="1130" d="M43 0l219 989h154l-33 -143q67 64 155 116t195 52q131 0 213 -63t82 -181q0 -19 -4 -42q-6 -36 -8 -42l-152 -686h-151l143 649q3 13 7 34q3 18 3 36q0 86 -58 122t-146 36q-84 0 -167 -49q-85 -51 -139 -107l-159 -721h-154z" />
<glyph unicode="o" d="M82 416q0 115 41 224q39 105 115 190q77 86 175 134q103 50 220 50q105 0 190 -32t143 -90q59 -59 89 -138q30 -80 30 -179q0 -116 -41 -225t-114 -191q-75 -85 -175 -133q-105 -51 -220 -51q-106 0 -191 32q-83 31 -142 90t-89 140q-31 84 -31 179zM244 420 q0 -141 77 -224t218 -83q83 0 154 39q71 40 122 102q52 64 80 145q29 84 29 170q0 142 -77 225t-218 83q-85 0 -155 -39t-122 -103t-80 -145t-28 -170z" />
<glyph unicode="p" d="M-41 -377l303 1366h154l-31 -141q63 80 143 122q83 44 183 44q83 0 155 -28q70 -27 121 -80q53 -55 79 -128q28 -79 28 -172q0 -120 -36 -234q-35 -112 -104 -202q-68 -89 -163 -141q-99 -54 -216 -54q-116 0 -205 50q-91 51 -139 131l-118 -533h-154zM256 272 q37 -65 114 -112t185 -47q85 0 154 39t118 104q51 68 77 148q28 86 28 174q0 139 -77 219t-200 80q-92 0 -174 -51q-79 -50 -129 -117z" />
<glyph unicode="q" d="M82 383q0 120 36 234t103 202q68 89 163 142t216 53q118 0 206 -49q89 -50 138 -131l35 155h154l-304 -1366h-153l115 518q-62 -79 -144 -122q-83 -44 -182 -44q-82 0 -155 28q-71 27 -122 80q-52 53 -78 128q-28 79 -28 172zM244 412q0 -139 77 -219t199 -80 q94 0 174 50q78 49 129 118l97 436q-37 65 -114 112q-79 48 -185 48q-85 0 -154 -39q-70 -39 -119 -105q-51 -68 -77 -149q-27 -84 -27 -172z" />
<glyph unicode="r" horiz-adv-x="675" d="M43 0l219 989h154l-35 -149q72 81 158 127q84 45 211 45l-35 -160q-11 5 -31 6q-28 2 -47 2q-87 0 -163 -49q-78 -50 -124 -113l-153 -698h-154z" />
<glyph unicode="s" horiz-adv-x="952" d="M6 152l98 104q21 -28 54 -57q39 -34 75 -51q40 -19 94 -34q51 -14 105 -14q106 0 168 54q59 52 59 120q0 48 -38 79q-42 34 -97 57q-70 29 -125 49q-69 24 -125 57q-57 33 -96 78t-39 115q0 58 25 116q24 55 73 98q48 42 117 66q72 25 160 25q125 0 227 -47 q100 -46 152 -115l-90 -100q-35 56 -117 96q-84 41 -180 41q-98 0 -156 -44q-57 -43 -57 -108q0 -45 39 -73q44 -32 96 -54q70 -29 125 -49q71 -25 125 -58q58 -35 96 -82q39 -48 39 -120q0 -64 -26 -124q-26 -59 -74 -103q-49 -45 -122 -72q-72 -27 -167 -27 q-136 0 -242 45q-105 45 -176 132z" />
<glyph unicode="t" horiz-adv-x="602" d="M100 854l31 135h164l59 271h152l-60 -271h203l-31 -135h-200l-137 -610q-2 -10 -2 -19v-20q0 -92 98 -92q30 0 53 10q27 12 41 22l16 -122q-30 -24 -65 -35q-41 -13 -80 -13q-105 0 -166 43t-61 138q0 13 1 24q2 22 5 33l143 641h-164z" />
<glyph unicode="u" horiz-adv-x="1128" d="M100 219q0 17 3 42q3 22 8 42l151 686h154l-144 -649q-3 -11 -7 -33q-3 -18 -3 -35q0 -84 59 -122q58 -37 146 -37q84 0 165 48q83 49 138 107l160 721h153l-219 -989h-153l32 143q-67 -64 -153 -115q-89 -53 -195 -53q-133 0 -214 63t-81 181z" />
<glyph unicode="v" horiz-adv-x="1003" d="M115 989h161l148 -811l510 811h172l-631 -989h-168z" />
<glyph unicode="w" horiz-adv-x="1503" d="M133 989h156l63 -788l436 788h134l84 -788l415 788h168l-534 -989h-156l-82 795l-434 -795h-154z" />
<glyph unicode="x" horiz-adv-x="997" d="M-86 0l489 508l-247 481h168l192 -377l358 377h185l-467 -481l270 -508h-170l-207 406l-387 -406h-184z" />
<glyph unicode="y" horiz-adv-x="1003" d="M-94 -379l53 137q36 -16 98 -16q43 0 74 20q33 21 72 78l100 154l-188 995h161l148 -811l510 811h172l-762 -1190q-65 -103 -138 -152q-72 -48 -169 -48q-77 0 -131 22z" />
<glyph unicode="z" horiz-adv-x="966" d="M-4 0l24 121l701 733h-537l31 135h746l-27 -117l-705 -737h549l-28 -135h-754z" />
<glyph unicode="{" horiz-adv-x="534" d="M-27 -170q0 18 1 28q2 15 6 27l94 422q2 11 3 18q1 5 1 17q0 46 -21 76q-22 31 -59 31l25 102q59 0 92 42t45 99l94 420q30 140 114 209q83 68 201 68h127l-26 -113h-125q-66 0 -111 -42q-44 -41 -61 -120l-99 -446q-16 -66 -47 -113q-30 -47 -86 -68q33 -16 46 -46 q14 -31 14 -64q0 -10 -2 -34q-1 -18 -6 -36l-93 -420q0 -2 -1 -6t-1.5 -7.5t-0.5 -7.5q-1 -8 -1 -22q0 -52 33 -87q32 -33 84 -33h113l-25 -113h-98q-45 0 -86 15t-73 44q-31 28 -51 70t-20 90z" />
<glyph unicode="|" horiz-adv-x="432" d="M201 -41v1448h112v-1448h-112z" />
<glyph unicode="}" horiz-adv-x="534" d="M-164 -389l25 113h127q65 0 110 42q46 43 62 119l98 447q15 66 46 112q32 47 87 68q-33 16 -46 46q-13 29 -13 65q0 9 2 33q2 18 6 36l92 420q2 14 3 22t1 21q0 53 -33 87t-86 34h-112l26 113h99q43 0 86 -16q40 -15 72 -44q33 -30 52 -69t19 -91q0 -6 -2 -28 q-1 -17 -6 -27l-92 -422q-1 -7 -3 -17q-1 -5 -1 -18q0 -46 20 -75q22 -31 57 -31l-22 -102q-59 0 -92 -42t-45 -100l-94 -420q-33 -141 -116 -209q-82 -67 -202 -67h-125z" />
<glyph unicode="~" horiz-adv-x="1030" d="M139 879q21 96 52 182q30 85 76 156q42 64 103 107q58 40 134 40q69 0 107 -29q40 -30 57 -72q17 -40 25 -95q8 -52 18 -94q11 -47 29 -73q19 -28 63 -28q40 0 75 28t67 81q33 56 59 124q25 66 47 160l112 -12q-22 -90 -53 -181q-28 -82 -76 -156q-46 -71 -103 -110 q-59 -41 -134 -41q-70 0 -108 29t-56 72q-20 49 -27 94q-6 41 -17 94q-9 43 -30 72q-21 28 -63 28q-77 0 -141 -107q-64 -108 -105 -284z" />
<glyph unicode="&#xa1;" horiz-adv-x="471" d="M-55 -377l250 983h127l-185 -983h-192zM209 889q0 51 36 86q37 35 87 35q42 0 72 -30t30 -73q0 -51 -36 -87t-87 -36q-41 0 -72 31q-30 30 -30 74z" />
<glyph unicode="&#xa2;" horiz-adv-x="1015" d="M82 418q0 120 42 228q42 107 116 189q74 81 174 129q102 49 215 50l33 143h120l-34 -153q92 -16 156 -63q67 -48 106 -112l-117 -88q-29 53 -75 82q-47 30 -101 45l-168 -755h2q79 0 142 32q65 33 110 86l86 -104q-62 -65 -149 -109q-85 -43 -203 -43h-19l-39 -180h-121 l43 197q-145 34 -232 144t-87 282zM242 420q0 -118 52 -189t138 -100l166 741q-85 -11 -149 -50q-66 -41 -112 -101q-48 -63 -71 -139q-24 -78 -24 -162z" />
<glyph unicode="&#xa3;" horiz-adv-x="1060" d="M8 115q75 30 135 71q66 45 111 95q51 56 75 107q27 57 27 114q0 15 -1 23l-3 24h-301l23 110h237l-38 65q-10 16 -36 66q-16 31 -29 71q-11 34 -11 85q0 86 39 166t106 141q68 62 158 98q88 35 194 35q78 0 143 -17q69 -18 125 -49q55 -30 97 -77q41 -45 57 -100 l-153 -68q-18 73 -92 121q-73 47 -171 47q-62 0 -121 -21q-58 -21 -103 -63q-43 -40 -69 -98t-26 -129q0 -48 11 -81q13 -40 28 -68q11 -21 35 -61q14 -23 32 -63h301l-24 -110h-248v-17q0 -55 -21 -106q-19 -47 -54 -95q-34 -47 -71 -80q-41 -36 -77 -58q22 10 46 13 q21 3 50 3q50 0 89 -13q33 -11 78 -29q41 -16 76 -29q36 -13 83 -13q59 0 107 25q46 24 81 57l41 -137q-50 -44 -105 -69q-61 -28 -134 -28q-69 0 -122 15q-66 19 -100 32q-47 18 -96 33t-111 15q-50 0 -111 -22q-57 -21 -124 -60z" />
<glyph unicode="&#xa4;" horiz-adv-x="1423" d="M59 485l25 107h88q5 106 20 184h-69l24 109h78q44 115 119 211q72 92 168 158q97 66 204 100q111 35 224 35q205 0 346 -87q140 -87 213 -235l-164 -63q-59 119 -168 177q-106 56 -235 56q-76 0 -156 -25q-75 -23 -143 -69q-66 -44 -124 -111q-55 -64 -93 -147h643 l-25 -109h-657q-25 -89 -25 -184h641l-24 -107h-609q28 -160 148 -260q117 -98 305 -98q98 0 191 40q94 40 176 118l127 -97q-111 -114 -244 -163q-135 -50 -260 -50t-233 36q-107 36 -190 102q-85 68 -136 160q-53 96 -68 212h-117z" />
<glyph unicode="&#xa5;" horiz-adv-x="1282" d="M-10 250l24 108h516l50 220h-519l25 106h444l-315 682h186l285 -635l563 635h211l-614 -682h432l-23 -106h-505l-50 -220h506l-24 -108h-504l-55 -250h-170l55 250h-518z" />
<glyph unicode="&#xa6;" horiz-adv-x="432" d="M201 -41v647h112v-647h-112zM201 760v647h112v-647h-112z" />
<glyph unicode="&#xa7;" horiz-adv-x="958" d="M-43 0l98 94q50 -66 143 -106q92 -39 197 -39q103 0 167 53q63 52 63 131q0 51 -38 84q-36 32 -95 58t-124 50q-73 27 -124 56q-60 35 -96 81q-37 47 -37 122q0 99 74 177q74 79 223 103q-82 34 -134 88q-51 52 -51 138q0 55 25 110q24 53 71 94q48 42 116 67t157 25 q137 0 238 -40q100 -40 161 -113l-90 -84q-50 65 -135 94t-168 29q-100 0 -162 -47q-61 -46 -61 -117q0 -51 38 -83q39 -32 96 -56q63 -26 125 -47q65 -22 125 -56q59 -33 96 -82q38 -50 38 -125q0 -94 -63 -175q-62 -79 -191 -117q81 -44 112 -97q29 -49 29 -114 q0 -66 -26 -122q-28 -61 -76 -103q-48 -43 -120 -70q-71 -27 -161 -27q-146 0 -258 44q-109 43 -182 122zM266 612q0 -39 18 -66q19 -29 50 -50q35 -24 79 -41q63 -24 103 -37q123 34 171 93t48 116q0 37 -15 64q-16 29 -42 49q-28 22 -62 38q-38 18 -73 29 q-144 -18 -211 -74q-66 -55 -66 -121z" />
<glyph unicode="&#xa8;" horiz-adv-x="557" d="M135 1227q0 40 32 72t75 32q35 0 59 -24q25 -25 25 -60q0 -41 -33 -72q-34 -32 -74 -32q-35 0 -59 24q-25 25 -25 60zM557 1227q0 40 32 72t75 32q35 0 59 -24q25 -25 25 -60q0 -40 -32 -72t-75 -32q-35 0 -59 24q-25 25 -25 60z" />
<glyph unicode="&#xa9;" horiz-adv-x="1593" d="M131 684q0 149 55 275q56 128 151 225q93 95 224 151q130 56 275 56q146 0 276 -56t225 -151q96 -96 152 -225q55 -126 55 -275q0 -146 -55 -274q-56 -130 -152 -226q-95 -95 -225 -151t-276 -56q-145 0 -275 56q-131 56 -224 151q-96 97 -151 226q-55 128 -55 274z M195 684q0 -132 50 -250q49 -117 138 -204t204 -138t249 -51q132 0 250 51t205 138q89 89 139 204q51 117 51 250t-51 250q-50 114 -139 205q-87 89 -205 138q-120 50 -250 50q-132 0 -249 -50q-115 -49 -204 -138t-138 -205q-50 -118 -50 -250zM406 629q0 105 40 195 q39 89 109 157q66 65 155 103q88 38 179 38q105 0 186 -40q82 -40 133 -124l-63 -45q-38 70 -104 106t-154 36q-74 0 -147 -32q-75 -33 -130 -88q-58 -58 -93 -134q-36 -78 -36 -170q0 -65 23 -123q22 -56 63 -100t101 -68q63 -25 131 -25q66 0 131 28q61 26 104 69l41 -58 q-56 -47 -125 -77q-67 -29 -151 -29q-95 0 -165 29q-74 31 -124 81t-78 121q-26 66 -26 150z" />
<glyph unicode="&#xaa;" horiz-adv-x="839" d="M178 926q0 80 27 152q28 74 73 128q47 56 110 88q64 33 138 33q77 0 138 -29q59 -28 94 -81l20 94h117l-141 -643h-119l20 94q-91 -111 -219 -111q-52 0 -98 18q-51 20 -82 51q-36 36 -56 85q-22 53 -22 121zM301 938q0 -96 50 -143t128 -47q65 0 113 29q49 29 84 71 l65 293q-28 42 -78 66q-54 26 -114 26q-53 0 -98 -24q-46 -24 -78 -64q-31 -39 -52 -94q-20 -54 -20 -113z" />
<glyph unicode="&#xab;" horiz-adv-x="899" d="M59 498l410 362h162l-418 -373l238 -358h-146zM354 498l410 362h162l-418 -373l237 -358h-145z" />
<glyph unicode="&#xac;" horiz-adv-x="1032" d="M131 827l25 109h903l-113 -504h-112l88 395h-791z" />
<glyph unicode="&#xad;" horiz-adv-x="614" d="M45 428l29 135h491l-28 -135h-492z" />
<glyph unicode="&#xae;" horiz-adv-x="1011" d="M172 952q0 92 34 170q36 84 93 139q59 58 138 92q76 33 169 33q94 0 170 -33q81 -35 138 -92q58 -58 93 -139q33 -76 33 -170q0 -93 -33 -169q-34 -78 -94 -138q-58 -58 -139 -93q-78 -34 -170 -34q-91 0 -169 34q-80 35 -137 93q-58 59 -92 138q-34 78 -34 169zM231 952 q0 -76 29 -145q28 -67 79 -119q49 -51 119 -81q67 -29 146 -29q80 0 147 29t119 81q51 51 81 119q30 67 30 145q0 80 -30 148t-81 119t-119 79q-70 29 -147 29q-76 0 -146 -29q-71 -29 -119 -79q-51 -52 -79 -119q-29 -69 -29 -148zM385 702l109 498h188q58 0 101 -35 q42 -35 42 -96q0 -38 -15 -68q-15 -31 -39 -53q-25 -24 -52 -35q-29 -12 -57 -12l90 -199h-78l-86 197h-94l-43 -197h-66zM506 958h139q47 0 79 30t32 75q0 37 -24 58q-25 22 -60 22h-125z" />
<glyph unicode="&#xaf;" horiz-adv-x="743" d="M158 1210l22 99h742l-23 -99h-741z" />
<glyph unicode="&#xb0;" horiz-adv-x="593" d="M188 1137q0 49 20 97q20 47 53 80t79 53q44 19 96 19q53 0 98 -19q46 -19 80 -53q37 -37 55 -80q19 -45 19 -97q0 -55 -19 -99q-18 -42 -55 -79q-33 -33 -80 -53q-45 -19 -98 -19q-52 0 -96 19q-46 20 -79 53t-53 79t-20 99zM287 1137q0 -64 43 -107t104 -43q64 0 110 43 t46 107q0 61 -45 106t-109 45q-62 0 -105 -45q-44 -46 -44 -106z" />
<glyph unicode="&#xb1;" horiz-adv-x="1021" d="M-51 0l22 109h903l-22 -109h-903zM94 664l25 106h393l92 424h119l-94 -424h393l-25 -106h-393l-96 -437h-117l96 437h-393z" />
<glyph unicode="&#xb2;" horiz-adv-x="794" d="M182 862l23 101l242 148q103 63 183 127q71 57 113 115q39 54 39 111q0 66 -53 98q-52 31 -121 31q-73 0 -130 -25q-58 -26 -99 -69l-57 80q55 55 130 85t160 30q51 0 108 -13q49 -11 94 -40q43 -28 68 -69t25 -102q0 -67 -41 -132q-40 -63 -111 -127q-68 -61 -165 -124 l-201 -124h412l-21 -101h-598z" />
<glyph unicode="&#xb3;" horiz-adv-x="794" d="M205 997l82 72q40 -60 104 -90q65 -31 137 -31q90 0 136 48q47 49 47 116q0 52 -57 87q-56 34 -148 34h-34q-14 0 -28 -2l23 102q23 -1 60 -3q25 -1 65 -1q87 0 137 37q51 38 51 102q0 60 -57 93q-55 32 -133 32q-64 0 -116 -21q-50 -20 -105 -67l-47 80q52 47 123 77 q76 32 153 32q61 0 119 -14q55 -13 97 -39q44 -27 67 -65q24 -40 24 -91q0 -92 -63 -149q-62 -56 -166 -64q60 -12 109 -58t49 -118q0 -46 -21 -89q-22 -45 -58 -80q-39 -37 -95 -58q-57 -21 -128 -21q-112 0 -198 39t-129 110z" />
<glyph unicode="&#xb4;" horiz-adv-x="462" d="M137 1139l369 295h164l-412 -295h-121z" />
<glyph unicode="&#xb5;" horiz-adv-x="1128" d="M-41 -377l303 1366h154l-154 -690q-6 -53 3 -90q9 -36 33 -59q25 -24 60 -32q38 -9 84 -9q45 0 90 12q41 11 89 34q36 18 80 49q38 27 67 58l162 727h153l-219 -989h-153l30 139q-32 -31 -79 -62q-39 -26 -96 -52q-49 -22 -104 -36q-56 -14 -110 -14q-91 0 -155 29 l-84 -381h-154z" />
<glyph unicode="&#xb6;" horiz-adv-x="919" d="M162 981q0 74 29 141q30 70 83 124q51 53 126 87q72 33 159 33h406l-349 -1571h-92l330 1479h-182l-330 -1479h-92l192 867q-59 0 -108 23q-53 25 -89 67q-40 46 -61 101q-22 57 -22 128z" />
<glyph unicode="&#xb7;" horiz-adv-x="473" d="M123 492q0 51 36 87q35 35 87 35q42 0 72 -30t30 -74q0 -52 -36 -86q-37 -35 -87 -35q-42 0 -72 30t-30 73z" />
<glyph unicode="&#xb8;" horiz-adv-x="419" d="M-182 -313l55 73q35 -35 79 -53q43 -18 91 -18q64 0 94 27q31 28 31 69q0 28 -20 45q-19 16 -54 16q-44 0 -74 -34l-59 38l102 173h93l-82 -136q16 14 31 19q13 4 36 4q52 0 86 -31q33 -30 33 -88q0 -83 -61 -132q-62 -50 -160 -50q-73 0 -129 22q-57 22 -92 56z" />
<glyph unicode="&#xb9;" horiz-adv-x="481" d="M238 1456l272 225h108l-180 -819h-123l142 651l-160 -135z" />
<glyph unicode="&#xba;" horiz-adv-x="829" d="M182 944q0 81 30 150q29 67 80 121q48 51 118 82q67 30 145 30q141 0 224 -81t83 -212q0 -81 -28 -149q-28 -69 -80 -122q-50 -51 -119 -82q-67 -30 -146 -30q-141 0 -224 81t-83 212zM305 940q0 -85 50 -138q49 -52 137 -52q56 0 103 24q45 23 79 65q32 39 50 91 q17 48 17 106q0 86 -51 139q-51 52 -137 52q-55 0 -103 -25q-47 -24 -78 -64t-49 -91t-18 -107z" />
<glyph unicode="&#xbb;" horiz-adv-x="899" d="M-23 129l418 373l-237 358h145l246 -368l-410 -363h-162zM272 129l418 373l-237 358h145l246 -368l-410 -363h-162z" />
<glyph unicode="&#xbc;" horiz-adv-x="1576" d="M113 0l1173 1366h113l-1176 -1366h-110zM168 1141l272 225h109l-180 -819h-123l141 651l-160 -135zM795 205l18 92l471 522h170l-115 -514h117l-20 -100h-117l-45 -205h-123l45 205h-401zM940 305h277l90 397z" />
<glyph unicode="&#xbd;" horiz-adv-x="1652" d="M113 0l1173 1366h113l-1176 -1366h-110zM168 1141l272 225h109l-180 -819h-123l141 651l-160 -135zM850 0l22 100l243 149q98 60 182 127q75 60 114 114t39 112q0 65 -53 97t-121 32q-73 0 -130 -25q-58 -26 -99 -69l-58 80q55 55 130 85q73 29 161 29q56 0 108 -12 q49 -11 94 -40q41 -26 67 -69t26 -102q0 -67 -41 -132q-39 -61 -112 -127q-68 -61 -165 -124l-200 -125h411l-20 -100h-598z" />
<glyph unicode="&#xbe;" horiz-adv-x="1798" d="M135 682l82 72q40 -59 105 -90t137 -31q89 0 135 48q47 49 47 116q0 53 -56 87t-149 34h-34q-6 0 -27 -3l22 103q21 -1 61 -3q25 -1 64 -1q87 0 137 37q52 38 52 102q0 58 -58 92q-57 33 -133 33q-61 0 -116 -22q-52 -21 -105 -66l-47 80q51 46 124 77q74 31 152 31 q66 0 119 -13q55 -13 97 -39q44 -27 67 -65q25 -42 25 -92q0 -90 -64 -148q-64 -57 -166 -65q62 -12 110 -57t48 -119q0 -46 -21 -89q-22 -45 -58 -80q-38 -36 -94 -57q-60 -22 -128 -22q-113 0 -199 39t-129 111zM334 0l1173 1366h113l-1176 -1366h-110zM1018 205l18 92 l471 522h170l-114 -514h116l-20 -100h-117l-45 -205h-123l45 205h-401zM1163 305h277l90 397z" />
<glyph unicode="&#xbf;" horiz-adv-x="806" d="M-68 -98q0 89 39 152q38 61 97 108q56 44 125 78q78 38 124 66q61 37 97 73q39 39 39 96q0 16 -8 38q-8 23 -27 42l135 55q49 -67 49 -145q0 -74 -36 -125q-37 -52 -90 -89q-59 -41 -118 -69q-66 -31 -117 -64q-55 -35 -90 -79q-36 -45 -36 -109q0 -79 64 -128 q65 -50 186 -50q92 0 170 34q81 35 145 99l76 -114q-95 -90 -196 -129q-102 -39 -216 -39q-90 0 -165 21q-72 20 -130 61q-57 40 -86 94q-31 57 -31 123zM461 889q0 52 37 86q38 35 88 35q41 0 72 -31q30 -30 30 -74q0 -52 -37 -86q-38 -35 -86 -35q-44 0 -75 31 q-29 29 -29 74z" />
<glyph unicode="&#xc0;" horiz-adv-x="1347" d="M-92 0l852 1366h211l248 -1366h-185l-55 305h-680l-188 -305h-203zM383 455h580l-127 737zM633 1786h160l237 -295h-117z" />
<glyph unicode="&#xc1;" horiz-adv-x="1347" d="M-92 0l852 1366h211l248 -1366h-185l-55 305h-680l-188 -305h-203zM383 455h580l-127 737zM756 1491l368 295h164l-411 -295h-121z" />
<glyph unicode="&#xc2;" horiz-adv-x="1347" d="M-92 0l852 1366h211l248 -1366h-185l-55 305h-680l-188 -305h-203zM383 455h580l-127 737zM625 1491l260 295h147l135 -295h-100l-123 217l-211 -217h-108z" />
<glyph unicode="&#xc3;" horiz-adv-x="1347" d="M-92 0l852 1366h211l248 -1366h-185l-55 305h-680l-188 -305h-203zM383 455h580l-127 737zM575 1499q12 58 32 110q19 49 48 87q26 34 67 57q38 21 87 21q57 0 86 -30q29 -31 50 -65q12 -20 43 -64q21 -30 65 -30q41 0 72 42q33 44 55 134h94q-27 -122 -83 -197 q-57 -77 -153 -77q-58 0 -86 30q-31 32 -50 64q-17 27 -43 65q-20 29 -62 29q-41 0 -74 -42q-31 -40 -53 -134h-95z" />
<glyph unicode="&#xc4;" horiz-adv-x="1347" d="M-92 0l852 1366h211l248 -1366h-185l-55 305h-680l-188 -305h-203zM383 455h580l-127 737zM610 1573q0 41 32 73q31 31 75 31q35 0 59 -24q25 -25 25 -60q0 -41 -33 -72q-34 -32 -74 -32q-35 0 -59 24q-25 25 -25 60zM1032 1573q0 41 32 73q31 31 75 31q35 0 59 -24 q25 -25 25 -60q0 -40 -32 -72t-75 -32q-35 0 -59 24q-25 25 -25 60z" />
<glyph unicode="&#xc5;" horiz-adv-x="1347" d="M-92 0l852 1366h211l248 -1366h-185l-55 305h-680l-188 -305h-203zM383 455h580l-127 737zM719 1599q0 47 17 85q18 41 48 71t71 48t85 18q81 0 132 -51q50 -50 50 -132q0 -47 -17 -85q-18 -40 -48 -70t-71 -48t-85 -18q-80 0 -131 51t-51 131zM801 1608q0 -49 29 -78 q31 -31 77 -31q53 0 93 39t40 92q0 50 -28 79q-29 30 -76 30q-54 0 -94 -39q-41 -39 -41 -92z" />
<glyph unicode="&#xc6;" horiz-adv-x="1941" d="M-96 0l1153 1366h962l-32 -152h-725l-99 -440h713l-35 -151h-711l-104 -471h725l-33 -152h-895l66 305h-529l-254 -305h-202zM475 455h449l159 725z" />
<glyph unicode="&#xc7;" horiz-adv-x="1384" d="M123 573q0 186 64 335q65 151 171 257q106 107 246 165q141 59 287 59q205 0 346 -87q140 -87 213 -235l-164 -63q-59 119 -168 177q-106 56 -235 56q-109 0 -215 -47q-103 -46 -186 -133q-80 -85 -130 -207q-49 -120 -49 -268q0 -100 32 -185q31 -82 92 -143 q58 -58 145 -93q84 -34 192 -34q97 0 190 40q94 40 176 118l127 -97q-111 -114 -243 -163q-135 -50 -260 -50h-20q-5 0 -19 2l-54 -90q15 14 32 19q13 4 36 4q52 0 86 -31q33 -30 33 -88q0 -82 -62 -132t-159 -50q-73 0 -129 22q-59 23 -93 56l56 73q35 -35 79 -53t91 -18 q64 0 94 27q31 28 31 69q0 28 -20 45q-19 16 -54 16q-44 0 -74 -34l-59 38l80 136q-112 18 -204 67q-96 51 -161 125q-66 75 -104 175q-37 98 -37 220z" />
<glyph unicode="&#xc8;" horiz-adv-x="1165" d="M49 0l301 1366h895l-33 -152h-725l-98 -440h713l-35 -151h-711l-104 -471h725l-33 -152h-895zM565 1786h160l238 -295h-117z" />
<glyph unicode="&#xc9;" horiz-adv-x="1165" d="M49 0l301 1366h895l-33 -152h-725l-98 -440h713l-35 -151h-711l-104 -471h725l-33 -152h-895zM686 1491l369 295h164l-412 -295h-121z" />
<glyph unicode="&#xca;" horiz-adv-x="1165" d="M49 0l301 1366h895l-33 -152h-725l-98 -440h713l-35 -151h-711l-104 -471h725l-33 -152h-895zM553 1491l260 295h148l135 -295h-101l-123 217l-210 -217h-109z" />
<glyph unicode="&#xcb;" horiz-adv-x="1165" d="M49 0l301 1366h895l-33 -152h-725l-98 -440h713l-35 -151h-711l-104 -471h725l-33 -152h-895zM541 1573q0 42 31 73t75 31q36 0 60 -24t24 -60q0 -41 -33 -72q-34 -32 -73 -32q-36 0 -60 24t-24 60zM963 1573q0 42 31 73t75 31q35 0 59 -24q25 -25 25 -60q0 -40 -32 -72 t-74 -32q-36 0 -60 24t-24 60z" />
<glyph unicode="&#xcc;" horiz-adv-x="489" d="M49 0l301 1366h170l-301 -1366h-170zM201 1786h159l238 -295h-117z" />
<glyph unicode="&#xcd;" horiz-adv-x="489" d="M49 0l301 1366h170l-301 -1366h-170zM328 1491l368 295h164l-411 -295h-121z" />
<glyph unicode="&#xce;" horiz-adv-x="489" d="M49 0l301 1366h170l-301 -1366h-170zM193 1491l260 295h147l135 -295h-100l-123 217l-211 -217h-108z" />
<glyph unicode="&#xcf;" horiz-adv-x="489" d="M49 0l301 1366h170l-301 -1366h-170zM178 1573q0 41 32 73q31 31 75 31q35 0 59 -24q25 -25 25 -60q0 -41 -33 -72q-34 -32 -74 -32q-35 0 -59 24q-25 25 -25 60zM600 1573q0 41 32 73q31 31 75 31q35 0 59 -24q25 -25 25 -60q0 -40 -32 -72t-75 -32q-35 0 -59 24 q-25 25 -25 60z" />
<glyph unicode="&#xd0;" horiz-adv-x="1490" d="M45 614l33 140h194l136 612h456q116 0 217 -43q105 -45 181 -121t123 -184t47 -236q0 -136 -52 -278q-51 -140 -156 -252q-105 -113 -268 -182q-164 -70 -385 -70h-465l136 614h-197zM309 152h291q148 0 271 50q122 50 206 135q83 85 130 198q46 111 46 239q0 95 -31 175 q-32 82 -88 141q-55 58 -135 92q-76 32 -168 32h-286l-103 -460h346l-30 -140h-346z" />
<glyph unicode="&#xd1;" horiz-adv-x="1449" d="M49 0l301 1366h174l547 -1077l240 1077h170l-301 -1366h-164l-553 1100l-244 -1100h-170zM623 1499q13 64 31 110q20 49 48 87q26 34 67 57q37 21 87 21q58 0 86 -30q29 -31 50 -65q12 -20 43 -64q21 -30 65 -30q40 0 72 42q33 44 55 134h94q-27 -122 -83 -197 q-57 -77 -153 -77q-57 0 -86 30q-31 32 -50 64q-17 27 -43 65q-20 29 -62 29q-41 0 -74 -42q-31 -40 -53 -134h-94z" />
<glyph unicode="&#xd2;" horiz-adv-x="1566" d="M123 573q0 173 60 321q59 147 164 259q102 110 244 173q141 63 300 63q133 0 246 -40q117 -41 200 -116q88 -78 136 -187q49 -110 49 -253q0 -172 -60 -322q-60 -151 -164 -259q-107 -112 -244 -173q-143 -64 -300 -64q-133 0 -246 40q-116 41 -201 117q-84 76 -135 189 q-49 110 -49 252zM303 582q0 -111 36 -195q36 -83 99 -142q61 -57 147 -88q83 -30 179 -30q117 0 221 49q105 49 184 136q80 87 126 208q46 120 46 262q0 113 -35 195t-100 142q-62 58 -147 88q-84 30 -178 30q-119 0 -223 -49q-105 -49 -184 -136q-78 -85 -125 -208 q-46 -120 -46 -262zM748 1786h159l238 -295h-117z" />
<glyph unicode="&#xd3;" horiz-adv-x="1566" d="M123 573q0 173 60 321q59 147 164 259q102 110 244 173q141 63 300 63q133 0 246 -40q117 -41 200 -116q88 -78 136 -187q49 -110 49 -253q0 -172 -60 -322q-60 -151 -164 -259q-107 -112 -244 -173q-143 -64 -300 -64q-133 0 -246 40q-116 41 -201 117q-84 76 -135 189 q-49 110 -49 252zM303 582q0 -111 36 -195q36 -83 99 -142q61 -57 147 -88q83 -30 179 -30q117 0 221 49q105 49 184 136q80 87 126 208q46 120 46 262q0 113 -35 195t-100 142q-62 58 -147 88q-84 30 -178 30q-119 0 -223 -49q-105 -49 -184 -136q-78 -85 -125 -208 q-46 -120 -46 -262zM866 1491l369 295h164l-412 -295h-121z" />
<glyph unicode="&#xd4;" horiz-adv-x="1566" d="M123 573q0 173 60 321q59 147 164 259q102 110 244 173q141 63 300 63q133 0 246 -40q117 -41 200 -116q88 -78 136 -187q49 -110 49 -253q0 -172 -60 -322q-60 -151 -164 -259q-107 -112 -244 -173q-143 -64 -300 -64q-133 0 -246 40q-116 41 -201 117q-84 76 -135 189 q-49 110 -49 252zM303 582q0 -111 36 -195q36 -83 99 -142q61 -57 147 -88q83 -30 179 -30q117 0 221 49q105 49 184 136q80 87 126 208q46 120 46 262q0 113 -35 195t-100 142q-62 58 -147 88q-84 30 -178 30q-119 0 -223 -49q-105 -49 -184 -136q-78 -85 -125 -208 q-46 -120 -46 -262zM735 1491l260 295h148l135 -295h-100l-123 217l-211 -217h-109z" />
<glyph unicode="&#xd5;" horiz-adv-x="1566" d="M123 573q0 173 60 321q59 147 164 259q102 110 244 173q141 63 300 63q133 0 246 -40q117 -41 200 -116q88 -78 136 -187q49 -110 49 -253q0 -172 -60 -322q-60 -151 -164 -259q-107 -112 -244 -173q-143 -64 -300 -64q-133 0 -246 40q-116 41 -201 117q-84 76 -135 189 q-49 110 -49 252zM303 582q0 -111 36 -195q36 -83 99 -142q61 -57 147 -88q83 -30 179 -30q117 0 221 49q105 49 184 136q80 87 126 208q46 120 46 262q0 113 -35 195t-100 142q-62 58 -147 88q-84 30 -178 30q-119 0 -223 -49q-105 -49 -184 -136q-78 -85 -125 -208 q-46 -120 -46 -262zM684 1499q12 58 32 110q20 49 48 87q27 35 66 57q38 21 88 21q58 0 86 -30q29 -31 50 -65q12 -20 43 -64q21 -30 64 -30q41 0 73 42q31 42 54 134h94q-27 -122 -83 -197q-57 -77 -152 -77q-57 0 -86 30q-31 32 -50 64q-17 27 -43 65q-20 29 -63 29 q-41 0 -74 -42q-31 -40 -53 -134h-94z" />
<glyph unicode="&#xd6;" horiz-adv-x="1566" d="M123 573q0 173 60 321q59 147 164 259q102 110 244 173q141 63 300 63q133 0 246 -40q117 -41 200 -116q88 -78 136 -187q49 -110 49 -253q0 -172 -60 -322q-60 -151 -164 -259q-107 -112 -244 -173q-143 -64 -300 -64q-133 0 -246 40q-116 41 -201 117q-84 76 -135 189 q-49 110 -49 252zM303 582q0 -111 36 -195q36 -83 99 -142q61 -57 147 -88q83 -30 179 -30q117 0 221 49q105 49 184 136q80 87 126 208q46 120 46 262q0 113 -35 195t-100 142q-62 58 -147 88q-84 30 -178 30q-119 0 -223 -49q-105 -49 -184 -136q-78 -85 -125 -208 q-46 -120 -46 -262zM717 1573q0 41 32 73q31 31 74 31q36 0 60 -24t24 -60q0 -41 -33 -72q-34 -32 -73 -32q-36 0 -60 24t-24 60zM1139 1573q0 42 31 73t75 31q36 0 60 -24t24 -60q0 -40 -32 -72t-74 -32q-36 0 -60 24t-24 60z" />
<glyph unicode="&#xd7;" horiz-adv-x="1021" d="M98 383l379 309l-235 299l86 70l233 -301l375 307l65 -82l-374 -307l233 -301l-84 -70l-235 301l-373 -307z" />
<glyph unicode="&#xd8;" horiz-adv-x="1566" d="M123 573q0 173 60 321q59 147 164 259q102 110 244 173q141 63 300 63q223 0 387 -111l80 88h137l-137 -154q78 -76 121 -181q43 -104 43 -238q0 -172 -60 -322q-60 -151 -164 -259q-107 -112 -244 -173q-143 -64 -300 -64q-114 0 -215 30t-183 87l-82 -92h-137l142 160 q-73 77 -114 179q-42 103 -42 234zM303 582q0 -90 25 -165q25 -74 67 -128l770 862q-59 43 -132 64q-75 22 -152 22q-119 0 -223 -49q-105 -49 -184 -136q-78 -85 -125 -208q-46 -120 -46 -262zM469 217q121 -90 295 -90q117 0 221 49q105 49 184 136q80 87 126 208 q46 120 46 262q0 97 -26 169q-26 73 -74 130z" />
<glyph unicode="&#xd9;" horiz-adv-x="1435" d="M156 430q0 29 3 56q3 31 7 44l184 836h172l-184 -831q-1 -8 -6 -34q-4 -21 -4 -52q0 -69 24 -128q24 -58 71 -102q45 -42 113 -67q69 -25 152 -25q94 0 164 29q71 29 121 81q52 53 84 128q31 73 53 170l184 831h172l-184 -834q-27 -122 -73 -229q-44 -104 -114 -175 q-71 -72 -170 -113q-98 -40 -237 -40q-125 0 -226 32t-167 91q-68 61 -104 144q-35 82 -35 188zM678 1786h160l237 -295h-117z" />
<glyph unicode="&#xda;" horiz-adv-x="1435" d="M156 430q0 29 3 56q3 31 7 44l184 836h172l-184 -831q-1 -8 -6 -34q-4 -21 -4 -52q0 -69 24 -128q24 -58 71 -102q45 -42 113 -67q69 -25 152 -25q94 0 164 29q71 29 121 81q52 53 84 128q31 73 53 170l184 831h172l-184 -834q-27 -122 -73 -229q-44 -104 -114 -175 q-71 -72 -170 -113q-98 -40 -237 -40q-125 0 -226 32t-167 91q-68 61 -104 144q-35 82 -35 188zM797 1491l368 295h164l-411 -295h-121z" />
<glyph unicode="&#xdb;" horiz-adv-x="1435" d="M156 430q0 29 3 56q3 31 7 44l184 836h172l-184 -831q-1 -8 -6 -34q-4 -21 -4 -52q0 -69 24 -128q24 -58 71 -102q45 -42 113 -67q69 -25 152 -25q94 0 164 29q71 29 121 81q52 53 84 128q31 73 53 170l184 831h172l-184 -834q-27 -122 -73 -229q-44 -104 -114 -175 q-71 -72 -170 -113q-98 -40 -237 -40q-125 0 -226 32t-167 91q-68 61 -104 144q-35 82 -35 188zM676 1491l260 295h147l136 -295h-101l-123 217l-211 -217h-108z" />
<glyph unicode="&#xdc;" horiz-adv-x="1435" d="M156 430q0 29 3 56q3 31 7 44l184 836h172l-184 -831q-1 -8 -6 -34q-4 -21 -4 -52q0 -69 24 -128q24 -58 71 -102q45 -42 113 -67q69 -25 152 -25q94 0 164 29q71 29 121 81q52 53 84 128q31 73 53 170l184 831h172l-184 -834q-27 -122 -73 -229q-44 -104 -114 -175 q-71 -72 -170 -113q-98 -40 -237 -40q-125 0 -226 32t-167 91q-68 61 -104 144q-35 82 -35 188zM653 1573q0 41 32 73q31 31 75 31q35 0 59 -24q25 -25 25 -60q0 -41 -33 -72q-34 -32 -74 -32q-35 0 -59 24q-25 25 -25 60zM1075 1573q0 41 32 73q31 31 75 31q35 0 59 -24 q25 -25 25 -60q0 -40 -32 -72t-75 -32q-35 0 -59 24q-25 25 -25 60z" />
<glyph unicode="&#xdd;" horiz-adv-x="1282" d="M209 1366h186l285 -635l563 635h211l-711 -788l-127 -578h-170l127 578zM729 1491l369 295h164l-412 -295h-121z" />
<glyph unicode="&#xde;" horiz-adv-x="1202" d="M49 0l301 1366h170l-53 -244h358q76 0 142 -27q63 -26 113 -76q49 -49 76 -113q28 -67 28 -138q0 -79 -29 -163q-28 -81 -92 -151q-62 -68 -162 -112q-98 -43 -239 -43h-377l-66 -299h-170zM317 451h357q84 0 146 25q64 26 104 69t61 97t21 114q0 43 -19 84 q-16 35 -49 68q-29 29 -73 46q-43 17 -87 17h-346z" />
<glyph unicode="&#xdf;" horiz-adv-x="1222" d="M45 0l225 1022q16 72 52 142q34 65 88 116q52 49 124 78q69 28 158 28q69 0 130 -17q69 -19 115 -50q51 -34 82 -78q32 -46 32 -102q0 -69 -30 -112q-31 -45 -75 -76q-43 -30 -96 -55q-51 -24 -96 -48q-44 -23 -75 -56q-30 -32 -30 -77q0 -46 37 -73q40 -29 92 -50 t119 -45q64 -23 119 -54q54 -30 92 -78q37 -46 37 -118q0 -57 -25 -118q-24 -58 -73 -103q-52 -47 -121 -73q-75 -28 -164 -28q-145 0 -240 43q-96 43 -178 142l96 96q52 -67 131 -111q77 -43 195 -43q52 0 97 16q41 15 71 40q27 23 43 56q14 29 14 65q0 46 -37 76 q-39 31 -91 53q-58 24 -119 44q-63 21 -118 51q-52 29 -91 74q-37 43 -37 113q0 71 28 117q28 45 73 81q40 32 94 58l94 48q43 24 73 52q29 27 29 66q0 32 -18 58q-18 25 -46 43q-29 18 -64 27q-36 9 -73 9q-98 0 -170 -60q-71 -59 -94 -167l-225 -1022h-154z" />
<glyph unicode="&#xe0;" horiz-adv-x="1177" d="M82 383q0 120 36 234t103 202q68 89 163 142t216 53q118 0 206 -49q89 -50 138 -131l35 155h154l-220 -989h-153l31 141q-62 -79 -144 -122q-83 -44 -182 -44q-82 0 -155 28q-71 27 -122 80q-52 53 -78 128q-28 79 -28 172zM244 412q0 -139 77 -219t199 -80q94 0 174 50 q78 49 129 118l97 436q-37 65 -114 112q-79 48 -185 48q-85 0 -154 -39q-70 -39 -119 -105q-51 -68 -77 -149q-27 -84 -27 -172zM434 1434h160l237 -295h-116z" />
<glyph unicode="&#xe1;" horiz-adv-x="1177" d="M82 383q0 120 36 234t103 202q68 89 163 142t216 53q118 0 206 -49q89 -50 138 -131l35 155h154l-220 -989h-153l31 141q-62 -79 -144 -122q-83 -44 -182 -44q-82 0 -155 28q-71 27 -122 80q-52 53 -78 128q-28 79 -28 172zM244 412q0 -139 77 -219t199 -80q94 0 174 50 q78 49 129 118l97 436q-37 65 -114 112q-79 48 -185 48q-85 0 -154 -39q-70 -39 -119 -105q-51 -68 -77 -149q-27 -84 -27 -172zM557 1139l369 295h164l-412 -295h-121z" />
<glyph unicode="&#xe2;" horiz-adv-x="1177" d="M82 383q0 120 36 234t103 202q68 89 163 142t216 53q118 0 206 -49q89 -50 138 -131l35 155h154l-220 -989h-153l31 141q-62 -79 -144 -122q-83 -44 -182 -44q-82 0 -155 28q-71 27 -122 80q-52 53 -78 128q-28 79 -28 172zM244 412q0 -139 77 -219t199 -80q94 0 174 50 q78 49 129 118l97 436q-37 65 -114 112q-79 48 -185 48q-85 0 -154 -39q-70 -39 -119 -105q-51 -68 -77 -149q-27 -84 -27 -172zM428 1139l260 295h148l135 -295h-101l-122 217l-211 -217h-109z" />
<glyph unicode="&#xe3;" horiz-adv-x="1177" d="M82 383q0 120 36 234t103 202q68 89 163 142t216 53q118 0 206 -49q89 -50 138 -131l35 155h154l-220 -989h-153l31 141q-62 -79 -144 -122q-83 -44 -182 -44q-82 0 -155 28q-71 27 -122 80q-52 53 -78 128q-28 79 -28 172zM244 412q0 -139 77 -219t199 -80q94 0 174 50 q78 49 129 118l97 436q-37 65 -114 112q-79 48 -185 48q-85 0 -154 -39q-70 -39 -119 -105q-51 -68 -77 -149q-27 -84 -27 -172zM377 1147q11 56 32 109q19 50 48 87q28 37 66 58q36 20 87 20q58 0 86 -29q29 -31 50 -65q5 -9 44 -64q21 -30 64 -30q42 0 73 42t54 134h94 q-27 -123 -83 -198q-57 -76 -152 -76q-58 0 -86 29q-32 34 -51 65q-12 20 -43 64q-21 30 -62 30t-74 -42q-31 -40 -53 -134h-94z" />
<glyph unicode="&#xe4;" horiz-adv-x="1177" d="M82 383q0 120 36 234t103 202q68 89 163 142t216 53q118 0 206 -49q89 -50 138 -131l35 155h154l-220 -989h-153l31 141q-62 -79 -144 -122q-83 -44 -182 -44q-82 0 -155 28q-71 27 -122 80q-52 53 -78 128q-28 79 -28 172zM244 412q0 -139 77 -219t199 -80q94 0 174 50 q78 49 129 118l97 436q-37 65 -114 112q-79 48 -185 48q-85 0 -154 -39q-70 -39 -119 -105q-51 -68 -77 -149q-27 -84 -27 -172zM414 1227q0 41 31 72q32 32 75 32q36 0 60 -24t24 -60q0 -41 -33 -72q-34 -32 -73 -32q-36 0 -60 24t-24 60zM836 1227q0 41 31 72q32 32 75 32 q35 0 59 -24q25 -25 25 -60q0 -40 -32 -72t-74 -32q-36 0 -60 24t-24 60z" />
<glyph unicode="&#xe5;" horiz-adv-x="1177" d="M82 383q0 120 36 234t103 202q68 89 163 142t216 53q118 0 206 -49q89 -50 138 -131l35 155h154l-220 -989h-153l31 141q-62 -79 -144 -122q-83 -44 -182 -44q-82 0 -155 28q-71 27 -122 80q-52 53 -78 128q-28 79 -28 172zM244 412q0 -139 77 -219t199 -80q94 0 174 50 q78 49 129 118l97 436q-37 65 -114 112q-79 48 -185 48q-85 0 -154 -39q-70 -39 -119 -105q-51 -68 -77 -149q-27 -84 -27 -172zM539 1303q0 47 17 85q18 40 48 70t71 48t85 18q82 0 132 -50t50 -133q0 -47 -17 -85q-18 -40 -48 -70t-71 -48t-85 -18q-80 0 -131 51t-51 132z M621 1311q0 -49 29 -78q31 -31 77 -31q53 0 93 39t40 92q0 48 -29 79q-29 30 -75 30q-54 0 -94 -39q-41 -39 -41 -92z" />
<glyph unicode="&#xe6;" horiz-adv-x="1923" d="M82 383q0 120 36 234t103 202q68 90 164 142q97 53 217 53q117 0 205 -49q89 -50 139 -131l33 155h154l-37 -164q72 89 160 138q92 51 196 51q188 0 286 -117q97 -116 97 -307q0 -36 -6 -80t-12 -66h-797q-2 -8 -2 -21v-26q0 -60 20 -110q21 -53 63 -93q41 -40 105 -64 q63 -24 148 -24q68 0 143 25q67 22 131 72l53 -111q-67 -51 -153 -84t-172 -33q-163 0 -260 74q-96 74 -131 187l-52 -236h-153l33 141q-61 -78 -145 -122q-83 -44 -183 -44q-82 0 -155 28q-71 27 -122 80q-52 53 -78 128q-28 79 -28 172zM246 412q0 -140 76 -219 q77 -80 198 -80q93 0 175 50q81 49 128 118l97 436q-34 65 -113 112q-81 48 -186 48q-85 0 -154 -39q-70 -39 -119 -105t-76 -149q-26 -81 -26 -172zM1036 559h656q2 8 2 18v19q0 126 -72 208q-72 83 -219 83q-67 0 -129 -27t-111 -72q-50 -45 -82 -104q-33 -60 -45 -125z " />
<glyph unicode="&#xe7;" horiz-adv-x="1015" d="M82 418q0 123 43 230q44 109 119 190q78 84 177 129q103 47 218 47q137 0 228 -49t143 -136l-117 -88q-39 67 -106 102q-65 34 -144 34q-91 0 -167 -38q-72 -36 -127 -102q-53 -64 -80 -146q-27 -83 -27 -171q0 -78 23 -133q25 -59 66 -97q42 -39 98 -58t122 -19 q79 0 142 32q65 33 110 86l86 -104q-62 -65 -149 -109q-85 -43 -203 -43h-23l-53 -88q15 14 32 19q13 4 35 4q52 0 86 -31q33 -30 33 -88q0 -83 -61 -132q-62 -50 -160 -50q-73 0 -129 22q-57 22 -92 56l55 73q35 -35 79 -53q43 -18 91 -18q64 0 94 27q31 28 31 69 q0 29 -19 45t-55 16q-43 0 -73 -34l-60 39l80 135q-157 28 -252 140q-94 110 -94 292z" />
<glyph unicode="&#xe8;" horiz-adv-x="1153" d="M82 414q0 124 43 232q44 111 118 191q75 81 177 129t219 48q96 0 177 -32q77 -31 134 -89q54 -56 85 -137q30 -80 30 -174q0 -34 -6 -75q-7 -50 -10 -63h-805q-2 -6 -3 -21q-1 -10 -1 -26q0 -57 21 -110t64 -94q45 -44 104 -66q66 -25 146 -25q69 0 149 25q75 23 136 74 l53 -109q-67 -51 -159 -84q-91 -33 -189 -33q-112 0 -203 32q-87 31 -152 89q-61 56 -95 138q-33 81 -33 180zM258 559h660h6q0 10 1 18t1 19q0 125 -77 208t-224 83q-67 0 -129 -27t-111 -72q-50 -45 -82 -104q-33 -60 -45 -125zM465 1434h160l237 -295h-117z" />
<glyph unicode="&#xe9;" horiz-adv-x="1153" d="M82 414q0 124 43 232q44 111 118 191q75 81 177 129t219 48q96 0 177 -32q77 -31 134 -89q54 -56 85 -137q30 -80 30 -174q0 -34 -6 -75q-7 -50 -10 -63h-805q-2 -6 -3 -21q-1 -10 -1 -26q0 -57 21 -110t64 -94q45 -44 104 -66q66 -25 146 -25q69 0 149 25q75 23 136 74 l53 -109q-67 -51 -159 -84q-91 -33 -189 -33q-112 0 -203 32q-87 31 -152 89q-61 56 -95 138q-33 81 -33 180zM258 559h660h6q0 10 1 18t1 19q0 125 -77 208t-224 83q-67 0 -129 -27t-111 -72q-50 -45 -82 -104q-33 -60 -45 -125zM588 1139l368 295h164l-411 -295h-121z" />
<glyph unicode="&#xea;" horiz-adv-x="1153" d="M82 414q0 124 43 232q44 111 118 191q75 81 177 129t219 48q96 0 177 -32q77 -31 134 -89q54 -56 85 -137q30 -80 30 -174q0 -34 -6 -75q-7 -50 -10 -63h-805q-2 -6 -3 -21q-1 -10 -1 -26q0 -57 21 -110t64 -94q45 -44 104 -66q66 -25 146 -25q69 0 149 25q75 23 136 74 l53 -109q-67 -51 -159 -84q-91 -33 -189 -33q-112 0 -203 32q-87 31 -152 89q-61 56 -95 138q-33 81 -33 180zM258 559h660h6q0 10 1 18t1 19q0 125 -77 208t-224 83q-67 0 -129 -27t-111 -72q-50 -45 -82 -104q-33 -60 -45 -125zM457 1139l260 295h147l135 -295h-100 l-123 217l-211 -217h-108z" />
<glyph unicode="&#xeb;" horiz-adv-x="1153" d="M82 414q0 124 43 232q44 111 118 191q75 81 177 129t219 48q96 0 177 -32q77 -31 134 -89q54 -56 85 -137q30 -80 30 -174q0 -34 -6 -75q-7 -50 -10 -63h-805q-2 -6 -3 -21q-1 -10 -1 -26q0 -57 21 -110t64 -94q45 -44 104 -66q66 -25 146 -25q69 0 149 25q75 23 136 74 l53 -109q-67 -51 -159 -84q-91 -33 -189 -33q-112 0 -203 32q-87 31 -152 89q-61 56 -95 138q-33 81 -33 180zM258 559h660h6q0 10 1 18t1 19q0 125 -77 208t-224 83q-67 0 -129 -27t-111 -72q-50 -45 -82 -104q-33 -60 -45 -125zM442 1227q0 40 32 72t75 32q35 0 59 -24 q25 -25 25 -60q0 -41 -33 -72q-34 -32 -74 -32q-35 0 -59 24q-25 25 -25 60zM864 1227q0 40 32 72t75 32q35 0 59 -24q25 -25 25 -60q0 -40 -32 -72t-75 -32q-35 0 -59 24q-25 25 -25 60z" />
<glyph unicode="&#xec;" horiz-adv-x="460" d="M43 0l219 989h154l-219 -989h-154zM109 1434h159l238 -295h-117z" />
<glyph unicode="&#xed;" horiz-adv-x="460" d="M43 0l219 989h154l-219 -989h-154zM233 1139l369 295h164l-412 -295h-121z" />
<glyph unicode="&#xee;" horiz-adv-x="460" d="M43 0l219 989h154l-219 -989h-154zM102 1139l260 295h148l135 -295h-100l-123 217l-211 -217h-109z" />
<glyph unicode="&#xef;" horiz-adv-x="460" d="M43 0l219 989h154l-219 -989h-154zM88 1227q0 40 32 72t75 32q35 0 59 -24q25 -25 25 -60q0 -41 -33 -72q-34 -32 -74 -32q-35 0 -59 24q-25 25 -25 60zM510 1227q0 40 32 72t74 32q36 0 60 -24t24 -60q0 -41 -31 -72q-32 -32 -75 -32q-35 0 -59 24q-25 25 -25 60z" />
<glyph unicode="&#xf0;" d="M80 397q0 122 41 230q39 104 110 185q68 78 163 124q93 45 198 45q52 0 101 -12q50 -12 95 -39t83 -68q40 -43 63 -98q-36 107 -97 198q-64 96 -149 181l-323 -96l-19 83l270 80l-65 56l-68 53l109 117q61 -47 103 -84q66 -58 96 -88l239 71l17 -84l-193 -57 q111 -132 175 -278q63 -144 63 -295q0 -134 -40 -251t-113 -205q-72 -87 -174 -138q-104 -52 -224 -52q-101 0 -188 32q-86 32 -145 88q-60 57 -94 133q-34 75 -34 169zM242 414q0 -134 77 -217q78 -84 224 -84q78 0 146 34q69 35 119 95q51 62 80 140q30 81 30 171 q0 51 -18 103q-19 56 -54 95q-37 42 -94 67q-58 26 -138 26q-76 0 -143 -33q-69 -34 -119 -91q-52 -59 -81 -137q-29 -77 -29 -169z" />
<glyph unicode="&#xf1;" horiz-adv-x="1130" d="M49 0l219 989h154l-33 -143q67 64 155 116t195 52q131 0 213 -63t82 -181q0 -19 -4 -42q-6 -36 -8 -42l-152 -686h-151l143 649q3 13 7 34q3 18 3 36q0 86 -58 122q-59 36 -146 36q-84 0 -167 -49q-85 -51 -139 -107l-159 -721h-154zM389 1147q11 56 32 109q19 50 48 87 q27 36 67 58q36 20 87 20q58 0 86 -29q29 -31 50 -65q12 -20 43 -64q21 -30 64 -30q42 0 73 42t54 134h94q-28 -125 -82 -198q-57 -76 -153 -76q-58 0 -86 29q-29 31 -50 65q-12 20 -43 64q-21 30 -63 30q-40 0 -73 -42t-54 -134h-94z" />
<glyph unicode="&#xf2;" d="M82 416q0 115 41 224q39 105 115 190q77 86 175 134q103 50 220 50q105 0 190 -32t143 -90q59 -59 89 -138q30 -80 30 -179q0 -116 -41 -225t-114 -191q-75 -85 -175 -133q-105 -51 -220 -51q-106 0 -191 32q-83 31 -142 90t-89 140q-31 84 -31 179zM244 420 q0 -141 77 -224t218 -83q83 0 154 39q71 40 122 102q52 64 80 145q29 84 29 170q0 142 -77 225t-218 83q-85 0 -155 -39t-122 -103t-80 -145t-28 -170zM465 1434h160l237 -295h-117z" />
<glyph unicode="&#xf3;" d="M82 416q0 115 41 224q39 105 115 190q77 86 175 134q103 50 220 50q105 0 190 -32t143 -90q59 -59 89 -138q30 -80 30 -179q0 -116 -41 -225t-114 -191q-75 -85 -175 -133q-105 -51 -220 -51q-106 0 -191 32q-83 31 -142 90t-89 140q-31 84 -31 179zM244 420 q0 -141 77 -224t218 -83q83 0 154 39q71 40 122 102q52 64 80 145q29 84 29 170q0 142 -77 225t-218 83q-85 0 -155 -39t-122 -103t-80 -145t-28 -170zM588 1139l368 295h164l-411 -295h-121z" />
<glyph unicode="&#xf4;" d="M82 416q0 115 41 224q39 105 115 190q77 86 175 134q103 50 220 50q105 0 190 -32t143 -90q59 -59 89 -138q30 -80 30 -179q0 -116 -41 -225t-114 -191q-75 -85 -175 -133q-105 -51 -220 -51q-106 0 -191 32q-83 31 -142 90t-89 140q-31 84 -31 179zM244 420 q0 -141 77 -224t218 -83q83 0 154 39q71 40 122 102q52 64 80 145q29 84 29 170q0 142 -77 225t-218 83q-85 0 -155 -39t-122 -103t-80 -145t-28 -170zM459 1139l260 295h147l135 -295h-100l-123 217l-211 -217h-108z" />
<glyph unicode="&#xf5;" d="M82 416q0 115 41 224q39 105 115 190q77 86 175 134q103 50 220 50q105 0 190 -32t143 -90q59 -59 89 -138q30 -80 30 -179q0 -116 -41 -225t-114 -191q-75 -85 -175 -133q-105 -51 -220 -51q-106 0 -191 32q-83 31 -142 90t-89 140q-31 84 -31 179zM244 420 q0 -141 77 -224t218 -83q83 0 154 39q71 40 122 102q52 64 80 145q29 84 29 170q0 142 -77 225t-218 83q-85 0 -155 -39t-122 -103t-80 -145t-28 -170zM410 1147q12 62 31 109q19 50 48 87q27 36 67 58q36 20 87 20q58 0 86 -29q29 -31 50 -65q12 -20 43 -64q21 -30 65 -30 q41 0 72 42q33 44 55 134h94q-27 -123 -83 -198q-57 -76 -153 -76q-58 0 -86 29q-29 31 -50 65q-12 20 -43 64q-21 30 -62 30t-74 -42q-31 -40 -53 -134h-94z" />
<glyph unicode="&#xf6;" d="M82 416q0 115 41 224q39 105 115 190q77 86 175 134q103 50 220 50q105 0 190 -32t143 -90q59 -59 89 -138q30 -80 30 -179q0 -116 -41 -225t-114 -191q-75 -85 -175 -133q-105 -51 -220 -51q-106 0 -191 32q-83 31 -142 90t-89 140q-31 84 -31 179zM244 420 q0 -141 77 -224t218 -83q83 0 154 39q71 40 122 102q52 64 80 145q29 84 29 170q0 142 -77 225t-218 83q-85 0 -155 -39t-122 -103t-80 -145t-28 -170zM442 1227q0 40 32 72t75 32q35 0 59 -24q25 -25 25 -60q0 -41 -33 -72q-34 -32 -74 -32q-35 0 -59 24q-25 25 -25 60z M864 1227q0 40 32 72t75 32q35 0 59 -24q25 -25 25 -60q0 -40 -32 -72t-75 -32q-35 0 -59 24q-25 25 -25 60z" />
<glyph unicode="&#xf7;" horiz-adv-x="1046" d="M90 637l23 106h927l-22 -106h-928zM383 289q0 39 31 70q30 30 71 30q38 0 62 -25q24 -26 24 -61q0 -43 -30 -72q-29 -28 -72 -28q-35 0 -60 25q-26 26 -26 61zM557 1071q0 41 30 71q29 29 72 29q36 0 61 -25t25 -61q0 -42 -30 -72t-74 -30q-35 0 -59 26q-25 27 -25 62z " />
<glyph unicode="&#xf8;" d="M16 0l146 143q-80 112 -80 273q0 115 41 224q39 105 115 190q77 86 175 134q103 50 220 50q97 0 173 -27q74 -26 136 -74l76 76h119l-140 -137q88 -112 88 -277q0 -116 -41 -225t-114 -191q-75 -85 -175 -133q-105 -51 -220 -51q-98 0 -180 28q-75 25 -138 79l-82 -82 h-119zM244 420q0 -92 35 -162l552 547q-39 36 -88 53q-54 19 -114 19q-85 0 -155 -39t-122 -103t-80 -145t-28 -170zM328 188q75 -75 211 -75q83 0 154 39q71 40 122 102q52 64 80 145q29 84 29 170q0 97 -41 170z" />
<glyph unicode="&#xf9;" horiz-adv-x="1128" d="M100 219q0 17 3 42q3 22 8 42l151 686h154l-144 -649q-3 -11 -7 -33q-3 -18 -3 -35q0 -84 59 -122q58 -37 146 -37q84 0 165 48q83 49 138 107l160 721h153l-219 -989h-153l32 143q-67 -64 -153 -115q-89 -53 -195 -53q-133 0 -214 63t-81 181zM449 1434h159l238 -295 h-117z" />
<glyph unicode="&#xfa;" horiz-adv-x="1128" d="M100 219q0 17 3 42q3 22 8 42l151 686h154l-144 -649q-3 -11 -7 -33q-3 -18 -3 -35q0 -84 59 -122q58 -37 146 -37q84 0 165 48q83 49 138 107l160 721h153l-219 -989h-153l32 143q-67 -64 -153 -115q-89 -53 -195 -53q-133 0 -214 63t-81 181zM569 1139l369 295h164 l-412 -295h-121z" />
<glyph unicode="&#xfb;" horiz-adv-x="1128" d="M100 219q0 17 3 42q3 22 8 42l151 686h154l-144 -649q-3 -11 -7 -33q-3 -18 -3 -35q0 -84 59 -122q58 -37 146 -37q84 0 165 48q83 49 138 107l160 721h153l-219 -989h-153l32 143q-67 -64 -153 -115q-89 -53 -195 -53q-133 0 -214 63t-81 181zM436 1139l260 295h148 l135 -295h-100l-123 217l-211 -217h-109z" />
<glyph unicode="&#xfc;" horiz-adv-x="1128" d="M100 219q0 17 3 42q3 22 8 42l151 686h154l-144 -649q-3 -11 -7 -33q-3 -18 -3 -35q0 -84 59 -122q58 -37 146 -37q84 0 165 48q83 49 138 107l160 721h153l-219 -989h-153l32 143q-67 -64 -153 -115q-89 -53 -195 -53q-133 0 -214 63t-81 181zM428 1227q0 40 32 72 t75 32q35 0 59 -24t24 -60q0 -41 -32 -72q-34 -32 -74 -32q-35 0 -59 24q-25 25 -25 60zM850 1227q0 40 32 72t74 32q36 0 60 -24t24 -60q0 -41 -31 -72q-32 -32 -75 -32q-36 0 -60 24t-24 60z" />
<glyph unicode="&#xfd;" horiz-adv-x="1003" d="M-94 -379l53 137q36 -16 98 -16q43 0 74 20q33 21 72 78l100 154l-188 995h161l148 -811l510 811h172l-762 -1190q-65 -103 -138 -152q-72 -48 -169 -48q-77 0 -131 22zM506 1139l368 295h164l-411 -295h-121z" />
<glyph unicode="&#xfe;" d="M-41 -377l385 1743h154l-113 -518q63 80 143 122q83 44 183 44q83 0 155 -28q70 -27 121 -80q53 -55 79 -128q28 -79 28 -172q0 -120 -36 -234q-35 -112 -104 -202q-68 -89 -163 -141q-99 -54 -216 -54q-116 0 -205 50q-91 51 -139 131l-118 -533h-154zM256 272 q37 -65 114 -112t185 -47q85 0 154 39t118 104q51 68 77 148q28 86 28 174q0 139 -77 219t-200 80q-92 0 -174 -51q-79 -50 -129 -117z" />
<glyph unicode="&#xff;" horiz-adv-x="1003" d="M-94 -379l53 137q36 -16 98 -16q43 0 74 20q33 21 72 78l100 154l-188 995h161l148 -811l510 811h172l-762 -1190q-65 -103 -138 -152q-72 -48 -169 -48q-77 0 -131 22zM358 1227q0 40 32 72t75 32q35 0 59 -24q25 -25 25 -60q0 -41 -33 -72q-34 -32 -74 -32 q-35 0 -59 24q-25 25 -25 60zM780 1227q0 40 32 72t75 32q35 0 59 -24q25 -25 25 -60q0 -40 -32 -72t-75 -32q-35 0 -59 24q-25 25 -25 60z" />
<glyph unicode="&#x2c6;" horiz-adv-x="542" d="M141 1139l260 295h148l135 -295h-100l-123 217l-211 -217h-109z" />
<glyph unicode="&#x2dc;" horiz-adv-x="641" d="M143 1147q11 56 32 109q19 50 48 87q27 36 67 58q36 20 87 20q58 0 86 -29q29 -31 50 -65q12 -20 43 -64q21 -30 65 -30q41 0 72 42q33 44 55 134h94q-27 -123 -83 -198q-57 -76 -153 -76q-58 0 -86 29q-29 31 -50 65q-12 20 -43 64q-21 30 -62 30t-74 -42 q-31 -40 -53 -134h-95z" />
<glyph unicode="&#x2000;" horiz-adv-x="910" />
<glyph unicode="&#x2001;" horiz-adv-x="1821" />
<glyph unicode="&#x2002;" horiz-adv-x="910" />
<glyph unicode="&#x2003;" horiz-adv-x="1821" />
<glyph unicode="&#x2004;" horiz-adv-x="607" />
<glyph unicode="&#x2005;" horiz-adv-x="455" />
<glyph unicode="&#x2006;" horiz-adv-x="303" />
<glyph unicode="&#x2007;" horiz-adv-x="303" />
<glyph unicode="&#x2008;" horiz-adv-x="227" />
<glyph unicode="&#x2009;" horiz-adv-x="364" />
<glyph unicode="&#x200a;" horiz-adv-x="101" />
<glyph unicode="&#x2010;" horiz-adv-x="614" d="M45 428l29 135h491l-28 -135h-492z" />
<glyph unicode="&#x2011;" horiz-adv-x="614" d="M45 428l29 135h491l-28 -135h-492z" />
<glyph unicode="&#x2012;" horiz-adv-x="614" d="M45 428l29 135h491l-28 -135h-492z" />
<glyph unicode="&#x2013;" horiz-adv-x="1214" d="M45 428l29 135h1091l-28 -135h-1092z" />
<glyph unicode="&#x2014;" horiz-adv-x="1705" d="M45 428l29 135h1583l-29 -135h-1583z" />
<glyph unicode="&#x2018;" horiz-adv-x="471" d="M223 1055q0 46 19 97q18 48 51 93q34 46 76 81q43 36 90 60l63 -65q-53 -27 -105 -76q-51 -48 -67 -96h17q33 0 61 -26q27 -25 27 -66q0 -51 -38 -86t-85 -35q-46 0 -77 30q-32 30 -32 89z" />
<glyph unicode="&#x2019;" horiz-adv-x="471" d="M225 1001q56 28 107 76q48 45 65 97h-16q-35 0 -60 25q-26 26 -26 67q0 52 37 86t84 34t77 -29q31 -30 31 -89q0 -51 -19 -98q-19 -48 -51 -93q-31 -44 -75 -82q-42 -36 -90 -61z" />
<glyph unicode="&#x201a;" horiz-adv-x="471" d="M-37 -180q58 30 106 75q50 47 66 97h-16q-35 0 -62 24q-26 23 -26 68q0 49 38 85q37 36 85 36q44 0 76 -30t32 -89q0 -50 -19 -97q-18 -45 -52 -93q-32 -46 -74 -82q-45 -39 -90 -62z" />
<glyph unicode="&#x201c;" horiz-adv-x="798" d="M238 1055q0 50 19 97q20 50 52 93q34 46 76 81q43 36 90 60l62 -65q-55 -28 -106 -76q-49 -47 -66 -96h16q33 0 61 -26q27 -25 27 -66q0 -51 -38 -86t-85 -35q-45 0 -77 30q-31 30 -31 89zM563 1055q0 48 20 97q20 50 52 93q34 46 76 81q43 36 90 60l63 -65 q-54 -27 -106 -76q-50 -47 -66 -96h17q34 0 60 -26t26 -66q0 -51 -38 -86t-85 -35q-43 0 -76 30t-33 89z" />
<glyph unicode="&#x201d;" horiz-adv-x="798" d="M225 1001q56 28 107 76q48 45 65 97h-16q-35 0 -60 25q-26 26 -26 67q0 52 37 86t84 34t77 -29q31 -30 31 -89q0 -51 -19 -98q-19 -48 -51 -93q-31 -44 -75 -82q-42 -36 -90 -61zM553 1001q51 26 104 76q50 47 68 97h-16q-36 0 -62 25t-26 67q0 52 37 86q38 35 85 35 q45 0 77 -30t32 -89q0 -51 -19 -98q-19 -46 -53 -93q-35 -47 -75 -82q-41 -35 -91 -61z" />
<glyph unicode="&#x201e;" horiz-adv-x="798" d="M-37 -180q58 30 106 75q50 47 66 97h-16q-35 0 -62 24q-26 23 -26 68q0 49 38 85q37 36 85 36q44 0 76 -30t32 -89q0 -50 -19 -97q-18 -45 -52 -93q-32 -46 -74 -82q-45 -39 -90 -62zM291 -180q53 27 104 75q50 47 66 97h-17q-34 0 -60 24t-26 68q0 49 38 85t85 36 q45 0 77 -30t32 -89q0 -48 -20 -97q-20 -50 -52 -93q-33 -45 -76 -82q-45 -39 -90 -62z" />
<glyph unicode="&#x2022;" horiz-adv-x="733" d="M143 475q0 49 21 93q23 47 54 77q34 32 79 52q46 20 94 20q86 0 143 -57q56 -56 56 -142q0 -50 -21 -93q-23 -47 -54 -77q-34 -32 -79 -52q-46 -20 -94 -20q-85 0 -142 57t-57 142z" />
<glyph unicode="&#x2026;" horiz-adv-x="1415" d="M33 84q0 49 36 85t87 36q41 0 72 -31q30 -30 30 -74q0 -52 -36 -86q-35 -34 -87 -34q-44 0 -73 29t-29 75zM504 84q0 49 36 85t87 36q41 0 72 -31q30 -30 30 -74q0 -52 -36 -86q-35 -34 -87 -34q-43 0 -72 29q-30 30 -30 75zM975 84q0 49 36 85t87 36q43 0 74 -31 q30 -30 30 -74q0 -52 -37 -86t-88 -34q-43 0 -72 29q-30 30 -30 75z" />
<glyph unicode="&#x202f;" horiz-adv-x="364" />
<glyph unicode="&#x2039;" horiz-adv-x="604" d="M59 498l410 362h162l-418 -373l238 -358h-146z" />
<glyph unicode="&#x203a;" horiz-adv-x="604" d="M-23 129l418 373l-237 358h145l246 -368l-410 -363h-162z" />
<glyph unicode="&#x205f;" horiz-adv-x="455" />
<glyph unicode="&#x2122;" horiz-adv-x="929" d="M215 1313l10 53h312l-11 -53h-127l-88 -398h-57l88 398h-127zM512 915l98 451h88l60 -328l203 328h88l-99 -451h-57l82 373l-236 -373h-16l-72 373l-82 -373h-57z" />
<glyph unicode="&#xe000;" horiz-adv-x="993" d="M0 0v993h993v-993h-993z" />
</font>
</defs>
</svg>
